<?xml version="1.0" encoding="UTF-8" standalone="no"?>
<svg
   xmlns:dc="http://purl.org/dc/elements/1.1/"
   xmlns:cc="http://creativecommons.org/ns#"
   xmlns:rdf="http://www.w3.org/1999/02/22-rdf-syntax-ns#"
   xmlns:svg="http://www.w3.org/2000/svg"
   xmlns="http://www.w3.org/2000/svg"
   xmlns:sodipodi="http://sodipodi.sourceforge.net/DTD/sodipodi-0.dtd"
   xmlns:inkscape="http://www.inkscape.org/namespaces/inkscape"
   inkscape:version="1.0 (4035a4fb49, 2020-05-01)"
   height="220"
   width="850"
   sodipodi:docname="icon.svg"
   xml:space="preserve"
   viewBox="0 0 849.99996 220"
   y="0px"
   x="0px"
   id="Camada_1"
   version="1.1"><metadata
   id="metadata733"><rdf:RDF><cc:Work
       rdf:about=""><dc:format>image/svg+xml</dc:format><dc:type
         rdf:resource="http://purl.org/dc/dcmitype/StillImage" /><dc:title></dc:title></cc:Work></rdf:RDF></metadata><defs
   id="defs731">
	
	
</defs><sodipodi:namedview
   inkscape:current-layer="Camada_1"
   inkscape:window-maximized="1"
   inkscape:window-y="-8"
   inkscape:window-x="-8"
   inkscape:cy="303.47198"
   inkscape:cx="297.64001"
   inkscape:zoom="1.0215111"
   showgrid="false"
   id="namedview729"
   inkscape:window-height="1027"
   inkscape:window-width="2560"
   inkscape:pageshadow="2"
   inkscape:pageopacity="0"
   guidetolerance="10"
   gridtolerance="10"
   objecttolerance="10"
   borderopacity="1"
   bordercolor="#666666"
   pagecolor="#ffffff" />
<style
   id="style2"
   type="text/css">
	.st0{fill:none;stroke:#070308;stroke-miterlimit:10;}
	.st1{fill:#2D3186;}
	.st2{fill:url(#SVGID_1_);}
	.st3{fill:url(#SVGID_2_);}
	.st4{fill:url(#SVGID_3_);}
	.st5{fill:url(#SVGID_4_);}
	.st6{fill:url(#SVGID_5_);}
	.st7{fill:url(#SVGID_6_);}
	.st8{fill:url(#SVGID_7_);}
	.st9{fill:url(#SVGID_8_);}
	.st10{fill:url(#SVGID_9_);}
	.st11{fill:url(#SVGID_10_);}
	.st12{fill:url(#SVGID_11_);}
	.st13{fill:url(#SVGID_12_);}
	.st14{fill:url(#SVGID_13_);}
	.st15{fill:url(#SVGID_14_);}
	.st16{fill:url(#SVGID_15_);}
	.st17{fill:url(#SVGID_16_);}
	.st18{fill:url(#SVGID_17_);}
	.st19{fill:url(#SVGID_18_);}
	.st20{fill:url(#SVGID_19_);}
	.st21{fill:url(#SVGID_20_);}
	.st22{fill:url(#SVGID_21_);}
	.st23{fill:url(#SVGID_22_);}
	.st24{fill:url(#SVGID_23_);}
	.st25{fill:url(#SVGID_24_);}
	.st26{fill:url(#SVGID_25_);}
	.st27{fill:url(#SVGID_26_);}
	.st28{fill:url(#SVGID_27_);}
	.st29{fill:url(#SVGID_28_);}
	.st30{fill:url(#SVGID_29_);}
	.st31{fill:url(#SVGID_30_);}
	.st32{fill:url(#SVGID_31_);}
	.st33{fill:url(#SVGID_32_);}
	.st34{fill:url(#SVGID_33_);}
	.st35{fill:url(#SVGID_34_);}
	.st36{fill:url(#SVGID_35_);}
	.st37{fill:url(#SVGID_36_);}
	.st38{fill:url(#SVGID_37_);}
	.st39{fill:url(#SVGID_38_);}
	.st40{fill:#333333;}
	.st41{fill:url(#SVGID_39_);}
	.st42{fill:url(#SVGID_40_);}
	.st43{fill:none;stroke:#1B8A42;stroke-width:3;stroke-linecap:round;stroke-linejoin:round;stroke-miterlimit:10;}
	.st44{fill:#FFFFFF;stroke:#333333;stroke-width:2;stroke-linecap:round;stroke-linejoin:round;stroke-miterlimit:10;}
	.st45{fill:#F4E6F0;}
	.st46{fill:url(#SVGID_41_);stroke:#333333;stroke-width:2;stroke-miterlimit:10;}
	.st47{fill:url(#SVGID_42_);stroke:#333333;stroke-width:2;stroke-linecap:round;stroke-linejoin:round;stroke-miterlimit:10;}
	.st48{fill:url(#SVGID_43_);stroke:#333333;stroke-width:2;stroke-linecap:round;stroke-linejoin:round;stroke-miterlimit:10;}
	.st49{fill:url(#SVGID_44_);stroke:#333333;stroke-width:2;stroke-linecap:round;stroke-linejoin:round;stroke-miterlimit:10;}
	.st50{fill:#818080;}
	.st51{fill:#818080;stroke:#070308;stroke-width:2;stroke-miterlimit:10;}
	.st52{fill:#B3B3B3;stroke:#070308;stroke-width:2;stroke-miterlimit:10;}
	.st53{fill:#FFFFFF;stroke:#070308;stroke-width:2;stroke-linecap:round;stroke-linejoin:round;stroke-miterlimit:10;}
	.st54{fill:#E7E6E5;stroke:#070308;stroke-width:2;stroke-miterlimit:10;}
	.st55{fill:#999999;stroke:#070308;stroke-width:2;stroke-linecap:round;stroke-linejoin:round;stroke-miterlimit:10;}
	.st56{fill:#666565;stroke:#070308;stroke-width:2;stroke-miterlimit:10;}
	.st57{fill:#818080;stroke:#070308;stroke-width:2;stroke-linecap:round;stroke-linejoin:round;stroke-miterlimit:10;}
	.st58{fill:#666565;stroke:#070308;stroke-width:2;stroke-linecap:round;stroke-linejoin:round;stroke-miterlimit:10;}
	.st59{fill:url(#SVGID_45_);}
	.st60{fill:url(#SVGID_46_);}
	.st61{fill:url(#SVGID_47_);}
	.st62{fill:url(#SVGID_48_);}
	.st63{fill:url(#SVGID_49_);}
	.st64{fill:url(#SVGID_50_);}
	.st65{fill:url(#SVGID_51_);}
	.st66{fill:url(#SVGID_52_);}
	.st67{fill:url(#SVGID_53_);}
	.st68{fill:url(#SVGID_54_);}
	.st69{fill:url(#SVGID_55_);}
	.st70{fill:url(#SVGID_56_);}
	.st71{fill:url(#SVGID_57_);}
	.st72{fill:url(#SVGID_58_);}
	.st73{fill:url(#SVGID_59_);}
	.st74{fill:url(#SVGID_60_);}
	.st75{fill:url(#SVGID_61_);}
	.st76{fill:url(#SVGID_62_);}
	.st77{fill:url(#SVGID_63_);}
	.st78{fill:url(#SVGID_64_);}
	.st79{fill:url(#SVGID_65_);}
	.st80{fill:url(#SVGID_66_);}
	.st81{fill:url(#SVGID_67_);}
	.st82{fill:url(#SVGID_68_);}
	.st83{fill:url(#SVGID_69_);}
	.st84{fill:url(#SVGID_70_);}
	.st85{fill:url(#SVGID_71_);}
	.st86{fill:url(#SVGID_72_);}
	.st87{fill:url(#SVGID_73_);}
	.st88{fill:url(#SVGID_74_);}
	.st89{fill:url(#SVGID_75_);}
	.st90{fill:url(#SVGID_76_);}
	.st91{fill:url(#SVGID_77_);}
	.st92{fill:url(#SVGID_78_);}
	.st93{fill:url(#SVGID_79_);}
	.st94{fill:url(#SVGID_80_);}
	.st95{fill:url(#SVGID_81_);}
	.st96{fill:url(#SVGID_82_);}
	.st97{fill:url(#SVGID_83_);}
	.st98{fill:url(#SVGID_84_);}
	.st99{fill:url(#SVGID_85_);stroke:#333333;stroke-width:2;stroke-miterlimit:10;}
	.st100{fill:url(#SVGID_86_);stroke:#333333;stroke-width:2;stroke-linecap:round;stroke-linejoin:round;stroke-miterlimit:10;}
	.st101{fill:url(#SVGID_87_);stroke:#333333;stroke-width:2;stroke-linecap:round;stroke-linejoin:round;stroke-miterlimit:10;}
	.st102{fill:url(#SVGID_88_);stroke:#333333;stroke-width:2;stroke-linecap:round;stroke-linejoin:round;stroke-miterlimit:10;}
</style>
<g
   transform="matrix(0.9943334,0,0,0.9943334,-18.301471,0.0233958)"
   id="g2709"><g
     id="g602"
     transform="matrix(1.9114368,0,0,1.9114368,-191.81451,-711.85771)">
		<g
   id="g574">
			<linearGradient
   y2="430.90799"
   x2="264.33231"
   y1="401.0477"
   x1="262.40579"
   gradientUnits="userSpaceOnUse"
   id="SVGID_1_">
				<stop
   id="stop4"
   style="stop-color:#C9DCEE"
   offset="0" />
				<stop
   id="stop6"
   style="stop-color:#C0D3E9"
   offset="0.1112" />
				<stop
   id="stop8"
   style="stop-color:#A8BCD9"
   offset="0.2961" />
				<stop
   id="stop10"
   style="stop-color:#8599BF"
   offset="0.532" />
				<stop
   id="stop12"
   style="stop-color:#5470A0"
   offset="0.8067" />
				<stop
   id="stop14"
   style="stop-color:#0D578D"
   offset="0.9944" />
			</linearGradient>
			<path
   style="fill:url(#SVGID_1_)"
   id="path17"
   d="m 272.09,446.98 c 0,0.71 -0.09,1.38 -0.27,2.01 -0.18,0.64 -0.44,1.23 -0.77,1.78 -0.33,0.55 -0.73,1.05 -1.19,1.49 -0.46,0.45 -0.98,0.83 -1.54,1.14 -0.56,0.31 -1.17,0.55 -1.82,0.72 -0.65,0.17 -1.33,0.25 -2.03,0.25 h -4.93 c -0.12,0 -0.23,-0.03 -0.32,-0.08 -0.09,-0.05 -0.14,-0.17 -0.14,-0.34 v -13.96 c 0,-0.14 0.04,-0.25 0.11,-0.34 0.07,-0.09 0.19,-0.13 0.34,-0.13 h 4.93 c 0.7,0 1.37,0.09 2.02,0.26 0.65,0.17 1.26,0.42 1.82,0.74 0.56,0.32 1.08,0.7 1.54,1.15 0.47,0.45 0.86,0.95 1.19,1.5 0.33,0.55 0.59,1.15 0.77,1.79 0.2,0.65 0.29,1.32 0.29,2.02 z m -9.14,-3.85 v 7.69 h 0.84 c 0.15,0 0.3,0 0.45,-0.02 0.15,-0.01 0.29,-0.02 0.44,-0.03 0.5,-0.04 0.97,-0.16 1.4,-0.36 0.43,-0.2 0.81,-0.47 1.13,-0.8 0.32,-0.33 0.58,-0.72 0.76,-1.16 0.18,-0.45 0.27,-0.93 0.27,-1.46 0,-0.56 -0.1,-1.07 -0.31,-1.54 -0.21,-0.47 -0.49,-0.88 -0.85,-1.22 -0.36,-0.34 -0.78,-0.61 -1.26,-0.8 -0.48,-0.19 -1,-0.28 -1.54,-0.28 h -1.33 z"
   class="st2" />
			<linearGradient
   y2="430.02521"
   x2="278.0162"
   y1="400.16489"
   x1="276.08969"
   gradientUnits="userSpaceOnUse"
   id="SVGID_2_">
				<stop
   id="stop19"
   style="stop-color:#C9DCEE"
   offset="0" />
				<stop
   id="stop21"
   style="stop-color:#C0D3E9"
   offset="0.1112" />
				<stop
   id="stop23"
   style="stop-color:#A8BCD9"
   offset="0.2961" />
				<stop
   id="stop25"
   style="stop-color:#8599BF"
   offset="0.532" />
				<stop
   id="stop27"
   style="stop-color:#5470A0"
   offset="0.8067" />
				<stop
   id="stop29"
   style="stop-color:#0D578D"
   offset="0.9944" />
			</linearGradient>
			<path
   style="fill:url(#SVGID_2_)"
   id="path32"
   d="m 277.75,439.94 c 0.01,-0.04 0.03,-0.08 0.07,-0.13 0.04,-0.05 0.08,-0.09 0.13,-0.13 0.05,-0.04 0.11,-0.07 0.17,-0.09 0.06,-0.02 0.12,-0.03 0.17,-0.03 h 2.56 c 0.11,0 0.21,0.03 0.29,0.1 0.08,0.07 0.14,0.13 0.18,0.18 l 0.25,0.57 5.25,13.53 c 0.05,0.13 0.04,0.24 -0.03,0.32 -0.07,0.08 -0.2,0.12 -0.38,0.12 h -2.87 c -0.15,0 -0.27,-0.03 -0.35,-0.08 -0.08,-0.05 -0.15,-0.15 -0.19,-0.28 -0.13,-0.34 -0.26,-0.68 -0.39,-1.01 -0.13,-0.34 -0.25,-0.67 -0.38,-1.01 h -5.31 c -0.13,0.34 -0.25,0.68 -0.38,1.01 -0.13,0.34 -0.26,0.67 -0.38,1.01 -0.09,0.25 -0.26,0.37 -0.51,0.37 h -2.95 c -0.13,0 -0.23,-0.03 -0.31,-0.1 -0.08,-0.07 -0.1,-0.17 -0.04,-0.3 z m 1.82,4.27 c -0.13,0.34 -0.25,0.71 -0.38,1.1 -0.13,0.39 -0.26,0.79 -0.38,1.19 -0.13,0.4 -0.25,0.79 -0.38,1.18 -0.13,0.39 -0.26,0.75 -0.38,1.09 h 3.07 z"
   class="st3" />
			<linearGradient
   y2="428.6525"
   x2="299.29221"
   y1="398.79221"
   x1="297.36581"
   gradientUnits="userSpaceOnUse"
   id="SVGID_3_">
				<stop
   id="stop34"
   style="stop-color:#C9DCEE"
   offset="0" />
				<stop
   id="stop36"
   style="stop-color:#C0D3E9"
   offset="0.1112" />
				<stop
   id="stop38"
   style="stop-color:#A8BCD9"
   offset="0.2961" />
				<stop
   id="stop40"
   style="stop-color:#8599BF"
   offset="0.532" />
				<stop
   id="stop42"
   style="stop-color:#5470A0"
   offset="0.8067" />
				<stop
   id="stop44"
   style="stop-color:#0D578D"
   offset="0.9944" />
			</linearGradient>
			<path
   style="fill:url(#SVGID_3_)"
   id="path47"
   d="m 295.07,440.01 c 0,-0.14 0.04,-0.25 0.11,-0.33 0.08,-0.08 0.18,-0.12 0.32,-0.12 h 9.91 c 0.15,0 0.26,0.04 0.34,0.13 0.08,0.09 0.12,0.2 0.12,0.35 v 2.47 c 0,0.11 -0.04,0.22 -0.12,0.32 -0.08,0.1 -0.2,0.15 -0.35,0.15 h -6.48 v 2.48 h 5 c 0.13,0 0.23,0.03 0.31,0.09 0.08,0.06 0.12,0.16 0.12,0.3 V 448 c 0,0.09 -0.04,0.18 -0.11,0.27 -0.07,0.09 -0.18,0.13 -0.32,0.13 h -5.01 v 2.56 h 6.72 c 0.3,0 0.45,0.15 0.45,0.46 v 2.51 c 0,0.07 -0.03,0.13 -0.08,0.18 -0.03,0.19 -0.16,0.28 -0.41,0.28 h -10.1 c -0.13,0 -0.24,-0.03 -0.32,-0.1 -0.08,-0.07 -0.12,-0.18 -0.12,-0.32 v -13.96 z"
   class="st4" />
			<linearGradient
   y2="427.73929"
   x2="313.44659"
   y1="397.87909"
   x1="311.52011"
   gradientUnits="userSpaceOnUse"
   id="SVGID_4_">
				<stop
   id="stop49"
   style="stop-color:#C9DCEE"
   offset="0" />
				<stop
   id="stop51"
   style="stop-color:#C0D3E9"
   offset="0.1112" />
				<stop
   id="stop53"
   style="stop-color:#A8BCD9"
   offset="0.2961" />
				<stop
   id="stop55"
   style="stop-color:#8599BF"
   offset="0.532" />
				<stop
   id="stop57"
   style="stop-color:#5470A0"
   offset="0.8067" />
				<stop
   id="stop59"
   style="stop-color:#0D578D"
   offset="0.9944" />
			</linearGradient>
			<path
   style="fill:url(#SVGID_4_)"
   id="path62"
   d="m 321.41,446.98 c 0,0.71 -0.09,1.38 -0.27,2.01 -0.18,0.64 -0.44,1.23 -0.77,1.78 -0.33,0.55 -0.73,1.05 -1.19,1.49 -0.46,0.45 -0.98,0.83 -1.54,1.14 -0.56,0.31 -1.17,0.55 -1.82,0.72 -0.65,0.17 -1.33,0.25 -2.03,0.25 h -4.93 c -0.12,0 -0.23,-0.03 -0.32,-0.08 -0.09,-0.05 -0.14,-0.17 -0.14,-0.34 v -13.96 c 0,-0.14 0.04,-0.25 0.11,-0.34 0.08,-0.09 0.19,-0.13 0.34,-0.13 h 4.93 c 0.7,0 1.37,0.09 2.02,0.26 0.65,0.17 1.26,0.42 1.82,0.74 0.56,0.32 1.08,0.7 1.54,1.15 0.47,0.45 0.86,0.95 1.19,1.5 0.33,0.55 0.59,1.15 0.77,1.79 0.2,0.65 0.29,1.32 0.29,2.02 z m -9.14,-3.85 v 7.69 h 0.84 c 0.15,0 0.3,0 0.45,-0.02 0.15,-0.01 0.29,-0.02 0.44,-0.03 0.5,-0.04 0.97,-0.16 1.4,-0.36 0.43,-0.2 0.81,-0.47 1.13,-0.8 0.32,-0.33 0.58,-0.72 0.76,-1.16 0.18,-0.45 0.27,-0.93 0.27,-1.46 0,-0.56 -0.1,-1.07 -0.31,-1.54 -0.21,-0.47 -0.49,-0.88 -0.85,-1.22 -0.36,-0.34 -0.78,-0.61 -1.26,-0.8 -0.48,-0.19 -1,-0.28 -1.54,-0.28 h -1.33 z"
   class="st5" />
			<linearGradient
   y2="426.72601"
   x2="329.15359"
   y1="396.86569"
   x1="327.22711"
   gradientUnits="userSpaceOnUse"
   id="SVGID_5_">
				<stop
   id="stop64"
   style="stop-color:#C9DCEE"
   offset="0" />
				<stop
   id="stop66"
   style="stop-color:#C0D3E9"
   offset="0.1112" />
				<stop
   id="stop68"
   style="stop-color:#A8BCD9"
   offset="0.2961" />
				<stop
   id="stop70"
   style="stop-color:#8599BF"
   offset="0.532" />
				<stop
   id="stop72"
   style="stop-color:#5470A0"
   offset="0.8067" />
				<stop
   id="stop74"
   style="stop-color:#0D578D"
   offset="0.9944" />
			</linearGradient>
			<path
   style="fill:url(#SVGID_5_)"
   id="path77"
   d="m 327.84,448.47 c 0,0.49 0.07,0.91 0.2,1.26 0.14,0.34 0.32,0.62 0.54,0.84 0.22,0.22 0.48,0.37 0.78,0.47 0.3,0.1 0.61,0.15 0.93,0.15 0.33,0 0.65,-0.06 0.95,-0.18 0.3,-0.12 0.56,-0.29 0.78,-0.52 0.22,-0.23 0.4,-0.51 0.53,-0.86 0.13,-0.34 0.2,-0.73 0.2,-1.17 v -8.48 c 0,-0.12 0.04,-0.22 0.12,-0.31 0.08,-0.09 0.19,-0.13 0.33,-0.13 h 2.92 c 0.15,0 0.27,0.04 0.36,0.13 0.09,0.09 0.13,0.19 0.13,0.3 v 8.42 c 0,1.17 -0.17,2.15 -0.51,2.94 -0.34,0.79 -0.8,1.43 -1.38,1.91 -0.58,0.48 -1.25,0.83 -2.01,1.04 -0.76,0.21 -1.56,0.31 -2.4,0.31 -0.84,0 -1.64,-0.11 -2.41,-0.32 -0.77,-0.22 -1.44,-0.57 -2.02,-1.06 -0.58,-0.49 -1.04,-1.13 -1.38,-1.92 -0.34,-0.79 -0.51,-1.76 -0.51,-2.9 v -8.42 c 0,-0.11 0.04,-0.21 0.11,-0.3 0.08,-0.09 0.17,-0.13 0.28,-0.13 h 2.99 c 0.1,0 0.2,0.04 0.31,0.12 0.11,0.08 0.16,0.19 0.16,0.32 z"
   class="st6" />
			<linearGradient
   y2="425.7785"
   x2="343.8403"
   y1="395.91821"
   x1="341.91379"
   gradientUnits="userSpaceOnUse"
   id="SVGID_6_">
				<stop
   id="stop79"
   style="stop-color:#C9DCEE"
   offset="0" />
				<stop
   id="stop81"
   style="stop-color:#C0D3E9"
   offset="0.1112" />
				<stop
   id="stop83"
   style="stop-color:#A8BCD9"
   offset="0.2961" />
				<stop
   id="stop85"
   style="stop-color:#8599BF"
   offset="0.532" />
				<stop
   id="stop87"
   style="stop-color:#5470A0"
   offset="0.8067" />
				<stop
   id="stop89"
   style="stop-color:#0D578D"
   offset="0.9944" />
			</linearGradient>
			<path
   style="fill:url(#SVGID_6_)"
   id="path92"
   d="m 350.83,440.63 c 0.11,0.07 0.2,0.15 0.25,0.26 0.05,0.11 0.04,0.23 -0.03,0.38 l -1.69,2.4 c -0.07,0.11 -0.15,0.18 -0.24,0.19 -0.09,0.01 -0.19,-0.01 -0.3,-0.08 -0.33,-0.25 -0.69,-0.44 -1.08,-0.57 -0.39,-0.13 -0.81,-0.2 -1.25,-0.2 -0.55,0 -1.05,0.1 -1.51,0.31 -0.46,0.21 -0.86,0.49 -1.19,0.85 -0.33,0.36 -0.59,0.78 -0.78,1.26 -0.19,0.48 -0.28,0.99 -0.28,1.54 0,0.55 0.09,1.06 0.28,1.53 0.19,0.48 0.45,0.89 0.78,1.25 0.33,0.36 0.73,0.64 1.19,0.84 0.46,0.21 0.96,0.31 1.51,0.31 0.44,0 0.86,-0.07 1.26,-0.2 0.4,-0.14 0.76,-0.33 1.09,-0.57 0.12,-0.07 0.22,-0.1 0.3,-0.09 0.08,0.01 0.16,0.07 0.24,0.18 l 1.71,2.46 c 0.07,0.15 0.08,0.27 0.03,0.37 -0.05,0.1 -0.14,0.18 -0.25,0.25 -0.63,0.42 -1.3,0.74 -2.02,0.97 -0.72,0.23 -1.48,0.34 -2.28,0.34 -0.71,0 -1.38,-0.09 -2.03,-0.27 -0.65,-0.18 -1.26,-0.44 -1.82,-0.77 -0.57,-0.33 -1.08,-0.73 -1.54,-1.19 -0.46,-0.46 -0.86,-0.98 -1.19,-1.54 -0.33,-0.56 -0.59,-1.17 -0.77,-1.82 -0.18,-0.65 -0.27,-1.33 -0.27,-2.03 0,-0.71 0.09,-1.38 0.27,-2.03 0.18,-0.65 0.44,-1.26 0.77,-1.83 0.33,-0.57 0.73,-1.09 1.19,-1.55 0.46,-0.47 0.98,-0.86 1.54,-1.19 0.57,-0.33 1.17,-0.59 1.82,-0.77 0.65,-0.18 1.33,-0.27 2.03,-0.27 0.8,0 1.55,0.11 2.26,0.33 0.71,0.21 1.38,0.53 2,0.95 z"
   class="st7" />
			<linearGradient
   y2="424.87949"
   x2="357.77399"
   y1="395.0192"
   x1="355.8476"
   gradientUnits="userSpaceOnUse"
   id="SVGID_7_">
				<stop
   id="stop94"
   style="stop-color:#C9DCEE"
   offset="0" />
				<stop
   id="stop96"
   style="stop-color:#C0D3E9"
   offset="0.1112" />
				<stop
   id="stop98"
   style="stop-color:#A8BCD9"
   offset="0.2961" />
				<stop
   id="stop100"
   style="stop-color:#8599BF"
   offset="0.532" />
				<stop
   id="stop102"
   style="stop-color:#5470A0"
   offset="0.8067" />
				<stop
   id="stop104"
   style="stop-color:#0D578D"
   offset="0.9944" />
			</linearGradient>
			<path
   style="fill:url(#SVGID_7_)"
   id="path107"
   d="m 357.84,439.94 c 0.01,-0.04 0.03,-0.08 0.06,-0.13 0.04,-0.05 0.08,-0.09 0.14,-0.13 0.05,-0.04 0.11,-0.07 0.17,-0.09 0.06,-0.02 0.12,-0.03 0.17,-0.03 h 2.56 c 0.11,0 0.21,0.03 0.29,0.1 0.08,0.07 0.14,0.13 0.18,0.18 l 0.25,0.57 5.25,13.53 c 0.05,0.13 0.04,0.24 -0.03,0.32 -0.07,0.08 -0.2,0.12 -0.38,0.12 h -2.87 c -0.15,0 -0.27,-0.03 -0.35,-0.08 -0.08,-0.06 -0.15,-0.15 -0.2,-0.28 -0.13,-0.34 -0.26,-0.68 -0.39,-1.01 -0.13,-0.34 -0.25,-0.67 -0.38,-1.01 H 357 c -0.13,0.34 -0.25,0.68 -0.38,1.01 -0.13,0.34 -0.26,0.67 -0.38,1.01 -0.09,0.25 -0.26,0.37 -0.51,0.37 h -2.95 c -0.13,0 -0.23,-0.03 -0.32,-0.1 -0.08,-0.07 -0.1,-0.17 -0.04,-0.3 z m 1.82,4.27 c -0.13,0.34 -0.25,0.71 -0.38,1.1 -0.13,0.39 -0.26,0.79 -0.38,1.19 -0.13,0.4 -0.25,0.79 -0.38,1.18 -0.13,0.39 -0.26,0.75 -0.38,1.09 h 3.07 z"
   class="st8" />
			<linearGradient
   y2="423.9678"
   x2="371.90591"
   y1="394.10751"
   x1="369.97949"
   gradientUnits="userSpaceOnUse"
   id="SVGID_8_">
				<stop
   id="stop109"
   style="stop-color:#C9DCEE"
   offset="0" />
				<stop
   id="stop111"
   style="stop-color:#C0D3E9"
   offset="0.1112" />
				<stop
   id="stop113"
   style="stop-color:#A8BCD9"
   offset="0.2961" />
				<stop
   id="stop115"
   style="stop-color:#8599BF"
   offset="0.532" />
				<stop
   id="stop117"
   style="stop-color:#5470A0"
   offset="0.8067" />
				<stop
   id="stop119"
   style="stop-color:#0D578D"
   offset="0.9944" />
			</linearGradient>
			<path
   style="fill:url(#SVGID_8_)"
   id="path122"
   d="m 379.02,440.63 c 0.11,0.07 0.2,0.15 0.25,0.26 0.05,0.11 0.04,0.23 -0.03,0.38 l -1.69,2.4 c -0.07,0.11 -0.15,0.18 -0.24,0.19 -0.09,0.01 -0.19,-0.01 -0.3,-0.08 -0.33,-0.25 -0.69,-0.44 -1.08,-0.57 -0.39,-0.13 -0.81,-0.2 -1.25,-0.2 -0.55,0 -1.05,0.1 -1.51,0.31 -0.46,0.21 -0.86,0.49 -1.19,0.85 -0.33,0.36 -0.59,0.78 -0.78,1.26 -0.19,0.48 -0.28,0.99 -0.28,1.54 0,0.55 0.09,1.06 0.28,1.53 0.19,0.48 0.45,0.89 0.78,1.25 0.33,0.36 0.73,0.64 1.19,0.84 0.46,0.21 0.96,0.31 1.51,0.31 0.44,0 0.86,-0.07 1.26,-0.2 0.4,-0.14 0.76,-0.33 1.09,-0.57 0.12,-0.07 0.22,-0.1 0.3,-0.09 0.08,0.01 0.16,0.07 0.24,0.18 l 1.71,2.46 c 0.07,0.15 0.08,0.27 0.03,0.37 -0.05,0.1 -0.14,0.18 -0.25,0.25 -0.63,0.42 -1.3,0.74 -2.02,0.97 -0.72,0.23 -1.48,0.34 -2.28,0.34 -0.71,0 -1.38,-0.09 -2.03,-0.27 -0.65,-0.18 -1.26,-0.44 -1.82,-0.77 -0.57,-0.33 -1.08,-0.73 -1.54,-1.19 -0.46,-0.46 -0.86,-0.98 -1.19,-1.54 -0.33,-0.56 -0.59,-1.17 -0.77,-1.82 -0.18,-0.65 -0.27,-1.33 -0.27,-2.03 0,-0.71 0.09,-1.38 0.27,-2.03 0.18,-0.65 0.44,-1.26 0.77,-1.83 0.33,-0.57 0.73,-1.09 1.19,-1.55 0.46,-0.47 0.98,-0.86 1.54,-1.19 0.57,-0.33 1.17,-0.59 1.82,-0.77 0.65,-0.18 1.33,-0.27 2.03,-0.27 0.8,0 1.55,0.11 2.26,0.33 0.7,0.21 1.37,0.53 2,0.95 z m -2.93,13.76 c -0.15,0.1 -0.22,0.22 -0.22,0.35 0,0.11 0.05,0.2 0.15,0.29 0.1,0.09 0.23,0.18 0.38,0.28 0.15,0.1 0.31,0.2 0.49,0.31 0.18,0.11 0.34,0.24 0.49,0.38 0.15,0.14 0.28,0.31 0.38,0.49 0.1,0.18 0.15,0.4 0.15,0.64 0,0.24 -0.08,0.5 -0.25,0.77 -0.16,0.27 -0.39,0.54 -0.69,0.81 -0.3,0.27 -0.65,0.51 -1.06,0.74 -0.41,0.23 -0.87,0.42 -1.38,0.57 h -0.05 c -0.1,0 -0.21,-0.07 -0.33,-0.22 -0.12,-0.15 -0.23,-0.31 -0.34,-0.5 -0.11,-0.19 -0.2,-0.37 -0.27,-0.54 -0.07,-0.18 -0.11,-0.29 -0.11,-0.36 0,-0.11 0.04,-0.18 0.11,-0.22 1.14,-0.29 1.71,-0.64 1.71,-1.06 0,-0.15 -0.05,-0.28 -0.15,-0.39 -0.1,-0.11 -0.22,-0.22 -0.37,-0.32 -0.15,-0.1 -0.31,-0.21 -0.48,-0.31 -0.17,-0.1 -0.33,-0.21 -0.48,-0.33 -0.15,-0.12 -0.27,-0.25 -0.37,-0.4 -0.1,-0.15 -0.15,-0.32 -0.15,-0.51 0,-0.07 0.01,-0.15 0.03,-0.22 0.02,-0.08 0.08,-0.16 0.17,-0.25 z"
   class="st9" />
			<linearGradient
   y2="423.06879"
   x2="385.8392"
   y1="393.20859"
   x1="383.91281"
   gradientUnits="userSpaceOnUse"
   id="SVGID_9_">
				<stop
   id="stop124"
   style="stop-color:#C9DCEE"
   offset="0" />
				<stop
   id="stop126"
   style="stop-color:#C0D3E9"
   offset="0.1112" />
				<stop
   id="stop128"
   style="stop-color:#A8BCD9"
   offset="0.2961" />
				<stop
   id="stop130"
   style="stop-color:#8599BF"
   offset="0.532" />
				<stop
   id="stop132"
   style="stop-color:#5470A0"
   offset="0.8067" />
				<stop
   id="stop134"
   style="stop-color:#0D578D"
   offset="0.9944" />
			</linearGradient>
			<path
   style="fill:url(#SVGID_9_)"
   id="path137"
   d="m 386.02,439.94 c 0.01,-0.04 0.03,-0.08 0.06,-0.13 0.04,-0.05 0.08,-0.09 0.14,-0.13 0.05,-0.04 0.11,-0.07 0.17,-0.09 0.06,-0.02 0.12,-0.03 0.17,-0.03 h 2.56 c 0.11,0 0.21,0.03 0.29,0.1 0.08,0.07 0.14,0.13 0.18,0.18 l 0.25,0.57 5.25,13.53 c 0.05,0.13 0.04,0.24 -0.03,0.32 -0.07,0.08 -0.2,0.12 -0.38,0.12 h -2.87 c -0.15,0 -0.27,-0.03 -0.35,-0.08 -0.08,-0.06 -0.15,-0.15 -0.2,-0.28 -0.13,-0.34 -0.26,-0.68 -0.39,-1.01 -0.13,-0.34 -0.25,-0.67 -0.38,-1.01 h -5.31 c -0.13,0.34 -0.25,0.68 -0.38,1.01 -0.13,0.34 -0.26,0.67 -0.38,1.01 -0.09,0.25 -0.26,0.37 -0.51,0.37 h -2.95 c -0.13,0 -0.23,-0.03 -0.32,-0.1 -0.08,-0.07 -0.1,-0.17 -0.04,-0.3 z m -1.67,-3.55 c 0.13,-0.18 0.28,-0.34 0.45,-0.49 0.17,-0.15 0.36,-0.27 0.56,-0.37 0.2,-0.1 0.41,-0.18 0.62,-0.24 0.21,-0.05 0.43,-0.08 0.64,-0.08 0.12,0 0.25,0.01 0.39,0.04 0.14,0.03 0.29,0.07 0.46,0.14 0.17,0.07 0.35,0.15 0.56,0.26 0.21,0.11 0.44,0.25 0.69,0.41 0.07,0.05 0.14,0.08 0.21,0.11 0.07,0.03 0.15,0.04 0.24,0.04 0.14,0 0.26,-0.03 0.35,-0.08 0.09,-0.06 0.18,-0.13 0.26,-0.21 l 0.33,-0.4 c 0.06,-0.09 0.12,-0.13 0.19,-0.14 0.07,0 0.13,0.02 0.2,0.08 l 1.03,0.9 c 0.07,0.07 0.12,0.14 0.14,0.19 0.02,0.05 0,0.12 -0.06,0.21 l -0.3,0.39 c -0.27,0.37 -0.6,0.65 -0.99,0.86 -0.39,0.21 -0.81,0.31 -1.25,0.31 -0.26,0 -0.52,-0.04 -0.79,-0.13 -0.27,-0.09 -0.52,-0.21 -0.77,-0.36 l -0.55,-0.35 c -0.07,-0.05 -0.14,-0.08 -0.21,-0.11 -0.07,-0.03 -0.15,-0.04 -0.24,-0.04 -0.13,0 -0.25,0.03 -0.34,0.08 -0.1,0.05 -0.18,0.12 -0.25,0.21 l -0.31,0.4 c -0.04,0.07 -0.11,0.1 -0.21,0.11 -0.1,0.01 -0.18,-0.02 -0.24,-0.07 l -1.03,-0.87 c -0.03,-0.03 -0.06,-0.07 -0.08,-0.1 -0.02,-0.03 -0.03,-0.07 -0.03,-0.14 0,-0.01 0,-0.02 0,-0.04 0,-0.02 0.02,-0.05 0.04,-0.09 0.02,-0.04 0.06,-0.1 0.1,-0.17 0.04,-0.06 0.11,-0.15 0.19,-0.26 z m 3.49,7.82 c -0.13,0.34 -0.25,0.71 -0.38,1.1 -0.13,0.39 -0.26,0.79 -0.38,1.19 -0.13,0.4 -0.25,0.79 -0.38,1.18 -0.13,0.39 -0.26,0.75 -0.38,1.09 h 3.07 z"
   class="st10" />
			<linearGradient
   y2="422.07629"
   x2="401.22409"
   y1="392.216"
   x1="399.2977"
   gradientUnits="userSpaceOnUse"
   id="SVGID_10_">
				<stop
   id="stop139"
   style="stop-color:#C9DCEE"
   offset="0" />
				<stop
   id="stop141"
   style="stop-color:#C0D3E9"
   offset="0.1112" />
				<stop
   id="stop143"
   style="stop-color:#A8BCD9"
   offset="0.2961" />
				<stop
   id="stop145"
   style="stop-color:#8599BF"
   offset="0.532" />
				<stop
   id="stop147"
   style="stop-color:#5470A0"
   offset="0.8067" />
				<stop
   id="stop149"
   style="stop-color:#0D578D"
   offset="0.9944" />
			</linearGradient>
			<path
   style="fill:url(#SVGID_10_)"
   id="path152"
   d="m 395.19,446.98 c 0,-0.71 0.09,-1.38 0.27,-2.03 0.18,-0.65 0.44,-1.26 0.77,-1.83 0.33,-0.57 0.73,-1.09 1.2,-1.55 0.46,-0.47 0.98,-0.86 1.54,-1.19 0.57,-0.33 1.18,-0.59 1.83,-0.77 0.65,-0.18 1.33,-0.27 2.03,-0.27 0.7,0 1.38,0.09 2.03,0.27 0.65,0.18 1.26,0.44 1.83,0.77 0.57,0.33 1.08,0.73 1.55,1.19 0.47,0.47 0.86,0.98 1.2,1.55 0.33,0.57 0.59,1.18 0.77,1.83 0.18,0.65 0.27,1.33 0.27,2.03 0,0.71 -0.09,1.38 -0.27,2.03 -0.18,0.65 -0.44,1.26 -0.77,1.82 -0.33,0.56 -0.73,1.08 -1.2,1.54 -0.47,0.46 -0.98,0.86 -1.55,1.19 -0.57,0.33 -1.18,0.59 -1.83,0.77 -0.65,0.18 -1.33,0.27 -2.03,0.27 -0.71,0 -1.39,-0.09 -2.03,-0.27 -0.65,-0.18 -1.26,-0.44 -1.83,-0.77 -0.57,-0.33 -1.08,-0.73 -1.54,-1.19 -0.46,-0.46 -0.86,-0.98 -1.2,-1.54 -0.33,-0.56 -0.59,-1.17 -0.77,-1.82 -0.18,-0.64 -0.27,-1.32 -0.27,-2.03 z m 3.86,-0.01 c 0,0.55 0.09,1.07 0.28,1.55 0.19,0.48 0.45,0.9 0.78,1.25 0.34,0.36 0.73,0.64 1.19,0.84 0.46,0.2 0.96,0.3 1.52,0.3 0.55,0 1.06,-0.1 1.52,-0.3 0.46,-0.2 0.86,-0.48 1.2,-0.84 0.34,-0.36 0.6,-0.77 0.78,-1.25 0.19,-0.48 0.28,-1 0.28,-1.55 0,-0.55 -0.09,-1.06 -0.28,-1.54 -0.19,-0.48 -0.45,-0.9 -0.78,-1.26 -0.34,-0.36 -0.74,-0.64 -1.2,-0.85 -0.46,-0.21 -0.97,-0.31 -1.52,-0.31 -0.55,0 -1.06,0.1 -1.52,0.31 -0.46,0.21 -0.86,0.49 -1.19,0.85 -0.34,0.36 -0.6,0.78 -0.78,1.26 -0.18,0.48 -0.28,1 -0.28,1.54 z"
   class="st11" />
			<linearGradient
   y2="420.66049"
   x2="423.1691"
   y1="390.8002"
   x1="421.24261"
   gradientUnits="userSpaceOnUse"
   id="SVGID_11_">
				<stop
   id="stop154"
   style="stop-color:#C9DCEE"
   offset="0" />
				<stop
   id="stop156"
   style="stop-color:#C0D3E9"
   offset="0.1112" />
				<stop
   id="stop158"
   style="stop-color:#A8BCD9"
   offset="0.2961" />
				<stop
   id="stop160"
   style="stop-color:#8599BF"
   offset="0.532" />
				<stop
   id="stop162"
   style="stop-color:#5470A0"
   offset="0.8067" />
				<stop
   id="stop164"
   style="stop-color:#0D578D"
   offset="0.9944" />
			</linearGradient>
			<path
   style="fill:url(#SVGID_11_)"
   id="path167"
   d="m 419.17,440.01 c 0,-0.14 0.04,-0.25 0.12,-0.33 0.08,-0.08 0.18,-0.12 0.32,-0.12 h 6.64 c 0.59,0 1.14,0.11 1.66,0.33 0.52,0.22 0.97,0.53 1.36,0.92 0.39,0.39 0.7,0.85 0.92,1.37 0.22,0.52 0.34,1.08 0.34,1.68 0,0.5 -0.08,0.96 -0.23,1.39 -0.16,0.43 -0.38,0.81 -0.66,1.15 0.48,0.44 0.86,0.96 1.14,1.57 0.28,0.61 0.42,1.25 0.42,1.93 0,0.61 -0.12,1.18 -0.35,1.72 -0.23,0.54 -0.55,1.02 -0.94,1.43 -0.4,0.41 -0.86,0.73 -1.39,0.97 -0.53,0.24 -1.09,0.36 -1.67,0.36 h -7.23 c -0.13,0 -0.24,-0.03 -0.32,-0.1 -0.08,-0.07 -0.12,-0.18 -0.12,-0.32 v -13.95 z m 7.53,3.93 c 0,-0.2 -0.04,-0.39 -0.11,-0.56 -0.07,-0.17 -0.18,-0.33 -0.31,-0.46 -0.13,-0.13 -0.29,-0.24 -0.48,-0.31 -0.19,-0.08 -0.39,-0.11 -0.61,-0.11 h -2.14 v 2.9 h 2.11 c 0.23,0 0.44,-0.03 0.63,-0.1 0.19,-0.07 0.35,-0.17 0.49,-0.3 0.13,-0.13 0.24,-0.28 0.32,-0.46 0.06,-0.19 0.1,-0.38 0.1,-0.6 z m 0.53,5.81 c 0,-0.2 -0.04,-0.4 -0.12,-0.6 -0.08,-0.2 -0.18,-0.38 -0.32,-0.53 -0.14,-0.16 -0.3,-0.28 -0.49,-0.38 -0.19,-0.1 -0.4,-0.15 -0.62,-0.15 h -2.64 v 3.34 h 2.64 c 0.22,0 0.42,-0.05 0.61,-0.14 0.19,-0.09 0.35,-0.22 0.49,-0.37 0.14,-0.16 0.25,-0.33 0.33,-0.53 0.08,-0.22 0.12,-0.43 0.12,-0.64 z"
   class="st12" />
			<linearGradient
   y2="419.76019"
   x2="437.12341"
   y1="389.8999"
   x1="435.1969"
   gradientUnits="userSpaceOnUse"
   id="SVGID_12_">
				<stop
   id="stop169"
   style="stop-color:#C9DCEE"
   offset="0" />
				<stop
   id="stop171"
   style="stop-color:#C0D3E9"
   offset="0.1112" />
				<stop
   id="stop173"
   style="stop-color:#A8BCD9"
   offset="0.2961" />
				<stop
   id="stop175"
   style="stop-color:#8599BF"
   offset="0.532" />
				<stop
   id="stop177"
   style="stop-color:#5470A0"
   offset="0.8067" />
				<stop
   id="stop179"
   style="stop-color:#0D578D"
   offset="0.9944" />
			</linearGradient>
			<path
   style="fill:url(#SVGID_12_)"
   id="path182"
   d="m 437.52,439.94 c 0.01,-0.04 0.03,-0.08 0.06,-0.13 0.04,-0.05 0.08,-0.09 0.13,-0.13 0.05,-0.04 0.11,-0.07 0.17,-0.09 0.06,-0.02 0.12,-0.03 0.17,-0.03 h 2.56 c 0.11,0 0.21,0.03 0.29,0.1 0.08,0.07 0.14,0.13 0.18,0.18 l 0.25,0.57 5.25,13.53 c 0.05,0.13 0.04,0.24 -0.03,0.32 -0.07,0.08 -0.2,0.12 -0.38,0.12 h -2.87 c -0.15,0 -0.27,-0.03 -0.35,-0.08 -0.08,-0.06 -0.15,-0.15 -0.2,-0.28 -0.13,-0.34 -0.26,-0.68 -0.39,-1.01 -0.13,-0.34 -0.25,-0.67 -0.38,-1.01 h -5.31 c -0.13,0.34 -0.25,0.68 -0.38,1.01 -0.13,0.34 -0.26,0.67 -0.38,1.01 -0.09,0.25 -0.26,0.37 -0.51,0.37 h -2.95 c -0.13,0 -0.23,-0.03 -0.32,-0.1 -0.08,-0.07 -0.1,-0.17 -0.04,-0.3 z m 1.82,4.27 c -0.13,0.34 -0.25,0.71 -0.38,1.1 -0.13,0.39 -0.26,0.79 -0.38,1.19 -0.13,0.4 -0.25,0.79 -0.38,1.18 -0.13,0.39 -0.26,0.75 -0.38,1.09 h 3.07 z m -0.82,-8.69 c 0.03,-0.15 0.1,-0.26 0.2,-0.32 0.1,-0.06 0.21,-0.1 0.32,-0.1 h 2.58 c 0.1,0 0.17,0.02 0.22,0.06 0.05,0.04 0.08,0.09 0.1,0.15 0.02,0.06 0.02,0.13 0,0.2 -0.01,0.08 -0.04,0.15 -0.07,0.22 l -0.98,2.15 c -0.08,0.15 -0.16,0.25 -0.24,0.32 -0.08,0.07 -0.18,0.1 -0.3,0.1 h -2.19 c -0.1,0 -0.17,-0.03 -0.2,-0.08 -0.04,-0.05 -0.05,-0.12 -0.05,-0.19 0,-0.07 0.01,-0.15 0.03,-0.24 0.02,-0.09 0.04,-0.16 0.05,-0.22 z"
   class="st13" />
			<linearGradient
   y2="418.8739"
   x2="450.86139"
   y1="389.01361"
   x1="448.93491"
   gradientUnits="userSpaceOnUse"
   id="SVGID_13_">
				<stop
   id="stop184"
   style="stop-color:#C9DCEE"
   offset="0" />
				<stop
   id="stop186"
   style="stop-color:#C0D3E9"
   offset="0.1112" />
				<stop
   id="stop188"
   style="stop-color:#A8BCD9"
   offset="0.2961" />
				<stop
   id="stop190"
   style="stop-color:#8599BF"
   offset="0.532" />
				<stop
   id="stop192"
   style="stop-color:#5470A0"
   offset="0.8067" />
				<stop
   id="stop194"
   style="stop-color:#0D578D"
   offset="0.9944" />
			</linearGradient>
			<path
   style="fill:url(#SVGID_13_)"
   id="path197"
   d="m 449.84,449.59 c 0.11,0.09 0.26,0.22 0.44,0.37 0.18,0.16 0.38,0.31 0.6,0.46 0.34,0.23 0.68,0.4 1.01,0.53 0.33,0.13 0.68,0.19 1.05,0.19 0.34,0 0.62,-0.04 0.85,-0.11 0.23,-0.08 0.41,-0.18 0.54,-0.3 0.13,-0.13 0.23,-0.27 0.28,-0.44 0.06,-0.17 0.08,-0.34 0.08,-0.53 0,-0.21 -0.08,-0.39 -0.24,-0.55 -0.16,-0.16 -0.35,-0.31 -0.57,-0.43 -0.22,-0.12 -0.46,-0.23 -0.71,-0.32 -0.25,-0.09 -0.46,-0.16 -0.64,-0.22 -0.8,-0.28 -1.5,-0.58 -2.1,-0.9 -0.6,-0.32 -1.1,-0.68 -1.5,-1.08 -0.4,-0.4 -0.7,-0.83 -0.9,-1.31 -0.2,-0.48 -0.3,-1.01 -0.3,-1.59 0,-0.62 0.12,-1.18 0.37,-1.69 0.25,-0.51 0.61,-0.94 1.07,-1.3 0.46,-0.36 1.02,-0.64 1.67,-0.83 0.65,-0.2 1.38,-0.29 2.19,-0.29 0.61,0 1.19,0.07 1.74,0.2 0.56,0.14 1.1,0.35 1.64,0.65 0.23,0.13 0.44,0.27 0.64,0.41 0.2,0.14 0.38,0.28 0.53,0.41 0.15,0.13 0.27,0.26 0.36,0.38 0.09,0.12 0.14,0.22 0.14,0.31 0,0.09 -0.02,0.17 -0.07,0.24 -0.04,0.07 -0.11,0.16 -0.19,0.25 l -1.53,1.63 c -0.11,0.11 -0.23,0.17 -0.34,0.17 -0.09,0 -0.18,-0.03 -0.25,-0.08 -0.08,-0.05 -0.16,-0.12 -0.25,-0.2 l -0.09,-0.08 c -0.13,-0.11 -0.28,-0.23 -0.44,-0.35 -0.16,-0.12 -0.34,-0.23 -0.52,-0.32 -0.19,-0.1 -0.38,-0.18 -0.59,-0.24 -0.21,-0.06 -0.42,-0.1 -0.63,-0.1 -0.22,0 -0.43,0.02 -0.62,0.05 -0.19,0.04 -0.36,0.1 -0.51,0.18 -0.15,0.08 -0.26,0.18 -0.35,0.31 -0.09,0.13 -0.13,0.29 -0.13,0.47 0,0.19 0.05,0.35 0.14,0.48 0.09,0.14 0.23,0.26 0.42,0.38 0.19,0.12 0.42,0.23 0.69,0.33 0.28,0.1 0.6,0.21 0.96,0.33 0.71,0.23 1.36,0.48 1.95,0.73 0.6,0.26 1.11,0.56 1.54,0.91 0.43,0.35 0.77,0.77 1.01,1.25 0.24,0.49 0.36,1.08 0.36,1.77 0,0.73 -0.15,1.4 -0.45,1.99 -0.3,0.6 -0.71,1.1 -1.23,1.52 -0.52,0.42 -1.14,0.74 -1.84,0.97 -0.71,0.23 -1.47,0.34 -2.28,0.34 -0.77,0 -1.52,-0.14 -2.26,-0.41 -0.74,-0.27 -1.43,-0.64 -2.07,-1.1 -0.27,-0.19 -0.49,-0.38 -0.67,-0.57 -0.18,-0.19 -0.33,-0.34 -0.43,-0.45 l -0.03,-0.03 c -0.01,-0.01 -0.01,-0.02 -0.02,-0.02 -0.01,0 -0.01,-0.01 -0.02,-0.02 -0.01,-0.01 -0.01,-0.02 -0.02,-0.02 -0.01,0 -0.01,-0.01 -0.02,-0.02 -0.15,-0.17 -0.23,-0.3 -0.23,-0.4 0,-0.11 0.08,-0.24 0.23,-0.38 l 1.73,-1.65 c 0.14,-0.1 0.25,-0.15 0.34,-0.15 0.06,0 0.12,0.02 0.19,0.06 0.11,0.07 0.19,0.13 0.28,0.21 z"
   class="st14" />
			<linearGradient
   y2="418.20679"
   x2="461.202"
   y1="388.3465"
   x1="459.27551"
   gradientUnits="userSpaceOnUse"
   id="SVGID_14_">
				<stop
   id="stop199"
   style="stop-color:#C9DCEE"
   offset="0" />
				<stop
   id="stop201"
   style="stop-color:#C0D3E9"
   offset="0.1112" />
				<stop
   id="stop203"
   style="stop-color:#A8BCD9"
   offset="0.2961" />
				<stop
   id="stop205"
   style="stop-color:#8599BF"
   offset="0.532" />
				<stop
   id="stop207"
   style="stop-color:#5470A0"
   offset="0.8067" />
				<stop
   id="stop209"
   style="stop-color:#0D578D"
   offset="0.9944" />
			</linearGradient>
			<path
   style="fill:url(#SVGID_14_)"
   id="path212"
   d="m 461.12,439.99 c 0,-0.12 0.04,-0.22 0.11,-0.31 0.07,-0.09 0.18,-0.13 0.33,-0.13 h 2.94 c 0.1,0 0.21,0.04 0.32,0.12 0.11,0.08 0.17,0.19 0.17,0.32 v 13.96 c 0,0.29 -0.16,0.44 -0.49,0.44 h -2.94 c -0.29,0 -0.44,-0.15 -0.44,-0.44 z"
   class="st15" />
			<linearGradient
   y2="417.5098"
   x2="472.00519"
   y1="387.64951"
   x1="470.0787"
   gradientUnits="userSpaceOnUse"
   id="SVGID_15_">
				<stop
   id="stop214"
   style="stop-color:#C9DCEE"
   offset="0" />
				<stop
   id="stop216"
   style="stop-color:#C0D3E9"
   offset="0.1112" />
				<stop
   id="stop218"
   style="stop-color:#A8BCD9"
   offset="0.2961" />
				<stop
   id="stop220"
   style="stop-color:#8599BF"
   offset="0.532" />
				<stop
   id="stop222"
   style="stop-color:#5470A0"
   offset="0.8067" />
				<stop
   id="stop224"
   style="stop-color:#0D578D"
   offset="0.9944" />
			</linearGradient>
			<path
   style="fill:url(#SVGID_15_)"
   id="path227"
   d="m 479.53,440.63 c 0.11,0.07 0.2,0.15 0.25,0.26 0.05,0.11 0.04,0.23 -0.03,0.38 l -1.69,2.4 c -0.07,0.11 -0.15,0.18 -0.24,0.19 -0.08,0.02 -0.19,-0.01 -0.3,-0.08 -0.33,-0.25 -0.69,-0.44 -1.08,-0.57 -0.39,-0.13 -0.81,-0.2 -1.25,-0.2 -0.55,0 -1.05,0.1 -1.51,0.31 -0.46,0.21 -0.86,0.49 -1.19,0.85 -0.33,0.36 -0.59,0.78 -0.78,1.26 -0.19,0.48 -0.28,0.99 -0.28,1.54 0,0.55 0.09,1.06 0.28,1.53 0.19,0.48 0.45,0.89 0.78,1.25 0.33,0.36 0.73,0.64 1.19,0.84 0.46,0.21 0.96,0.31 1.51,0.31 0.44,0 0.86,-0.07 1.26,-0.2 0.4,-0.14 0.76,-0.33 1.09,-0.57 0.12,-0.07 0.22,-0.1 0.3,-0.09 0.08,0.01 0.16,0.07 0.24,0.18 l 1.71,2.46 c 0.07,0.15 0.08,0.27 0.03,0.37 -0.05,0.1 -0.14,0.18 -0.25,0.25 -0.63,0.42 -1.3,0.74 -2.02,0.97 -0.72,0.23 -1.48,0.34 -2.28,0.34 -0.71,0 -1.38,-0.09 -2.03,-0.27 -0.65,-0.18 -1.26,-0.44 -1.82,-0.77 -0.57,-0.33 -1.08,-0.73 -1.54,-1.19 -0.46,-0.46 -0.86,-0.98 -1.19,-1.54 -0.33,-0.56 -0.59,-1.17 -0.77,-1.82 -0.18,-0.65 -0.27,-1.33 -0.27,-2.03 0,-0.71 0.09,-1.38 0.27,-2.03 0.18,-0.65 0.44,-1.26 0.77,-1.83 0.33,-0.57 0.73,-1.09 1.19,-1.55 0.46,-0.47 0.98,-0.86 1.54,-1.19 0.57,-0.33 1.17,-0.59 1.82,-0.77 0.65,-0.18 1.33,-0.27 2.03,-0.27 0.8,0 1.55,0.11 2.26,0.33 0.71,0.21 1.38,0.53 2,0.95 z"
   class="st16" />
			<linearGradient
   y2="416.61081"
   x2="485.9389"
   y1="386.75049"
   x1="484.01239"
   gradientUnits="userSpaceOnUse"
   id="SVGID_16_">
				<stop
   id="stop229"
   style="stop-color:#C9DCEE"
   offset="0" />
				<stop
   id="stop231"
   style="stop-color:#C0D3E9"
   offset="0.1112" />
				<stop
   id="stop233"
   style="stop-color:#A8BCD9"
   offset="0.2961" />
				<stop
   id="stop235"
   style="stop-color:#8599BF"
   offset="0.532" />
				<stop
   id="stop237"
   style="stop-color:#5470A0"
   offset="0.8067" />
				<stop
   id="stop239"
   style="stop-color:#0D578D"
   offset="0.9944" />
			</linearGradient>
			<path
   style="fill:url(#SVGID_16_)"
   id="path242"
   d="m 486.54,439.94 c 0.01,-0.04 0.03,-0.08 0.06,-0.13 0.04,-0.05 0.08,-0.09 0.14,-0.13 0.05,-0.04 0.11,-0.07 0.17,-0.09 0.06,-0.02 0.12,-0.03 0.17,-0.03 h 2.56 c 0.11,0 0.21,0.03 0.29,0.1 0.08,0.07 0.14,0.13 0.18,0.18 l 0.25,0.57 5.25,13.53 c 0.05,0.13 0.04,0.24 -0.03,0.32 -0.07,0.08 -0.2,0.12 -0.38,0.12 h -2.87 c -0.15,0 -0.27,-0.03 -0.35,-0.08 -0.08,-0.06 -0.15,-0.15 -0.2,-0.28 -0.13,-0.34 -0.26,-0.68 -0.39,-1.01 -0.13,-0.34 -0.25,-0.67 -0.38,-1.01 h -5.31 c -0.13,0.34 -0.25,0.68 -0.38,1.01 -0.13,0.34 -0.26,0.67 -0.38,1.01 -0.09,0.25 -0.26,0.37 -0.51,0.37 h -2.95 c -0.13,0 -0.23,-0.03 -0.32,-0.1 -0.08,-0.07 -0.1,-0.17 -0.04,-0.3 z m 1.82,4.27 c -0.13,0.34 -0.25,0.71 -0.38,1.1 -0.13,0.39 -0.26,0.79 -0.38,1.19 -0.13,0.4 -0.25,0.79 -0.38,1.18 -0.13,0.39 -0.26,0.75 -0.38,1.09 h 3.07 z"
   class="st17" />
			<linearGradient
   y2="434.80679"
   x2="203.9014"
   y1="404.9465"
   x1="201.9749"
   gradientUnits="userSpaceOnUse"
   id="SVGID_17_">
				<stop
   id="stop244"
   style="stop-color:#C9DCEE"
   offset="0" />
				<stop
   id="stop246"
   style="stop-color:#C0D3E9"
   offset="0.1112" />
				<stop
   id="stop248"
   style="stop-color:#A8BCD9"
   offset="0.2961" />
				<stop
   id="stop250"
   style="stop-color:#8599BF"
   offset="0.532" />
				<stop
   id="stop252"
   style="stop-color:#5470A0"
   offset="0.8067" />
				<stop
   id="stop254"
   style="stop-color:#0D578D"
   offset="0.9944" />
			</linearGradient>
			<path
   style="fill:url(#SVGID_17_)"
   id="path257"
   d="m 200.83,463.99 c 0,-0.14 0.04,-0.25 0.11,-0.33 0.08,-0.08 0.18,-0.12 0.32,-0.12 h 9.91 c 0.15,0 0.26,0.04 0.34,0.13 0.08,0.09 0.12,0.2 0.12,0.35 v 2.47 c 0,0.11 -0.04,0.22 -0.12,0.32 -0.08,0.1 -0.2,0.15 -0.35,0.15 h -6.48 v 2.48 h 5 c 0.13,0 0.23,0.03 0.31,0.09 0.08,0.06 0.12,0.16 0.12,0.3 v 2.16 c 0,0.09 -0.04,0.18 -0.11,0.27 -0.07,0.09 -0.18,0.13 -0.32,0.13 h -5.01 v 2.56 h 6.72 c 0.3,0 0.45,0.15 0.45,0.46 v 2.51 c 0,0.07 -0.03,0.13 -0.08,0.18 -0.03,0.19 -0.16,0.28 -0.41,0.28 h -10.1 c -0.13,0 -0.24,-0.03 -0.32,-0.1 -0.08,-0.07 -0.12,-0.18 -0.12,-0.32 v -13.97 z"
   class="st18" />
			<linearGradient
   y2="433.80389"
   x2="219.44679"
   y1="403.9436"
   x1="217.52029"
   gradientUnits="userSpaceOnUse"
   id="SVGID_18_">
				<stop
   id="stop259"
   style="stop-color:#C9DCEE"
   offset="0" />
				<stop
   id="stop261"
   style="stop-color:#C0D3E9"
   offset="0.1112" />
				<stop
   id="stop263"
   style="stop-color:#A8BCD9"
   offset="0.2961" />
				<stop
   id="stop265"
   style="stop-color:#8599BF"
   offset="0.532" />
				<stop
   id="stop267"
   style="stop-color:#5470A0"
   offset="0.8067" />
				<stop
   id="stop269"
   style="stop-color:#0D578D"
   offset="0.9944" />
			</linearGradient>
			<path
   style="fill:url(#SVGID_18_)"
   id="path272"
   d="m 215.15,463.97 c 0.01,-0.12 0.06,-0.22 0.14,-0.31 0.08,-0.09 0.19,-0.13 0.34,-0.13 h 3.46 c 0.25,0 0.41,0.13 0.48,0.38 l 2.72,9.07 2.74,-9.07 c 0.09,-0.25 0.26,-0.38 0.51,-0.38 h 3.42 c 0.12,0 0.23,0.04 0.32,0.12 0.1,0.08 0.15,0.19 0.16,0.31 0.23,2.35 0.47,4.67 0.71,6.98 0.24,2.31 0.48,4.64 0.71,6.98 v 0.05 c 0,0.26 -0.15,0.39 -0.44,0.39 h -2.83 c -0.31,0 -0.47,-0.15 -0.48,-0.44 l -0.87,-7.73 -2.25,7.78 c -0.01,0.07 -0.06,0.15 -0.14,0.24 -0.08,0.09 -0.16,0.14 -0.24,0.14 h -2.63 c -0.08,0 -0.16,-0.04 -0.25,-0.13 -0.09,-0.09 -0.14,-0.17 -0.14,-0.24 l -2.25,-7.76 -0.87,7.71 c -0.01,0.29 -0.18,0.44 -0.49,0.44 h -2.83 c -0.29,0 -0.43,-0.15 -0.43,-0.44 z"
   class="st19" />
			<linearGradient
   y2="432.16779"
   x2="244.80521"
   y1="402.30759"
   x1="242.87869"
   gradientUnits="userSpaceOnUse"
   id="SVGID_19_">
				<stop
   id="stop274"
   style="stop-color:#C9DCEE"
   offset="0" />
				<stop
   id="stop276"
   style="stop-color:#C0D3E9"
   offset="0.1112" />
				<stop
   id="stop278"
   style="stop-color:#A8BCD9"
   offset="0.2961" />
				<stop
   id="stop280"
   style="stop-color:#8599BF"
   offset="0.532" />
				<stop
   id="stop282"
   style="stop-color:#5470A0"
   offset="0.8067" />
				<stop
   id="stop284"
   style="stop-color:#0D578D"
   offset="0.9944" />
			</linearGradient>
			<path
   style="fill:url(#SVGID_19_)"
   id="path287"
   d="m 240.61,463.97 c 0.01,-0.12 0.06,-0.22 0.14,-0.31 0.08,-0.09 0.19,-0.13 0.34,-0.13 h 3.46 c 0.25,0 0.41,0.13 0.48,0.38 l 2.72,9.07 2.74,-9.07 c 0.09,-0.25 0.26,-0.38 0.51,-0.38 h 3.42 c 0.12,0 0.23,0.04 0.32,0.12 0.1,0.08 0.15,0.19 0.16,0.31 0.23,2.35 0.47,4.67 0.71,6.98 0.24,2.31 0.48,4.64 0.71,6.98 v 0.05 c 0,0.26 -0.15,0.39 -0.44,0.39 h -2.83 c -0.31,0 -0.47,-0.15 -0.48,-0.44 l -0.87,-7.73 -2.25,7.78 c -0.01,0.07 -0.06,0.15 -0.14,0.24 -0.08,0.09 -0.16,0.14 -0.24,0.14 h -2.63 c -0.08,0 -0.16,-0.04 -0.25,-0.13 -0.09,-0.09 -0.14,-0.17 -0.14,-0.24 l -2.25,-7.76 -0.87,7.71 c -0.01,0.29 -0.18,0.44 -0.49,0.44 h -2.83 c -0.29,0 -0.43,-0.15 -0.43,-0.44 z"
   class="st20" />
			<linearGradient
   y2="431.05759"
   x2="262.01431"
   y1="401.1973"
   x1="260.08789"
   gradientUnits="userSpaceOnUse"
   id="SVGID_20_">
				<stop
   id="stop289"
   style="stop-color:#C9DCEE"
   offset="0" />
				<stop
   id="stop291"
   style="stop-color:#C0D3E9"
   offset="0.1112" />
				<stop
   id="stop293"
   style="stop-color:#A8BCD9"
   offset="0.2961" />
				<stop
   id="stop295"
   style="stop-color:#8599BF"
   offset="0.532" />
				<stop
   id="stop297"
   style="stop-color:#5470A0"
   offset="0.8067" />
				<stop
   id="stop299"
   style="stop-color:#0D578D"
   offset="0.9944" />
			</linearGradient>
			<path
   style="fill:url(#SVGID_20_)"
   id="path302"
   d="m 263.23,463.92 c 0.01,-0.04 0.03,-0.08 0.07,-0.13 0.04,-0.05 0.08,-0.09 0.13,-0.13 0.05,-0.04 0.11,-0.07 0.17,-0.09 0.06,-0.02 0.12,-0.03 0.17,-0.03 h 2.56 c 0.11,0 0.21,0.03 0.29,0.1 0.08,0.07 0.14,0.13 0.18,0.18 l 0.25,0.57 5.25,13.53 c 0.05,0.13 0.04,0.24 -0.03,0.32 -0.07,0.08 -0.2,0.12 -0.38,0.12 h -2.87 c -0.15,0 -0.27,-0.03 -0.35,-0.08 -0.08,-0.06 -0.15,-0.15 -0.19,-0.28 -0.13,-0.34 -0.26,-0.68 -0.39,-1.01 -0.13,-0.34 -0.25,-0.67 -0.38,-1.01 h -5.31 c -0.13,0.34 -0.25,0.68 -0.38,1.01 -0.13,0.34 -0.26,0.67 -0.38,1.01 -0.09,0.25 -0.26,0.37 -0.51,0.37 h -2.95 c -0.13,0 -0.23,-0.03 -0.31,-0.1 -0.08,-0.07 -0.1,-0.17 -0.04,-0.3 z m 1.82,4.28 c -0.13,0.34 -0.25,0.71 -0.38,1.1 -0.13,0.39 -0.26,0.79 -0.38,1.19 -0.13,0.4 -0.25,0.79 -0.38,1.18 -0.13,0.39 -0.26,0.75 -0.38,1.09 h 3.07 z"
   class="st21" />
			<linearGradient
   y2="430.24759"
   x2="274.56851"
   y1="400.3873"
   x1="272.642"
   gradientUnits="userSpaceOnUse"
   id="SVGID_21_">
				<stop
   id="stop304"
   style="stop-color:#C9DCEE"
   offset="0" />
				<stop
   id="stop306"
   style="stop-color:#C0D3E9"
   offset="0.1112" />
				<stop
   id="stop308"
   style="stop-color:#A8BCD9"
   offset="0.2961" />
				<stop
   id="stop310"
   style="stop-color:#8599BF"
   offset="0.532" />
				<stop
   id="stop312"
   style="stop-color:#5470A0"
   offset="0.8067" />
				<stop
   id="stop314"
   style="stop-color:#0D578D"
   offset="0.9944" />
			</linearGradient>
			<path
   style="fill:url(#SVGID_21_)"
   id="path317"
   d="m 270.97,463.97 c 0,-0.13 0.04,-0.24 0.14,-0.32 0.09,-0.08 0.2,-0.12 0.33,-0.12 h 10.75 c 0.12,0 0.23,0.04 0.32,0.11 0.09,0.07 0.15,0.18 0.16,0.33 v 2.48 c 0,0.12 -0.04,0.23 -0.12,0.34 -0.08,0.11 -0.2,0.16 -0.35,0.16 h -3.45 v 10.94 c 0,0.12 -0.04,0.23 -0.13,0.32 -0.09,0.1 -0.2,0.15 -0.34,0.15 h -2.93 c -0.11,0 -0.22,-0.05 -0.32,-0.14 -0.1,-0.09 -0.15,-0.2 -0.15,-0.34 v -10.94 h -3.44 c -0.13,0 -0.24,-0.04 -0.33,-0.13 -0.09,-0.09 -0.14,-0.21 -0.14,-0.38 z"
   class="st22" />
			<linearGradient
   y2="429.35999"
   x2="288.32681"
   y1="399.49969"
   x1="286.4003"
   gradientUnits="userSpaceOnUse"
   id="SVGID_22_">
				<stop
   id="stop319"
   style="stop-color:#C9DCEE"
   offset="0" />
				<stop
   id="stop321"
   style="stop-color:#C0D3E9"
   offset="0.1112" />
				<stop
   id="stop323"
   style="stop-color:#A8BCD9"
   offset="0.2961" />
				<stop
   id="stop325"
   style="stop-color:#8599BF"
   offset="0.532" />
				<stop
   id="stop327"
   style="stop-color:#5470A0"
   offset="0.8067" />
				<stop
   id="stop329"
   style="stop-color:#0D578D"
   offset="0.9944" />
			</linearGradient>
			<path
   style="fill:url(#SVGID_22_)"
   id="path332"
   d="m 283.37,470.97 c 0,-0.71 0.09,-1.38 0.27,-2.03 0.18,-0.65 0.44,-1.26 0.77,-1.83 0.33,-0.57 0.73,-1.09 1.19,-1.55 0.46,-0.47 0.98,-0.86 1.55,-1.19 0.57,-0.33 1.18,-0.59 1.83,-0.77 0.65,-0.18 1.33,-0.27 2.04,-0.27 0.7,0 1.38,0.09 2.03,0.27 0.65,0.18 1.26,0.44 1.83,0.77 0.57,0.33 1.08,0.73 1.55,1.19 0.47,0.47 0.86,0.98 1.19,1.55 0.33,0.57 0.59,1.18 0.77,1.83 0.18,0.65 0.28,1.33 0.28,2.03 0,0.71 -0.09,1.38 -0.28,2.03 -0.18,0.65 -0.44,1.26 -0.77,1.82 -0.33,0.56 -0.73,1.08 -1.19,1.54 -0.47,0.46 -0.98,0.86 -1.55,1.19 -0.57,0.33 -1.18,0.59 -1.83,0.77 -0.65,0.18 -1.33,0.27 -2.03,0.27 -0.71,0 -1.39,-0.09 -2.04,-0.27 -0.65,-0.18 -1.26,-0.44 -1.83,-0.77 -0.57,-0.33 -1.08,-0.73 -1.55,-1.19 -0.46,-0.46 -0.86,-0.98 -1.19,-1.54 -0.33,-0.56 -0.59,-1.17 -0.77,-1.82 -0.18,-0.65 -0.27,-1.33 -0.27,-2.03 z m 3.86,-0.01 c 0,0.55 0.09,1.07 0.28,1.55 0.19,0.48 0.45,0.9 0.78,1.25 0.34,0.36 0.73,0.64 1.19,0.84 0.46,0.2 0.96,0.3 1.52,0.3 0.55,0 1.06,-0.1 1.52,-0.3 0.46,-0.2 0.86,-0.48 1.2,-0.84 0.34,-0.36 0.6,-0.77 0.78,-1.25 0.19,-0.48 0.28,-1 0.28,-1.55 0,-0.55 -0.09,-1.06 -0.28,-1.54 -0.19,-0.48 -0.45,-0.9 -0.78,-1.26 -0.34,-0.36 -0.74,-0.64 -1.2,-0.85 -0.46,-0.21 -0.97,-0.31 -1.52,-0.31 -0.55,0 -1.06,0.1 -1.52,0.31 -0.46,0.21 -0.86,0.49 -1.19,0.85 -0.34,0.36 -0.6,0.78 -0.78,1.26 -0.18,0.48 -0.28,0.99 -0.28,1.54 z"
   class="st23" />
			<linearGradient
   y2="427.93979"
   x2="310.33871"
   y1="398.07959"
   x1="308.4122"
   gradientUnits="userSpaceOnUse"
   id="SVGID_23_">
				<stop
   id="stop334"
   style="stop-color:#C9DCEE"
   offset="0" />
				<stop
   id="stop336"
   style="stop-color:#C0D3E9"
   offset="0.1112" />
				<stop
   id="stop338"
   style="stop-color:#A8BCD9"
   offset="0.2961" />
				<stop
   id="stop340"
   style="stop-color:#8599BF"
   offset="0.532" />
				<stop
   id="stop342"
   style="stop-color:#5470A0"
   offset="0.8067" />
				<stop
   id="stop344"
   style="stop-color:#0D578D"
   offset="0.9944" />
			</linearGradient>
			<path
   style="fill:url(#SVGID_23_)"
   id="path347"
   d="m 316.73,467.72 c -0.34,-0.24 -0.7,-0.43 -1.09,-0.56 -0.39,-0.13 -0.8,-0.2 -1.24,-0.2 -0.55,0 -1.06,0.1 -1.52,0.31 -0.46,0.21 -0.85,0.49 -1.18,0.85 -0.33,0.36 -0.59,0.78 -0.77,1.26 -0.19,0.48 -0.28,1 -0.28,1.54 0,0.55 0.09,1.06 0.28,1.54 0.19,0.48 0.44,0.9 0.77,1.25 0.33,0.36 0.72,0.64 1.18,0.84 0.46,0.21 0.97,0.31 1.52,0.31 0.23,0 0.46,-0.02 0.69,-0.05 0.23,-0.03 0.47,-0.08 0.73,-0.13 v -2.62 c 0,-0.13 0.04,-0.23 0.11,-0.31 0.07,-0.08 0.18,-0.13 0.33,-0.13 h 2.72 c 0.1,0 0.21,0.04 0.32,0.12 0.11,0.08 0.17,0.19 0.17,0.32 v 4.84 c 0,0.18 -0.1,0.33 -0.29,0.44 -0.31,0.21 -0.66,0.4 -1.04,0.55 -0.38,0.15 -0.78,0.28 -1.19,0.38 -0.41,0.1 -0.83,0.17 -1.25,0.22 -0.42,0.05 -0.83,0.08 -1.23,0.08 -0.71,0 -1.38,-0.09 -2.03,-0.27 -0.65,-0.18 -1.26,-0.44 -1.82,-0.77 -0.57,-0.33 -1.08,-0.73 -1.54,-1.19 -0.46,-0.46 -0.86,-0.98 -1.19,-1.54 -0.33,-0.56 -0.59,-1.17 -0.77,-1.82 -0.18,-0.65 -0.27,-1.33 -0.27,-2.03 0,-0.71 0.09,-1.38 0.27,-2.03 0.18,-0.65 0.44,-1.26 0.77,-1.83 0.33,-0.57 0.73,-1.09 1.19,-1.55 0.46,-0.47 0.98,-0.86 1.54,-1.19 0.57,-0.33 1.17,-0.59 1.82,-0.77 0.65,-0.18 1.33,-0.27 2.03,-0.27 0.8,0 1.55,0.11 2.26,0.33 0.71,0.22 1.38,0.54 2,0.96 0.11,0.07 0.2,0.15 0.26,0.26 0.06,0.11 0.05,0.24 -0.04,0.37 l -1.62,2.34 c -0.09,0.11 -0.17,0.18 -0.26,0.22 -0.08,0.05 -0.2,0.02 -0.34,-0.07 z"
   class="st24" />
			<linearGradient
   y2="426.9725"
   x2="325.33231"
   y1="397.11221"
   x1="323.40579"
   gradientUnits="userSpaceOnUse"
   id="SVGID_24_">
				<stop
   id="stop349"
   style="stop-color:#C9DCEE"
   offset="0" />
				<stop
   id="stop351"
   style="stop-color:#C0D3E9"
   offset="0.1112" />
				<stop
   id="stop353"
   style="stop-color:#A8BCD9"
   offset="0.2961" />
				<stop
   id="stop355"
   style="stop-color:#8599BF"
   offset="0.532" />
				<stop
   id="stop357"
   style="stop-color:#5470A0"
   offset="0.8067" />
				<stop
   id="stop359"
   style="stop-color:#0D578D"
   offset="0.9944" />
			</linearGradient>
			<path
   style="fill:url(#SVGID_24_)"
   id="path362"
   d="m 322.39,463.99 c 0,-0.14 0.04,-0.25 0.11,-0.33 0.07,-0.08 0.18,-0.12 0.33,-0.12 h 6.46 c 0.69,0 1.33,0.13 1.93,0.38 0.6,0.26 1.12,0.6 1.57,1.04 0.45,0.44 0.8,0.95 1.05,1.54 0.26,0.59 0.38,1.22 0.38,1.88 0,0.45 -0.06,0.88 -0.19,1.29 -0.12,0.41 -0.29,0.79 -0.51,1.15 -0.22,0.36 -0.48,0.68 -0.78,0.97 -0.3,0.29 -0.63,0.54 -0.99,0.74 l 2.57,4.84 c 0.05,0.09 0.11,0.2 0.18,0.33 0.07,0.13 0.11,0.24 0.11,0.33 0,0.11 -0.03,0.19 -0.1,0.24 -0.07,0.06 -0.17,0.08 -0.29,0.08 h -3.43 c -0.11,0 -0.22,-0.03 -0.3,-0.1 -0.09,-0.07 -0.15,-0.16 -0.17,-0.27 l -2.43,-4.57 h -1.62 v 4.51 c 0,0.29 -0.15,0.43 -0.46,0.43 h -2.97 c -0.13,0 -0.24,-0.03 -0.32,-0.1 -0.08,-0.07 -0.12,-0.18 -0.12,-0.32 v -13.94 z m 7.83,4.44 c 0,-0.2 -0.04,-0.4 -0.11,-0.6 -0.07,-0.2 -0.18,-0.38 -0.31,-0.55 -0.13,-0.17 -0.29,-0.31 -0.48,-0.42 -0.19,-0.11 -0.39,-0.19 -0.62,-0.22 -0.19,-0.01 -0.36,-0.03 -0.52,-0.03 -0.16,-0.01 -0.34,-0.02 -0.53,-0.02 h -1.38 v 3.67 h 1.84 c 0.12,0 0.23,0 0.32,-0.01 0.09,-0.01 0.2,-0.02 0.31,-0.03 0.23,-0.03 0.44,-0.09 0.63,-0.2 0.19,-0.11 0.34,-0.25 0.47,-0.41 0.13,-0.16 0.22,-0.35 0.29,-0.55 0.05,-0.21 0.09,-0.42 0.09,-0.63 z"
   class="st25" />
			<linearGradient
   y2="425.99481"
   x2="340.48679"
   y1="396.13461"
   x1="338.5603"
   gradientUnits="userSpaceOnUse"
   id="SVGID_25_">
				<stop
   id="stop364"
   style="stop-color:#C9DCEE"
   offset="0" />
				<stop
   id="stop366"
   style="stop-color:#C0D3E9"
   offset="0.1112" />
				<stop
   id="stop368"
   style="stop-color:#A8BCD9"
   offset="0.2961" />
				<stop
   id="stop370"
   style="stop-color:#8599BF"
   offset="0.532" />
				<stop
   id="stop372"
   style="stop-color:#5470A0"
   offset="0.8067" />
				<stop
   id="stop374"
   style="stop-color:#0D578D"
   offset="0.9944" />
			</linearGradient>
			<path
   style="fill:url(#SVGID_25_)"
   id="path377"
   d="m 335.74,470.97 c 0,-0.71 0.09,-1.38 0.27,-2.03 0.18,-0.65 0.44,-1.26 0.77,-1.83 0.33,-0.57 0.73,-1.09 1.2,-1.55 0.46,-0.47 0.98,-0.86 1.54,-1.19 0.57,-0.33 1.18,-0.59 1.83,-0.77 0.65,-0.18 1.33,-0.27 2.03,-0.27 0.7,0 1.38,0.09 2.03,0.27 0.65,0.18 1.26,0.44 1.83,0.77 0.57,0.33 1.08,0.73 1.55,1.19 0.47,0.47 0.86,0.98 1.2,1.55 0.33,0.57 0.59,1.18 0.77,1.83 0.18,0.65 0.27,1.33 0.27,2.03 0,0.71 -0.09,1.38 -0.27,2.03 -0.18,0.65 -0.44,1.26 -0.77,1.82 -0.33,0.56 -0.73,1.08 -1.2,1.54 -0.47,0.46 -0.98,0.86 -1.55,1.19 -0.57,0.33 -1.18,0.59 -1.83,0.77 -0.65,0.18 -1.33,0.27 -2.03,0.27 -0.71,0 -1.39,-0.09 -2.03,-0.27 -0.65,-0.18 -1.26,-0.44 -1.83,-0.77 -0.57,-0.33 -1.08,-0.73 -1.54,-1.19 -0.46,-0.46 -0.86,-0.98 -1.2,-1.54 -0.33,-0.56 -0.59,-1.17 -0.77,-1.82 -0.18,-0.65 -0.27,-1.33 -0.27,-2.03 z m 3.87,-0.01 c 0,0.55 0.09,1.07 0.28,1.55 0.19,0.48 0.45,0.9 0.78,1.25 0.34,0.36 0.73,0.64 1.19,0.84 0.46,0.2 0.96,0.3 1.52,0.3 0.56,0 1.06,-0.1 1.52,-0.3 0.46,-0.2 0.86,-0.48 1.2,-0.84 0.34,-0.36 0.6,-0.77 0.78,-1.25 0.19,-0.48 0.28,-1 0.28,-1.55 0,-0.55 -0.09,-1.06 -0.28,-1.54 -0.19,-0.48 -0.45,-0.9 -0.78,-1.26 -0.34,-0.36 -0.74,-0.64 -1.2,-0.85 -0.46,-0.21 -0.97,-0.31 -1.52,-0.31 -0.55,0 -1.06,0.1 -1.52,0.31 -0.46,0.21 -0.86,0.49 -1.19,0.85 -0.34,0.36 -0.6,0.78 -0.78,1.26 -0.19,0.48 -0.28,0.99 -0.28,1.54 z"
   class="st26" />
			<linearGradient
   y2="425.08469"
   x2="354.59451"
   y1="395.2244"
   x1="352.66809"
   gradientUnits="userSpaceOnUse"
   id="SVGID_26_">
				<stop
   id="stop379"
   style="stop-color:#C9DCEE"
   offset="0" />
				<stop
   id="stop381"
   style="stop-color:#C0D3E9"
   offset="0.1112" />
				<stop
   id="stop383"
   style="stop-color:#A8BCD9"
   offset="0.2961" />
				<stop
   id="stop385"
   style="stop-color:#8599BF"
   offset="0.532" />
				<stop
   id="stop387"
   style="stop-color:#5470A0"
   offset="0.8067" />
				<stop
   id="stop389"
   style="stop-color:#0D578D"
   offset="0.9944" />
			</linearGradient>
			<path
   style="fill:url(#SVGID_26_)"
   id="path392"
   d="m 354.72,473.58 c 0.11,0.09 0.26,0.22 0.44,0.37 0.18,0.16 0.38,0.31 0.6,0.46 0.34,0.23 0.68,0.4 1.01,0.53 0.33,0.13 0.68,0.19 1.05,0.19 0.34,0 0.62,-0.04 0.85,-0.11 0.23,-0.08 0.41,-0.18 0.54,-0.3 0.13,-0.13 0.23,-0.27 0.28,-0.44 0.06,-0.17 0.08,-0.34 0.08,-0.53 0,-0.21 -0.08,-0.39 -0.24,-0.55 -0.16,-0.16 -0.35,-0.31 -0.57,-0.43 -0.22,-0.12 -0.46,-0.23 -0.71,-0.32 -0.25,-0.09 -0.46,-0.16 -0.64,-0.22 -0.8,-0.28 -1.5,-0.58 -2.1,-0.9 -0.6,-0.32 -1.1,-0.68 -1.5,-1.08 -0.4,-0.4 -0.7,-0.83 -0.9,-1.31 -0.2,-0.48 -0.3,-1.01 -0.3,-1.59 0,-0.62 0.12,-1.18 0.37,-1.69 0.25,-0.51 0.61,-0.94 1.07,-1.3 0.46,-0.36 1.02,-0.64 1.67,-0.83 0.65,-0.2 1.38,-0.29 2.19,-0.29 0.61,0 1.19,0.07 1.74,0.2 0.56,0.14 1.1,0.35 1.64,0.65 0.23,0.13 0.44,0.27 0.64,0.41 0.2,0.14 0.38,0.28 0.53,0.41 0.15,0.13 0.27,0.26 0.36,0.38 0.09,0.12 0.14,0.22 0.14,0.31 0,0.09 -0.02,0.17 -0.07,0.24 -0.04,0.07 -0.11,0.16 -0.19,0.25 l -1.53,1.63 c -0.11,0.11 -0.23,0.17 -0.34,0.17 -0.09,0 -0.18,-0.03 -0.25,-0.08 -0.08,-0.05 -0.16,-0.12 -0.25,-0.2 l -0.09,-0.08 c -0.13,-0.11 -0.28,-0.23 -0.44,-0.35 -0.16,-0.12 -0.34,-0.23 -0.52,-0.32 -0.19,-0.1 -0.38,-0.18 -0.59,-0.24 -0.21,-0.06 -0.42,-0.1 -0.63,-0.1 -0.22,0 -0.43,0.02 -0.62,0.05 -0.19,0.04 -0.36,0.1 -0.51,0.18 -0.15,0.08 -0.26,0.18 -0.35,0.31 -0.09,0.13 -0.13,0.29 -0.13,0.47 0,0.19 0.05,0.35 0.14,0.48 0.09,0.14 0.23,0.26 0.42,0.38 0.19,0.12 0.42,0.23 0.69,0.33 0.27,0.1 0.6,0.21 0.96,0.33 0.71,0.23 1.36,0.48 1.95,0.73 0.6,0.26 1.11,0.56 1.54,0.91 0.43,0.35 0.77,0.77 1.01,1.25 0.24,0.49 0.36,1.08 0.36,1.77 0,0.73 -0.15,1.4 -0.45,1.99 -0.3,0.6 -0.71,1.1 -1.23,1.52 -0.52,0.42 -1.14,0.74 -1.84,0.97 -0.71,0.23 -1.47,0.34 -2.28,0.34 -0.77,0 -1.52,-0.14 -2.26,-0.41 -0.74,-0.27 -1.43,-0.64 -2.07,-1.1 -0.27,-0.19 -0.49,-0.38 -0.67,-0.57 -0.18,-0.19 -0.33,-0.34 -0.43,-0.45 h 0.01 c -0.01,-0.01 -0.01,-0.02 -0.02,-0.02 -0.01,0 -0.01,-0.01 -0.02,-0.02 -0.01,-0.01 -0.01,-0.02 -0.02,-0.02 -0.01,0 -0.01,-0.01 -0.02,-0.02 -0.15,-0.17 -0.23,-0.3 -0.23,-0.4 0,-0.11 0.08,-0.24 0.23,-0.38 l 1.73,-1.65 c 0.14,-0.1 0.25,-0.15 0.34,-0.15 0.06,0 0.12,0.02 0.19,0.06 0.07,0.04 0.15,0.1 0.24,0.18 z"
   class="st27" />
			<linearGradient
   y2="424.24231"
   x2="367.6514"
   y1="394.38199"
   x1="365.72491"
   gradientUnits="userSpaceOnUse"
   id="SVGID_27_">
				<stop
   id="stop394"
   style="stop-color:#C9DCEE"
   offset="0" />
				<stop
   id="stop396"
   style="stop-color:#C0D3E9"
   offset="0.1112" />
				<stop
   id="stop398"
   style="stop-color:#A8BCD9"
   offset="0.2961" />
				<stop
   id="stop400"
   style="stop-color:#8599BF"
   offset="0.532" />
				<stop
   id="stop402"
   style="stop-color:#5470A0"
   offset="0.8067" />
				<stop
   id="stop404"
   style="stop-color:#0D578D"
   offset="0.9944" />
			</linearGradient>
			<path
   style="fill:url(#SVGID_27_)"
   id="path407"
   d="m 367.83,473.58 c 0.11,0.09 0.26,0.22 0.44,0.37 0.18,0.16 0.38,0.31 0.6,0.46 0.34,0.23 0.68,0.4 1.01,0.53 0.33,0.13 0.68,0.19 1.05,0.19 0.34,0 0.62,-0.04 0.85,-0.11 0.23,-0.08 0.41,-0.18 0.54,-0.3 0.13,-0.13 0.23,-0.27 0.28,-0.44 0.06,-0.17 0.08,-0.34 0.08,-0.53 0,-0.21 -0.08,-0.39 -0.24,-0.55 -0.16,-0.16 -0.35,-0.31 -0.57,-0.43 -0.23,-0.13 -0.46,-0.23 -0.71,-0.32 -0.25,-0.09 -0.46,-0.16 -0.64,-0.22 -0.8,-0.28 -1.5,-0.58 -2.1,-0.9 -0.6,-0.32 -1.1,-0.68 -1.5,-1.08 -0.4,-0.4 -0.7,-0.83 -0.9,-1.31 -0.2,-0.48 -0.3,-1.01 -0.3,-1.59 0,-0.62 0.12,-1.18 0.37,-1.69 0.25,-0.51 0.61,-0.94 1.07,-1.3 0.46,-0.36 1.02,-0.64 1.67,-0.83 0.65,-0.2 1.38,-0.29 2.19,-0.29 0.61,0 1.19,0.07 1.74,0.2 0.56,0.14 1.1,0.35 1.64,0.65 0.23,0.13 0.44,0.27 0.64,0.41 0.2,0.14 0.38,0.28 0.53,0.41 0.15,0.13 0.27,0.26 0.36,0.38 0.09,0.12 0.14,0.22 0.14,0.31 0,0.09 -0.02,0.17 -0.07,0.24 -0.04,0.07 -0.11,0.16 -0.19,0.25 l -1.53,1.63 c -0.11,0.11 -0.23,0.17 -0.34,0.17 -0.09,0 -0.18,-0.03 -0.25,-0.08 -0.08,-0.05 -0.16,-0.12 -0.25,-0.2 l -0.09,-0.08 c -0.13,-0.11 -0.28,-0.23 -0.44,-0.35 -0.16,-0.12 -0.34,-0.23 -0.52,-0.32 -0.19,-0.1 -0.38,-0.18 -0.59,-0.24 -0.21,-0.06 -0.42,-0.1 -0.63,-0.1 -0.22,0 -0.43,0.02 -0.62,0.05 -0.19,0.04 -0.36,0.1 -0.51,0.18 -0.15,0.08 -0.26,0.18 -0.35,0.31 -0.09,0.13 -0.13,0.29 -0.13,0.47 0,0.19 0.05,0.35 0.14,0.48 0.09,0.14 0.23,0.26 0.42,0.38 0.19,0.12 0.42,0.23 0.69,0.33 0.27,0.1 0.6,0.21 0.96,0.33 0.71,0.23 1.36,0.48 1.95,0.73 0.6,0.26 1.11,0.56 1.54,0.91 0.43,0.35 0.77,0.77 1.01,1.25 0.24,0.49 0.36,1.08 0.36,1.77 0,0.73 -0.15,1.4 -0.45,1.99 -0.3,0.6 -0.71,1.1 -1.23,1.52 -0.52,0.42 -1.14,0.74 -1.84,0.97 -0.71,0.23 -1.47,0.34 -2.28,0.34 -0.77,0 -1.52,-0.14 -2.26,-0.41 -0.74,-0.27 -1.43,-0.64 -2.07,-1.1 -0.27,-0.19 -0.49,-0.38 -0.67,-0.57 -0.18,-0.19 -0.33,-0.34 -0.43,-0.45 l -0.03,-0.03 c -0.01,-0.01 -0.01,-0.02 -0.02,-0.02 -0.01,0 -0.01,-0.01 -0.02,-0.02 -0.01,-0.01 -0.01,-0.02 -0.02,-0.02 -0.01,0 -0.01,-0.01 -0.02,-0.02 -0.15,-0.17 -0.23,-0.3 -0.23,-0.4 0,-0.11 0.08,-0.24 0.23,-0.38 l 1.73,-1.65 c 0.14,-0.1 0.25,-0.15 0.34,-0.15 0.06,0 0.12,0.02 0.19,0.06 0.11,0.07 0.19,0.13 0.28,0.21 z"
   class="st28" />
			<linearGradient
   y2="423.2551"
   x2="382.95331"
   y1="393.39481"
   x1="381.02679"
   gradientUnits="userSpaceOnUse"
   id="SVGID_28_">
				<stop
   id="stop409"
   style="stop-color:#C9DCEE"
   offset="0" />
				<stop
   id="stop411"
   style="stop-color:#C0D3E9"
   offset="0.1112" />
				<stop
   id="stop413"
   style="stop-color:#A8BCD9"
   offset="0.2961" />
				<stop
   id="stop415"
   style="stop-color:#8599BF"
   offset="0.532" />
				<stop
   id="stop417"
   style="stop-color:#5470A0"
   offset="0.8067" />
				<stop
   id="stop419"
   style="stop-color:#0D578D"
   offset="0.9944" />
			</linearGradient>
			<path
   style="fill:url(#SVGID_28_)"
   id="path422"
   d="m 378.39,470.97 c 0,-0.71 0.09,-1.38 0.27,-2.03 0.18,-0.65 0.44,-1.26 0.77,-1.83 0.33,-0.57 0.73,-1.09 1.2,-1.55 0.46,-0.47 0.98,-0.86 1.54,-1.19 0.57,-0.33 1.18,-0.59 1.83,-0.77 0.65,-0.18 1.33,-0.27 2.03,-0.27 0.7,0 1.38,0.09 2.03,0.27 0.65,0.18 1.26,0.44 1.83,0.77 0.57,0.33 1.08,0.73 1.55,1.19 0.47,0.47 0.86,0.98 1.2,1.55 0.33,0.57 0.59,1.18 0.77,1.83 0.18,0.65 0.27,1.33 0.27,2.03 0,0.71 -0.09,1.38 -0.27,2.03 -0.18,0.65 -0.44,1.26 -0.77,1.82 -0.33,0.56 -0.73,1.08 -1.2,1.54 -0.47,0.46 -0.98,0.86 -1.55,1.19 -0.57,0.33 -1.18,0.59 -1.83,0.77 -0.65,0.18 -1.33,0.27 -2.03,0.27 -0.71,0 -1.39,-0.09 -2.03,-0.27 -0.65,-0.18 -1.26,-0.44 -1.83,-0.77 -0.57,-0.33 -1.08,-0.73 -1.54,-1.19 -0.46,-0.46 -0.86,-0.98 -1.2,-1.54 -0.33,-0.56 -0.59,-1.17 -0.77,-1.82 -0.18,-0.65 -0.27,-1.33 -0.27,-2.03 z m 3.86,-0.01 c 0,0.55 0.09,1.07 0.28,1.55 0.19,0.48 0.45,0.9 0.78,1.25 0.34,0.36 0.73,0.64 1.19,0.84 0.46,0.2 0.96,0.3 1.52,0.3 0.55,0 1.06,-0.1 1.52,-0.3 0.46,-0.2 0.86,-0.48 1.2,-0.84 0.34,-0.36 0.6,-0.77 0.78,-1.25 0.19,-0.48 0.28,-1 0.28,-1.55 0,-0.55 -0.09,-1.06 -0.28,-1.54 -0.19,-0.48 -0.45,-0.9 -0.78,-1.26 -0.34,-0.36 -0.74,-0.64 -1.2,-0.85 -0.46,-0.21 -0.97,-0.31 -1.52,-0.31 -0.55,0 -1.06,0.1 -1.52,0.31 -0.46,0.21 -0.86,0.49 -1.19,0.85 -0.34,0.36 -0.6,0.78 -0.78,1.26 -0.18,0.48 -0.28,0.99 -0.28,1.54 z"
   class="st29" />
			<linearGradient
   y2="421.7818"
   x2="405.78931"
   y1="391.92151"
   x1="403.86292"
   gradientUnits="userSpaceOnUse"
   id="SVGID_29_">
				<stop
   id="stop424"
   style="stop-color:#C9DCEE"
   offset="0" />
				<stop
   id="stop426"
   style="stop-color:#C0D3E9"
   offset="0.1112" />
				<stop
   id="stop428"
   style="stop-color:#A8BCD9"
   offset="0.2961" />
				<stop
   id="stop430"
   style="stop-color:#8599BF"
   offset="0.532" />
				<stop
   id="stop432"
   style="stop-color:#5470A0"
   offset="0.8067" />
				<stop
   id="stop434"
   style="stop-color:#0D578D"
   offset="0.9944" />
			</linearGradient>
			<path
   style="fill:url(#SVGID_29_)"
   id="path437"
   d="m 402.42,463.97 c 0,-0.12 0.04,-0.22 0.11,-0.31 0.07,-0.09 0.18,-0.13 0.33,-0.13 h 3.27 c 0.09,0 0.19,0.02 0.29,0.07 0.1,0.05 0.19,0.13 0.26,0.24 0.85,1.37 1.69,2.71 2.52,4.04 0.83,1.33 1.68,2.67 2.53,4.04 v -8 c 0.03,-0.12 0.08,-0.21 0.16,-0.28 0.08,-0.07 0.17,-0.1 0.28,-0.1 h 2.85 c 0.14,0 0.26,0.04 0.35,0.11 0.09,0.08 0.14,0.19 0.14,0.32 v 14.01 c 0,0.13 -0.04,0.23 -0.12,0.29 -0.08,0.06 -0.19,0.09 -0.33,0.09 h -3.19 c -0.09,0 -0.16,-0.03 -0.23,-0.09 -0.07,-0.06 -0.14,-0.14 -0.21,-0.24 -0.89,-1.47 -1.76,-2.91 -2.63,-4.35 -0.87,-1.43 -1.75,-2.88 -2.64,-4.35 v 8.58 c 0,0.15 -0.03,0.26 -0.1,0.33 -0.07,0.07 -0.19,0.11 -0.36,0.11 h -2.84 c -0.15,0 -0.26,-0.04 -0.33,-0.12 -0.07,-0.08 -0.1,-0.19 -0.1,-0.3 v -13.96 z"
   class="st30" />
			<linearGradient
   y2="420.79199"
   x2="421.13129"
   y1="390.9317"
   x1="419.2048"
   gradientUnits="userSpaceOnUse"
   id="SVGID_30_">
				<stop
   id="stop439"
   style="stop-color:#C9DCEE"
   offset="0" />
				<stop
   id="stop441"
   style="stop-color:#C0D3E9"
   offset="0.1112" />
				<stop
   id="stop443"
   style="stop-color:#A8BCD9"
   offset="0.2961" />
				<stop
   id="stop445"
   style="stop-color:#8599BF"
   offset="0.532" />
				<stop
   id="stop447"
   style="stop-color:#5470A0"
   offset="0.8067" />
				<stop
   id="stop449"
   style="stop-color:#0D578D"
   offset="0.9944" />
			</linearGradient>
			<path
   style="fill:url(#SVGID_30_)"
   id="path452"
   d="m 423.01,463.92 c 0.01,-0.04 0.03,-0.08 0.06,-0.13 0.04,-0.05 0.08,-0.09 0.14,-0.13 0.05,-0.04 0.11,-0.07 0.17,-0.09 0.06,-0.02 0.12,-0.03 0.17,-0.03 h 2.56 c 0.11,0 0.21,0.03 0.29,0.1 0.08,0.07 0.14,0.13 0.18,0.18 l 0.25,0.57 5.25,13.53 c 0.05,0.13 0.04,0.24 -0.03,0.32 -0.07,0.08 -0.2,0.12 -0.38,0.12 h -2.87 c -0.15,0 -0.27,-0.03 -0.35,-0.08 -0.08,-0.06 -0.15,-0.15 -0.2,-0.28 -0.13,-0.34 -0.26,-0.68 -0.39,-1.01 -0.13,-0.34 -0.25,-0.67 -0.38,-1.01 h -5.31 c -0.13,0.34 -0.25,0.68 -0.38,1.01 -0.13,0.34 -0.26,0.67 -0.38,1.01 -0.09,0.25 -0.26,0.37 -0.51,0.37 h -2.95 c -0.13,0 -0.23,-0.03 -0.32,-0.1 -0.08,-0.07 -0.1,-0.17 -0.04,-0.3 z m 1.82,4.28 c -0.13,0.34 -0.25,0.71 -0.38,1.1 -0.13,0.39 -0.26,0.79 -0.38,1.19 -0.13,0.4 -0.25,0.79 -0.38,1.18 -0.13,0.39 -0.26,0.75 -0.38,1.09 h 3.07 z"
   class="st31" />
			<linearGradient
   y2="419.4201"
   x2="442.39551"
   y1="389.55981"
   x1="440.46899"
   gradientUnits="userSpaceOnUse"
   id="SVGID_31_">
				<stop
   id="stop454"
   style="stop-color:#C9DCEE"
   offset="0" />
				<stop
   id="stop456"
   style="stop-color:#C0D3E9"
   offset="0.1112" />
				<stop
   id="stop458"
   style="stop-color:#A8BCD9"
   offset="0.2961" />
				<stop
   id="stop460"
   style="stop-color:#8599BF"
   offset="0.532" />
				<stop
   id="stop462"
   style="stop-color:#5470A0"
   offset="0.8067" />
				<stop
   id="stop464"
   style="stop-color:#0D578D"
   offset="0.9944" />
			</linearGradient>
			<path
   style="fill:url(#SVGID_31_)"
   id="path467"
   d="m 440.14,463.99 c 0,-0.14 0.04,-0.25 0.11,-0.33 0.07,-0.08 0.18,-0.12 0.33,-0.12 h 6.39 c 0.46,0 0.89,0.06 1.3,0.19 0.41,0.13 0.78,0.3 1.12,0.52 0.34,0.22 0.65,0.49 0.92,0.8 0.27,0.31 0.5,0.64 0.69,1 0.19,0.36 0.33,0.74 0.43,1.13 0.1,0.4 0.15,0.8 0.15,1.2 0,0.6 -0.11,1.19 -0.32,1.76 -0.22,0.57 -0.52,1.08 -0.92,1.53 -0.4,0.45 -0.88,0.81 -1.44,1.08 -0.56,0.28 -1.18,0.42 -1.86,0.42 H 444 v 4.76 c 0,0.29 -0.15,0.43 -0.46,0.43 h -2.97 c -0.13,0 -0.24,-0.03 -0.32,-0.1 -0.08,-0.07 -0.12,-0.18 -0.12,-0.32 v -13.95 z m 7.52,4.38 c 0,-0.2 -0.03,-0.4 -0.11,-0.6 -0.07,-0.2 -0.17,-0.38 -0.3,-0.53 -0.13,-0.16 -0.29,-0.28 -0.48,-0.38 -0.19,-0.1 -0.4,-0.15 -0.64,-0.15 H 444 v 3.34 h 2.12 c 0.24,0 0.46,-0.05 0.65,-0.15 0.19,-0.1 0.36,-0.22 0.48,-0.37 0.13,-0.15 0.23,-0.33 0.3,-0.53 0.08,-0.21 0.11,-0.42 0.11,-0.63 z"
   class="st32" />
			<linearGradient
   y2="418.5441"
   x2="455.97351"
   y1="388.68381"
   x1="454.047"
   gradientUnits="userSpaceOnUse"
   id="SVGID_32_">
				<stop
   id="stop469"
   style="stop-color:#C9DCEE"
   offset="0" />
				<stop
   id="stop471"
   style="stop-color:#C0D3E9"
   offset="0.1112" />
				<stop
   id="stop473"
   style="stop-color:#A8BCD9"
   offset="0.2961" />
				<stop
   id="stop475"
   style="stop-color:#8599BF"
   offset="0.532" />
				<stop
   id="stop477"
   style="stop-color:#5470A0"
   offset="0.8067" />
				<stop
   id="stop479"
   style="stop-color:#0D578D"
   offset="0.9944" />
			</linearGradient>
			<path
   style="fill:url(#SVGID_32_)"
   id="path482"
   d="m 458,463.92 c 0.01,-0.04 0.03,-0.08 0.06,-0.13 0.04,-0.05 0.08,-0.09 0.14,-0.13 0.05,-0.04 0.11,-0.07 0.17,-0.09 0.06,-0.02 0.12,-0.03 0.17,-0.03 h 2.56 c 0.11,0 0.21,0.03 0.29,0.1 0.08,0.07 0.14,0.13 0.18,0.18 l 0.25,0.57 5.25,13.53 c 0.05,0.13 0.04,0.24 -0.03,0.32 -0.07,0.08 -0.2,0.12 -0.38,0.12 h -2.87 c -0.15,0 -0.27,-0.03 -0.35,-0.08 -0.08,-0.06 -0.15,-0.15 -0.2,-0.28 -0.13,-0.34 -0.26,-0.68 -0.39,-1.01 -0.13,-0.34 -0.25,-0.67 -0.38,-1.01 h -5.31 c -0.13,0.34 -0.25,0.68 -0.38,1.01 -0.13,0.34 -0.26,0.67 -0.38,1.01 -0.09,0.25 -0.26,0.37 -0.51,0.37 h -2.95 c -0.13,0 -0.23,-0.03 -0.32,-0.1 -0.08,-0.07 -0.1,-0.17 -0.04,-0.3 z m 1.81,4.28 c -0.13,0.34 -0.25,0.71 -0.38,1.1 -0.13,0.39 -0.26,0.79 -0.38,1.19 -0.13,0.4 -0.25,0.79 -0.38,1.18 -0.13,0.39 -0.26,0.75 -0.38,1.09 h 3.07 z"
   class="st33" />
			<linearGradient
   y2="417.49841"
   x2="472.18069"
   y1="387.63821"
   x1="470.25421"
   gradientUnits="userSpaceOnUse"
   id="SVGID_33_">
				<stop
   id="stop484"
   style="stop-color:#C9DCEE"
   offset="0" />
				<stop
   id="stop486"
   style="stop-color:#C0D3E9"
   offset="0.1112" />
				<stop
   id="stop488"
   style="stop-color:#A8BCD9"
   offset="0.2961" />
				<stop
   id="stop490"
   style="stop-color:#8599BF"
   offset="0.532" />
				<stop
   id="stop492"
   style="stop-color:#5470A0"
   offset="0.8067" />
				<stop
   id="stop494"
   style="stop-color:#0D578D"
   offset="0.9944" />
			</linearGradient>
			<path
   style="fill:url(#SVGID_33_)"
   id="path497"
   d="m 469.09,463.97 c 0,-0.12 0.04,-0.22 0.11,-0.31 0.07,-0.09 0.18,-0.13 0.33,-0.13 h 3.27 c 0.09,0 0.19,0.02 0.29,0.07 0.1,0.05 0.19,0.13 0.26,0.24 0.85,1.37 1.69,2.71 2.52,4.04 0.83,1.33 1.68,2.67 2.53,4.04 v -8 c 0.03,-0.12 0.08,-0.21 0.16,-0.28 0.08,-0.07 0.17,-0.1 0.28,-0.1 h 2.85 c 0.14,0 0.26,0.04 0.35,0.11 0.09,0.08 0.14,0.19 0.14,0.32 v 14.01 c 0,0.13 -0.04,0.23 -0.12,0.29 -0.08,0.06 -0.19,0.09 -0.33,0.09 h -3.19 c -0.09,0 -0.16,-0.03 -0.23,-0.09 -0.07,-0.06 -0.14,-0.14 -0.21,-0.24 -0.89,-1.47 -1.76,-2.91 -2.63,-4.35 -0.87,-1.43 -1.75,-2.88 -2.64,-4.35 v 8.58 c 0,0.15 -0.03,0.26 -0.1,0.33 -0.07,0.07 -0.19,0.11 -0.36,0.11 h -2.84 c -0.15,0 -0.26,-0.04 -0.33,-0.12 -0.07,-0.08 -0.1,-0.19 -0.1,-0.3 v -13.96 z"
   class="st34" />
			<linearGradient
   y2="416.47519"
   x2="488.04089"
   y1="386.6149"
   x1="486.11441"
   gradientUnits="userSpaceOnUse"
   id="SVGID_34_">
				<stop
   id="stop499"
   style="stop-color:#C9DCEE"
   offset="0" />
				<stop
   id="stop501"
   style="stop-color:#C0D3E9"
   offset="0.1112" />
				<stop
   id="stop503"
   style="stop-color:#A8BCD9"
   offset="0.2961" />
				<stop
   id="stop505"
   style="stop-color:#8599BF"
   offset="0.532" />
				<stop
   id="stop507"
   style="stop-color:#5470A0"
   offset="0.8067" />
				<stop
   id="stop509"
   style="stop-color:#0D578D"
   offset="0.9944" />
			</linearGradient>
			<path
   style="fill:url(#SVGID_34_)"
   id="path512"
   d="m 498.28,470.97 c 0,0.71 -0.09,1.38 -0.27,2.01 -0.18,0.64 -0.44,1.23 -0.77,1.78 -0.33,0.55 -0.73,1.05 -1.19,1.49 -0.46,0.45 -0.98,0.83 -1.54,1.14 -0.56,0.31 -1.17,0.55 -1.82,0.72 -0.65,0.17 -1.33,0.25 -2.03,0.25 h -4.93 c -0.12,0 -0.23,-0.03 -0.32,-0.08 -0.09,-0.05 -0.14,-0.17 -0.14,-0.34 v -13.96 c 0,-0.14 0.04,-0.25 0.11,-0.34 0.08,-0.09 0.19,-0.13 0.34,-0.13 h 4.93 c 0.7,0 1.37,0.09 2.02,0.26 0.65,0.17 1.26,0.42 1.82,0.74 0.56,0.32 1.08,0.7 1.54,1.15 0.47,0.45 0.86,0.95 1.19,1.5 0.33,0.55 0.59,1.15 0.77,1.79 0.2,0.65 0.29,1.32 0.29,2.02 z m -9.14,-3.86 v 7.69 h 0.84 c 0.15,0 0.3,0 0.45,-0.02 0.15,-0.01 0.29,-0.02 0.44,-0.03 0.5,-0.04 0.97,-0.16 1.4,-0.36 0.43,-0.2 0.81,-0.47 1.13,-0.8 0.32,-0.33 0.58,-0.72 0.76,-1.16 0.18,-0.45 0.27,-0.93 0.27,-1.46 0,-0.56 -0.1,-1.07 -0.31,-1.54 -0.21,-0.47 -0.49,-0.88 -0.85,-1.22 -0.36,-0.34 -0.78,-0.61 -1.26,-0.8 -0.48,-0.19 -1,-0.28 -1.54,-0.28 h -1.33 z"
   class="st35" />
			<linearGradient
   y2="415.52829"
   x2="502.7179"
   y1="385.668"
   x1="500.7915"
   gradientUnits="userSpaceOnUse"
   id="SVGID_35_">
				<stop
   id="stop514"
   style="stop-color:#C9DCEE"
   offset="0" />
				<stop
   id="stop516"
   style="stop-color:#C0D3E9"
   offset="0.1112" />
				<stop
   id="stop518"
   style="stop-color:#A8BCD9"
   offset="0.2961" />
				<stop
   id="stop520"
   style="stop-color:#8599BF"
   offset="0.532" />
				<stop
   id="stop522"
   style="stop-color:#5470A0"
   offset="0.8067" />
				<stop
   id="stop524"
   style="stop-color:#0D578D"
   offset="0.9944" />
			</linearGradient>
			<path
   style="fill:url(#SVGID_35_)"
   id="path527"
   d="m 500.89,463.99 c 0,-0.14 0.04,-0.25 0.11,-0.33 0.08,-0.08 0.18,-0.12 0.32,-0.12 h 9.91 c 0.15,0 0.26,0.04 0.34,0.13 0.08,0.09 0.12,0.2 0.12,0.35 v 2.47 c 0,0.11 -0.04,0.22 -0.12,0.32 -0.08,0.1 -0.2,0.15 -0.35,0.15 h -6.48 v 2.48 h 5 c 0.13,0 0.23,0.03 0.31,0.09 0.08,0.06 0.12,0.16 0.12,0.3 v 2.16 c 0,0.09 -0.04,0.18 -0.11,0.27 -0.07,0.09 -0.18,0.13 -0.32,0.13 h -5.01 v 2.56 h 6.72 c 0.3,0 0.45,0.15 0.45,0.46 v 2.51 c 0,0.07 -0.03,0.13 -0.08,0.18 -0.03,0.19 -0.16,0.28 -0.41,0.28 h -10.1 c -0.13,0 -0.24,-0.03 -0.32,-0.1 -0.08,-0.07 -0.12,-0.18 -0.12,-0.32 v -13.97 z"
   class="st36" />
			<linearGradient
   y2="414.5253"
   x2="518.26367"
   y1="384.6651"
   x1="516.33728"
   gradientUnits="userSpaceOnUse"
   id="SVGID_36_">
				<stop
   id="stop529"
   style="stop-color:#C9DCEE"
   offset="0" />
				<stop
   id="stop531"
   style="stop-color:#C0D3E9"
   offset="0.1112" />
				<stop
   id="stop533"
   style="stop-color:#A8BCD9"
   offset="0.2961" />
				<stop
   id="stop535"
   style="stop-color:#8599BF"
   offset="0.532" />
				<stop
   id="stop537"
   style="stop-color:#5470A0"
   offset="0.8067" />
				<stop
   id="stop539"
   style="stop-color:#0D578D"
   offset="0.9944" />
			</linearGradient>
			<path
   style="fill:url(#SVGID_36_)"
   id="path542"
   d="m 515.21,463.97 c 0.01,-0.12 0.06,-0.22 0.14,-0.31 0.08,-0.09 0.19,-0.13 0.34,-0.13 h 3.46 c 0.25,0 0.41,0.13 0.48,0.38 l 2.72,9.07 2.74,-9.07 c 0.09,-0.25 0.26,-0.38 0.51,-0.38 h 3.42 c 0.12,0 0.23,0.04 0.32,0.12 0.1,0.08 0.15,0.19 0.16,0.31 0.23,2.35 0.47,4.67 0.71,6.98 0.24,2.31 0.48,4.64 0.71,6.98 v 0.05 c 0,0.26 -0.15,0.39 -0.44,0.39 h -2.83 c -0.31,0 -0.47,-0.15 -0.48,-0.44 l -0.87,-7.73 -2.25,7.78 c -0.01,0.07 -0.06,0.15 -0.14,0.24 -0.08,0.09 -0.17,0.14 -0.25,0.14 h -2.63 c -0.08,0 -0.17,-0.04 -0.25,-0.13 -0.09,-0.09 -0.14,-0.17 -0.14,-0.24 l -2.25,-7.76 -0.87,7.71 c -0.01,0.29 -0.18,0.44 -0.49,0.44 h -2.83 c -0.29,0 -0.43,-0.15 -0.43,-0.44 z"
   class="st37" />
			<linearGradient
   y2="413.6485"
   x2="531.85461"
   y1="383.78821"
   x1="529.92822"
   gradientUnits="userSpaceOnUse"
   id="SVGID_37_">
				<stop
   id="stop544"
   style="stop-color:#C9DCEE"
   offset="0" />
				<stop
   id="stop546"
   style="stop-color:#C0D3E9"
   offset="0.1112" />
				<stop
   id="stop548"
   style="stop-color:#A8BCD9"
   offset="0.2961" />
				<stop
   id="stop550"
   style="stop-color:#8599BF"
   offset="0.532" />
				<stop
   id="stop552"
   style="stop-color:#5470A0"
   offset="0.8067" />
				<stop
   id="stop554"
   style="stop-color:#0D578D"
   offset="0.9944" />
			</linearGradient>
			<path
   style="fill:url(#SVGID_37_)"
   id="path557"
   d="m 533.62,463.97 c 0,-0.12 0.04,-0.22 0.11,-0.31 0.07,-0.09 0.18,-0.13 0.33,-0.13 H 537 c 0.1,0 0.21,0.04 0.32,0.12 0.11,0.08 0.17,0.19 0.17,0.32 v 13.96 c 0,0.29 -0.16,0.44 -0.49,0.44 h -2.94 c -0.29,0 -0.44,-0.15 -0.44,-0.44 z"
   class="st38" />
			<linearGradient
   y2="412.95731"
   x2="542.56848"
   y1="383.09698"
   x1="540.64203"
   gradientUnits="userSpaceOnUse"
   id="SVGID_38_">
				<stop
   id="stop559"
   style="stop-color:#C9DCEE"
   offset="0" />
				<stop
   id="stop561"
   style="stop-color:#C0D3E9"
   offset="0.1112" />
				<stop
   id="stop563"
   style="stop-color:#A8BCD9"
   offset="0.2961" />
				<stop
   id="stop565"
   style="stop-color:#8599BF"
   offset="0.532" />
				<stop
   id="stop567"
   style="stop-color:#5470A0"
   offset="0.8067" />
				<stop
   id="stop569"
   style="stop-color:#0D578D"
   offset="0.9944" />
			</linearGradient>
			<path
   style="fill:url(#SVGID_38_)"
   id="path572"
   d="m 544.95,463.92 c 0.01,-0.04 0.03,-0.08 0.06,-0.13 0.04,-0.05 0.08,-0.09 0.14,-0.13 0.05,-0.04 0.11,-0.07 0.17,-0.09 0.06,-0.02 0.12,-0.03 0.17,-0.03 h 2.56 c 0.11,0 0.21,0.03 0.29,0.1 0.08,0.07 0.14,0.13 0.18,0.18 l 0.25,0.57 5.25,13.53 c 0.05,0.13 0.04,0.24 -0.03,0.32 -0.07,0.08 -0.2,0.12 -0.38,0.12 h -2.87 c -0.15,0 -0.27,-0.03 -0.35,-0.08 -0.08,-0.06 -0.15,-0.15 -0.2,-0.28 -0.13,-0.34 -0.26,-0.68 -0.39,-1.01 -0.13,-0.34 -0.25,-0.67 -0.38,-1.01 h -5.31 c -0.13,0.34 -0.25,0.68 -0.38,1.01 -0.13,0.34 -0.26,0.67 -0.38,1.01 -0.09,0.25 -0.26,0.37 -0.51,0.37 h -2.95 c -0.13,0 -0.23,-0.03 -0.32,-0.1 -0.08,-0.07 -0.1,-0.17 -0.04,-0.3 z m 1.82,4.28 c -0.13,0.34 -0.25,0.71 -0.38,1.1 -0.13,0.39 -0.26,0.79 -0.38,1.19 -0.13,0.4 -0.26,0.79 -0.38,1.18 -0.13,0.39 -0.26,0.75 -0.38,1.09 h 3.07 z"
   class="st39" />
		</g>
		<g
   id="g600">
			<path
   id="path576"
   d="m 198.21,410.77 c 0,-2.43 0.31,-4.76 0.93,-7 0.62,-2.23 1.5,-4.33 2.65,-6.29 1.15,-1.96 2.52,-3.74 4.11,-5.35 1.59,-1.6 3.37,-2.97 5.32,-4.11 1.95,-1.14 4.04,-2.02 6.28,-2.65 2.24,-0.63 4.57,-0.95 7,-0.95 2.41,0 4.74,0.31 6.98,0.95 2.25,0.63 4.35,1.51 6.3,2.65 1.95,1.13 3.73,2.5 5.33,4.11 1.61,1.6 2.98,3.39 4.11,5.35 1.13,1.96 2.02,4.06 2.65,6.29 0.63,2.23 0.95,4.57 0.95,7 0,2.43 -0.31,4.76 -0.95,7 -0.63,2.24 -1.51,4.32 -2.65,6.26 -1.13,1.94 -2.51,3.7 -4.11,5.29 -1.61,1.59 -3.38,2.96 -5.33,4.11 -1.95,1.15 -4.05,2.03 -6.3,2.65 -2.25,0.62 -4.58,0.93 -6.98,0.93 -2.43,0 -4.76,-0.31 -7,-0.93 -2.24,-0.62 -4.33,-1.5 -6.28,-2.65 -1.95,-1.15 -3.72,-2.52 -5.32,-4.11 -1.59,-1.59 -2.96,-3.36 -4.11,-5.29 -1.15,-1.94 -2.03,-4.02 -2.65,-6.26 -0.62,-2.24 -0.93,-4.57 -0.93,-7 z m 13.3,-0.03 c 0,1.9 0.32,3.68 0.96,5.33 0.64,1.65 1.54,3.09 2.7,4.31 1.16,1.23 2.52,2.19 4.1,2.89 1.58,0.7 3.32,1.05 5.22,1.05 1.9,0 3.64,-0.35 5.24,-1.05 1.6,-0.7 2.96,-1.66 4.12,-2.89 1.16,-1.23 2.05,-2.66 2.7,-4.31 0.64,-1.65 0.96,-3.43 0.96,-5.33 0,-1.88 -0.32,-3.65 -0.96,-5.31 -0.64,-1.66 -1.54,-3.11 -2.7,-4.35 -1.16,-1.24 -2.53,-2.21 -4.12,-2.92 -1.59,-0.71 -3.34,-1.07 -5.24,-1.07 -1.9,0 -3.64,0.36 -5.22,1.07 -1.58,0.71 -2.95,1.68 -4.1,2.92 -1.16,1.24 -2.06,2.69 -2.7,4.35 -0.64,1.66 -0.96,3.43 -0.96,5.31 z"
   class="st40" />
			<path
   id="path578"
   d="m 255.85,396.27 c 0,-0.29 0.08,-0.52 0.24,-0.7 0.16,-0.17 0.38,-0.26 0.67,-0.26 h 13.78 c 1.22,0 2.37,0.23 3.45,0.7 1.08,0.46 2.02,1.1 2.83,1.91 0.81,0.81 1.45,1.76 1.92,2.84 0.47,1.09 0.71,2.25 0.71,3.5 0,1.04 -0.16,2 -0.49,2.89 -0.33,0.89 -0.79,1.69 -1.38,2.4 1,0.91 1.79,2 2.37,3.26 0.58,1.26 0.87,2.59 0.87,4.01 0,1.26 -0.24,2.45 -0.73,3.58 -0.48,1.13 -1.14,2.12 -1.96,2.97 -0.82,0.85 -1.78,1.53 -2.88,2.02 -1.1,0.5 -2.26,0.75 -3.48,0.75 h -15 c -0.28,0 -0.5,-0.07 -0.66,-0.22 -0.17,-0.15 -0.25,-0.37 -0.25,-0.67 v -28.98 z m 15.63,8.17 c 0,-0.41 -0.08,-0.8 -0.23,-1.16 -0.15,-0.36 -0.37,-0.68 -0.65,-0.96 -0.28,-0.28 -0.61,-0.49 -1,-0.65 -0.39,-0.16 -0.81,-0.24 -1.27,-0.24 h -4.45 v 6.02 h 4.39 c 0.47,0 0.91,-0.07 1.3,-0.22 0.4,-0.15 0.73,-0.35 1.01,-0.62 0.28,-0.27 0.5,-0.59 0.66,-0.95 0.16,-0.37 0.24,-0.77 0.24,-1.22 z m 1.1,12.06 c 0,-0.42 -0.08,-0.83 -0.24,-1.25 -0.16,-0.41 -0.38,-0.78 -0.67,-1.11 -0.28,-0.32 -0.62,-0.59 -1.02,-0.8 -0.4,-0.21 -0.82,-0.31 -1.28,-0.31 h -5.49 v 6.93 h 5.49 c 0.46,0 0.88,-0.1 1.27,-0.29 0.39,-0.19 0.73,-0.45 1.02,-0.78 0.29,-0.33 0.52,-0.7 0.68,-1.11 0.16,-0.41 0.24,-0.84 0.24,-1.28 z"
   class="st40" />
			<path
   id="path580"
   d="m 289.01,416.3 c 0.24,0.19 0.54,0.45 0.9,0.78 0.37,0.33 0.78,0.65 1.25,0.97 0.71,0.47 1.4,0.84 2.1,1.1 0.69,0.26 1.42,0.39 2.18,0.39 0.71,0 1.3,-0.08 1.77,-0.24 0.48,-0.16 0.85,-0.37 1.13,-0.63 0.28,-0.26 0.47,-0.57 0.59,-0.91 0.12,-0.35 0.18,-0.71 0.18,-1.1 0,-0.43 -0.16,-0.81 -0.49,-1.15 -0.33,-0.34 -0.72,-0.64 -1.19,-0.9 -0.47,-0.26 -0.96,-0.49 -1.47,-0.67 -0.51,-0.19 -0.95,-0.34 -1.33,-0.47 -1.66,-0.58 -3.11,-1.21 -4.36,-1.88 -1.25,-0.67 -2.28,-1.42 -3.11,-2.24 -0.83,-0.82 -1.45,-1.73 -1.87,-2.72 -0.41,-0.99 -0.62,-2.09 -0.62,-3.31 0,-1.29 0.26,-2.45 0.78,-3.5 0.52,-1.05 1.26,-1.95 2.22,-2.7 0.96,-0.75 2.12,-1.32 3.48,-1.73 1.36,-0.41 2.87,-0.61 4.54,-0.61 1.26,0 2.47,0.14 3.62,0.43 1.16,0.28 2.29,0.74 3.41,1.36 0.47,0.28 0.92,0.56 1.34,0.86 0.42,0.3 0.79,0.58 1.11,0.86 0.32,0.28 0.57,0.54 0.76,0.79 0.19,0.25 0.28,0.46 0.28,0.64 0,0.18 -0.04,0.35 -0.14,0.5 -0.09,0.15 -0.22,0.33 -0.4,0.52 l -3.18,3.38 c -0.24,0.24 -0.47,0.35 -0.71,0.35 -0.19,0 -0.37,-0.05 -0.53,-0.17 -0.16,-0.11 -0.34,-0.25 -0.53,-0.42 l -0.19,-0.17 c -0.28,-0.23 -0.59,-0.48 -0.92,-0.73 -0.34,-0.25 -0.7,-0.47 -1.09,-0.67 -0.39,-0.2 -0.8,-0.37 -1.22,-0.5 -0.43,-0.13 -0.86,-0.2 -1.31,-0.2 -0.46,0 -0.89,0.04 -1.29,0.11 -0.4,0.08 -0.75,0.2 -1.06,0.36 -0.3,0.17 -0.55,0.38 -0.73,0.65 -0.18,0.27 -0.27,0.6 -0.27,0.99 0,0.39 0.1,0.72 0.29,1.01 0.19,0.28 0.48,0.55 0.87,0.79 0.39,0.24 0.87,0.47 1.44,0.68 0.57,0.21 1.24,0.45 2,0.7 1.47,0.48 2.82,0.99 4.06,1.53 1.24,0.53 2.31,1.16 3.21,1.89 0.9,0.73 1.6,1.59 2.11,2.6 0.5,1.01 0.76,2.23 0.76,3.67 0,1.52 -0.31,2.9 -0.93,4.14 -0.62,1.24 -1.48,2.29 -2.56,3.17 -1.09,0.87 -2.36,1.55 -3.83,2.02 -1.47,0.48 -3.04,0.72 -4.73,0.72 -1.59,0 -3.15,-0.28 -4.69,-0.85 -1.54,-0.57 -2.97,-1.33 -4.3,-2.29 -0.55,-0.4 -1.02,-0.8 -1.4,-1.19 -0.38,-0.39 -0.68,-0.7 -0.9,-0.94 l -0.06,-0.06 c -0.01,-0.03 -0.03,-0.04 -0.04,-0.05 -0.01,-0.01 -0.03,-0.02 -0.04,-0.03 -0.01,-0.03 -0.03,-0.04 -0.04,-0.05 -0.01,-0.01 -0.03,-0.02 -0.04,-0.03 -0.32,-0.35 -0.48,-0.62 -0.48,-0.83 0,-0.24 0.16,-0.5 0.48,-0.79 l 3.59,-3.42 c 0.29,-0.21 0.53,-0.31 0.71,-0.31 0.12,0 0.26,0.04 0.39,0.12 0.14,0.09 0.31,0.22 0.5,0.38 z"
   class="st40" />
			<path
   id="path582"
   d="m 312.36,396.27 c 0,-0.29 0.08,-0.52 0.24,-0.7 0.16,-0.17 0.38,-0.26 0.67,-0.26 h 20.59 c 0.3,0 0.54,0.09 0.71,0.27 0.17,0.18 0.25,0.42 0.25,0.72 v 5.13 c 0,0.23 -0.08,0.46 -0.25,0.67 -0.17,0.21 -0.41,0.32 -0.73,0.32 h -13.45 v 5.15 h 10.38 c 0.26,0 0.48,0.06 0.65,0.19 0.17,0.12 0.26,0.33 0.26,0.62 v 4.48 c 0,0.19 -0.08,0.38 -0.23,0.56 -0.15,0.18 -0.37,0.27 -0.66,0.27 h -10.4 V 419 h 13.95 c 0.62,0 0.93,0.32 0.93,0.95 v 5.22 c 0,0.14 -0.06,0.26 -0.17,0.37 -0.06,0.39 -0.34,0.58 -0.85,0.58 h -20.98 c -0.28,0 -0.5,-0.07 -0.66,-0.22 -0.17,-0.15 -0.25,-0.37 -0.25,-0.67 z"
   class="st40" />
			<path
   id="path584"
   d="m 340.42,396.27 c 0,-0.29 0.08,-0.52 0.23,-0.7 0.15,-0.18 0.38,-0.26 0.68,-0.26 h 13.41 c 1.43,0 2.76,0.27 4.01,0.8 1.25,0.53 2.33,1.26 3.26,2.17 0.93,0.91 1.66,1.98 2.19,3.21 0.53,1.22 0.8,2.53 0.8,3.91 0,0.94 -0.13,1.84 -0.38,2.69 -0.26,0.85 -0.61,1.65 -1.07,2.39 -0.46,0.74 -1,1.41 -1.63,2.01 -0.63,0.6 -1.32,1.12 -2.06,1.55 l 5.33,10.04 c 0.1,0.19 0.22,0.42 0.37,0.68 0.15,0.26 0.23,0.49 0.23,0.68 0,0.22 -0.07,0.39 -0.22,0.51 -0.15,0.12 -0.34,0.18 -0.59,0.18 h -7.12 c -0.24,0 -0.45,-0.07 -0.63,-0.21 -0.19,-0.14 -0.31,-0.33 -0.36,-0.56 l -5.04,-9.49 h -3.36 v 9.36 c 0,0.6 -0.32,0.89 -0.96,0.89 h -6.16 c -0.28,0 -0.5,-0.07 -0.66,-0.22 -0.17,-0.15 -0.25,-0.37 -0.25,-0.67 v -28.96 z m 16.25,9.21 c 0,-0.42 -0.08,-0.83 -0.23,-1.25 -0.15,-0.41 -0.37,-0.8 -0.64,-1.14 -0.28,-0.35 -0.61,-0.64 -1,-0.87 -0.39,-0.23 -0.82,-0.39 -1.29,-0.46 -0.39,-0.03 -0.75,-0.05 -1.09,-0.07 -0.34,-0.02 -0.71,-0.03 -1.11,-0.03 h -2.86 v 7.62 h 3.82 c 0.25,0 0.47,-0.01 0.66,-0.02 0.19,-0.01 0.41,-0.03 0.64,-0.06 0.48,-0.05 0.92,-0.2 1.31,-0.43 0.39,-0.23 0.71,-0.51 0.98,-0.85 0.26,-0.34 0.46,-0.72 0.6,-1.14 0.14,-0.42 0.21,-0.86 0.21,-1.3 z"
   class="st40" />
			<path
   id="path586"
   d="m 378.07,425.69 c -0.15,-0.25 -0.29,-0.51 -0.4,-0.77 -0.12,-0.26 -0.23,-0.53 -0.34,-0.81 l -10.65,-27.87 c 0,-0.07 -0.01,-0.13 -0.03,-0.19 -0.02,-0.05 -0.03,-0.11 -0.03,-0.17 0,-0.39 0.26,-0.58 0.77,-0.58 h 6.68 c 0.53,0 0.89,0.26 1.08,0.79 l 6.33,18.89 c 0.57,-1.58 1.11,-3.15 1.63,-4.72 0.52,-1.57 1.03,-3.14 1.54,-4.72 0.5,-1.58 1.02,-3.15 1.54,-4.72 0.52,-1.57 1.06,-3.14 1.63,-4.72 0.19,-0.53 0.57,-0.79 1.14,-0.79 h 6.54 c 0.32,0 0.54,0.06 0.67,0.18 0.13,0.12 0.2,0.27 0.2,0.47 0,0.11 -0.01,0.19 -0.02,0.23 v 0.06 l -10.71,27.87 c -0.07,0.19 -0.15,0.41 -0.25,0.64 -0.1,0.24 -0.21,0.45 -0.33,0.65 -0.12,0.2 -0.27,0.37 -0.44,0.51 -0.17,0.14 -0.35,0.21 -0.56,0.21 h -5.13 c -0.44,0 -0.73,-0.15 -0.86,-0.44 z"
   class="st40" />
			<path
   id="path588"
   d="m 403.72,396.12 c 0.01,-0.08 0.06,-0.17 0.13,-0.27 0.08,-0.1 0.17,-0.19 0.28,-0.27 0.11,-0.08 0.23,-0.15 0.35,-0.2 0.12,-0.05 0.24,-0.07 0.35,-0.07 h 5.31 c 0.23,0 0.44,0.07 0.6,0.22 0.17,0.15 0.29,0.27 0.37,0.38 l 0.52,1.18 10.9,28.1 c 0.11,0.28 0.09,0.5 -0.06,0.67 -0.15,0.17 -0.41,0.26 -0.79,0.26 h -5.96 c -0.32,0 -0.56,-0.06 -0.74,-0.18 -0.17,-0.12 -0.31,-0.31 -0.41,-0.59 -0.28,-0.71 -0.55,-1.41 -0.81,-2.11 -0.26,-0.7 -0.53,-1.4 -0.79,-2.11 h -11.02 c -0.26,0.71 -0.53,1.41 -0.8,2.11 -0.27,0.7 -0.54,1.4 -0.8,2.11 -0.18,0.51 -0.53,0.77 -1.06,0.77 h -6.12 c -0.26,0 -0.48,-0.07 -0.65,-0.21 -0.17,-0.14 -0.2,-0.35 -0.09,-0.62 z m 3.77,8.88 c -0.26,0.71 -0.53,1.47 -0.8,2.28 -0.27,0.82 -0.54,1.64 -0.8,2.47 -0.26,0.83 -0.53,1.65 -0.8,2.46 -0.27,0.81 -0.54,1.57 -0.8,2.27 h 6.37 z"
   class="st40" />
			<path
   id="path590"
   d="m 419.8,396.22 c 0,-0.28 0.09,-0.5 0.28,-0.66 0.19,-0.17 0.42,-0.25 0.7,-0.25 h 22.33 c 0.25,0 0.47,0.08 0.66,0.23 0.19,0.15 0.3,0.38 0.33,0.68 v 5.15 c 0,0.25 -0.09,0.49 -0.26,0.71 -0.17,0.23 -0.42,0.34 -0.74,0.34 h -7.16 v 22.72 c 0,0.25 -0.09,0.47 -0.27,0.67 -0.18,0.2 -0.41,0.3 -0.7,0.3 h -6.09 c -0.23,0 -0.46,-0.09 -0.66,-0.28 -0.21,-0.19 -0.31,-0.42 -0.31,-0.7 v -22.72 h -7.14 c -0.28,0 -0.51,-0.09 -0.7,-0.27 -0.19,-0.18 -0.28,-0.44 -0.28,-0.79 v -5.13 z"
   class="st40" />
			<path
   id="path592"
   d="m 445.54,415.13 c 0,-1.47 0.19,-2.87 0.56,-4.22 0.37,-1.35 0.91,-2.62 1.6,-3.8 0.69,-1.18 1.52,-2.26 2.48,-3.23 0.96,-0.97 2.03,-1.8 3.21,-2.48 1.18,-0.68 2.44,-1.22 3.79,-1.6 1.35,-0.38 2.76,-0.57 4.23,-0.57 1.45,0 2.86,0.19 4.22,0.57 1.36,0.38 2.62,0.91 3.8,1.6 1.18,0.68 2.25,1.51 3.22,2.48 0.97,0.97 1.8,2.04 2.48,3.23 0.68,1.18 1.22,2.45 1.6,3.8 0.38,1.35 0.57,2.76 0.57,4.22 0,1.47 -0.19,2.87 -0.57,4.22 -0.38,1.35 -0.91,2.61 -1.6,3.78 -0.69,1.17 -1.51,2.23 -2.48,3.2 -0.97,0.96 -2.04,1.79 -3.22,2.48 -1.18,0.69 -2.44,1.22 -3.8,1.6 -1.36,0.37 -2.76,0.56 -4.22,0.56 -1.47,0 -2.88,-0.19 -4.23,-0.56 -1.35,-0.37 -2.61,-0.91 -3.79,-1.6 -1.18,-0.69 -2.25,-1.52 -3.21,-2.48 -0.96,-0.96 -1.79,-2.03 -2.48,-3.2 -0.69,-1.17 -1.23,-2.43 -1.6,-3.78 -0.38,-1.35 -0.56,-2.75 -0.56,-4.22 z m 8.03,-0.02 c 0,1.15 0.19,2.22 0.58,3.22 0.39,1 0.93,1.86 1.63,2.6 0.7,0.74 1.52,1.32 2.48,1.74 0.96,0.42 2,0.63 3.15,0.63 1.15,0 2.2,-0.21 3.16,-0.63 0.96,-0.42 1.79,-1 2.49,-1.74 0.7,-0.74 1.24,-1.61 1.63,-2.6 0.39,-1 0.58,-2.07 0.58,-3.22 0,-1.13 -0.19,-2.2 -0.58,-3.21 -0.39,-1.01 -0.93,-1.88 -1.63,-2.63 -0.7,-0.75 -1.53,-1.34 -2.49,-1.76 -0.96,-0.43 -2.01,-0.64 -3.16,-0.64 -1.15,0 -2.2,0.21 -3.15,0.64 -0.95,0.43 -1.78,1.02 -2.48,1.76 -0.7,0.75 -1.24,1.62 -1.63,2.63 -0.39,1.01 -0.58,2.08 -0.58,3.21 z M 460,391.35 c 0.07,-0.32 0.21,-0.54 0.43,-0.67 0.21,-0.13 0.44,-0.2 0.67,-0.2 h 5.35 c 0.21,0 0.36,0.04 0.47,0.12 0.1,0.08 0.17,0.19 0.21,0.31 0.03,0.12 0.04,0.27 0.01,0.43 -0.03,0.16 -0.08,0.32 -0.15,0.47 l -2.03,4.46 c -0.17,0.3 -0.33,0.53 -0.49,0.66 -0.16,0.14 -0.37,0.21 -0.63,0.21 h -4.54 c -0.21,0 -0.35,-0.05 -0.43,-0.17 -0.08,-0.11 -0.11,-0.24 -0.11,-0.39 0,-0.15 0.02,-0.32 0.06,-0.5 0.04,-0.18 0.08,-0.33 0.1,-0.46 z"
   class="st40" />
			<path
   id="path594"
   d="m 482.39,396.27 c 0,-0.29 0.08,-0.52 0.23,-0.7 0.15,-0.18 0.38,-0.26 0.68,-0.26 h 13.41 c 1.43,0 2.76,0.27 4.01,0.8 1.25,0.53 2.33,1.26 3.26,2.17 0.93,0.91 1.66,1.98 2.19,3.21 0.53,1.22 0.8,2.53 0.8,3.91 0,0.94 -0.13,1.84 -0.38,2.69 -0.26,0.85 -0.61,1.65 -1.07,2.39 -0.46,0.74 -1,1.41 -1.63,2.01 -0.63,0.6 -1.32,1.12 -2.06,1.55 l 5.33,10.04 c 0.1,0.19 0.22,0.42 0.37,0.68 0.15,0.26 0.23,0.49 0.23,0.68 0,0.22 -0.07,0.39 -0.22,0.51 -0.15,0.12 -0.34,0.18 -0.59,0.18 h -7.12 c -0.24,0 -0.45,-0.07 -0.63,-0.21 -0.19,-0.14 -0.31,-0.33 -0.36,-0.56 l -5.04,-9.49 h -3.36 v 9.36 c 0,0.6 -0.32,0.89 -0.96,0.89 h -6.16 c -0.28,0 -0.5,-0.07 -0.66,-0.22 -0.17,-0.15 -0.25,-0.37 -0.25,-0.67 v -28.96 z m 16.26,9.21 c 0,-0.42 -0.08,-0.83 -0.23,-1.25 -0.15,-0.41 -0.37,-0.8 -0.64,-1.14 -0.28,-0.35 -0.61,-0.64 -1,-0.87 -0.39,-0.23 -0.82,-0.39 -1.29,-0.46 -0.39,-0.03 -0.75,-0.05 -1.09,-0.07 -0.34,-0.02 -0.71,-0.03 -1.11,-0.03 h -2.86 v 7.62 h 3.82 c 0.25,0 0.47,-0.01 0.66,-0.02 0.19,-0.01 0.41,-0.03 0.64,-0.06 0.48,-0.05 0.92,-0.2 1.31,-0.43 0.39,-0.23 0.71,-0.51 0.98,-0.85 0.26,-0.34 0.46,-0.72 0.6,-1.14 0.14,-0.42 0.21,-0.86 0.21,-1.3 z"
   class="st40" />
			<path
   id="path596"
   d="m 511.64,396.22 c 0,-0.25 0.08,-0.46 0.23,-0.64 0.15,-0.18 0.38,-0.27 0.68,-0.27 h 6.1 c 0.21,0 0.43,0.08 0.66,0.25 0.24,0.17 0.35,0.39 0.35,0.66 v 28.99 c 0,0.61 -0.34,0.91 -1.02,0.91 h -6.1 c -0.61,0 -0.91,-0.3 -0.91,-0.91 v -28.99 z"
   class="st40" />
			<path
   id="path598"
   d="m 524.92,410.75 c 0,-1.47 0.19,-2.87 0.56,-4.22 0.37,-1.35 0.91,-2.62 1.6,-3.8 0.69,-1.18 1.52,-2.26 2.48,-3.23 0.96,-0.97 2.03,-1.8 3.21,-2.48 1.18,-0.68 2.44,-1.22 3.79,-1.6 1.35,-0.38 2.76,-0.57 4.23,-0.57 1.45,0 2.86,0.19 4.22,0.57 1.36,0.38 2.62,0.91 3.8,1.6 1.18,0.68 2.25,1.51 3.22,2.48 0.97,0.97 1.8,2.04 2.48,3.23 0.68,1.18 1.22,2.45 1.6,3.8 0.38,1.35 0.57,2.76 0.57,4.22 0,1.47 -0.19,2.87 -0.57,4.22 -0.38,1.35 -0.91,2.61 -1.6,3.78 -0.69,1.17 -1.51,2.23 -2.48,3.2 -0.97,0.96 -2.04,1.79 -3.22,2.48 -1.18,0.69 -2.44,1.22 -3.8,1.6 -1.36,0.37 -2.76,0.56 -4.22,0.56 -1.47,0 -2.88,-0.19 -4.23,-0.56 -1.35,-0.37 -2.61,-0.91 -3.79,-1.6 -1.18,-0.69 -2.25,-1.52 -3.21,-2.48 -0.96,-0.96 -1.79,-2.03 -2.48,-3.2 -0.69,-1.17 -1.23,-2.43 -1.6,-3.78 -0.38,-1.34 -0.56,-2.75 -0.56,-4.22 z m 8.03,-0.02 c 0,1.15 0.19,2.22 0.58,3.22 0.39,1 0.93,1.86 1.63,2.6 0.7,0.74 1.52,1.32 2.48,1.74 0.95,0.42 2,0.63 3.15,0.63 1.15,0 2.2,-0.21 3.16,-0.63 0.96,-0.42 1.79,-1 2.49,-1.74 0.7,-0.74 1.24,-1.61 1.63,-2.6 0.39,-1 0.58,-2.07 0.58,-3.22 0,-1.13 -0.19,-2.2 -0.58,-3.21 -0.39,-1 -0.93,-1.88 -1.63,-2.63 -0.7,-0.75 -1.53,-1.34 -2.49,-1.76 -0.96,-0.43 -2.01,-0.64 -3.16,-0.64 -1.15,0 -2.2,0.21 -3.15,0.64 -0.95,0.43 -1.78,1.02 -2.48,1.76 -0.7,0.75 -1.24,1.62 -1.63,2.63 -0.39,1.01 -0.58,2.08 -0.58,3.21 z"
   class="st40" />
		</g>
	</g><g
     id="g724"
     transform="translate(-29.758532,-286.36507)">
		<linearGradient
   y2="327.108"
   x2="139.9529"
   y1="426.457"
   x1="106.3891"
   gradientUnits="userSpaceOnUse"
   id="SVGID_39_">
			<stop
   id="stop604"
   style="stop-color:#C9DCEE"
   offset="0" />
			<stop
   id="stop606"
   style="stop-color:#C0D3E9"
   offset="0.1112" />
			<stop
   id="stop608"
   style="stop-color:#A8BCD9"
   offset="0.2961" />
			<stop
   id="stop610"
   style="stop-color:#8599BF"
   offset="0.532" />
			<stop
   id="stop612"
   style="stop-color:#5470A0"
   offset="0.8067" />
			<stop
   id="stop614"
   style="stop-color:#0D578D"
   offset="0.9944" />
		</linearGradient>
		<path
   style="fill:url(#SVGID_39_)"
   id="path617"
   d="m 160.81,333.31 c 14.77,22.24 7.44,48.75 -10.51,61.6 -17.97,12.86 -42.77,10.57 -57.98,-5.43 -15.12,-15.91 -16.17,-40.66 -3.01,-57.8 12.64,-16.46 41.44,-25.45 64.87,-5.99 0.78,-0.84 1.73,-1.65 2.4,-2.64 0.46,-0.68 0.9,-1.68 0.75,-2.41 -0.73,-3.5 0.27,-6.29 2.9,-8.64 7.08,-6.31 14.1,-12.67 21.18,-18.98 4,-3.56 8.59,-3.34 12.23,0.55 1.31,1.4 2.61,2.8 3.79,4.31 2.66,3.41 2.43,7.94 -0.76,10.86 -7.45,6.81 -14.91,13.61 -22.6,20.12 -1.52,1.29 -4.42,2.21 -6.18,1.66 -3.44,-1.06 -5.13,0.59 -7.08,2.79 z m -34.42,-10.55 c -19.99,-0.93 -37.16,14.46 -38.13,34.15 -0.99,20.16 14.59,37.31 34.67,38.17 19.78,0.84 36.71,-14.77 37.63,-34.71 0.9,-19.47 -14.76,-36.71 -34.17,-37.61 z"
   class="st41" />
		<linearGradient
   y2="347.35709"
   x2="132.2966"
   y1="347.35709"
   x1="94.554604"
   gradientUnits="userSpaceOnUse"
   id="SVGID_40_">
			<stop
   id="stop619"
   style="stop-color:#C9DCEE"
   offset="0" />
			<stop
   id="stop621"
   style="stop-color:#C0D3E9"
   offset="0.1112" />
			<stop
   id="stop623"
   style="stop-color:#A8BCD9"
   offset="0.2961" />
			<stop
   id="stop625"
   style="stop-color:#8599BF"
   offset="0.532" />
			<stop
   id="stop627"
   style="stop-color:#5470A0"
   offset="0.8067" />
			<stop
   id="stop629"
   style="stop-color:#0D578D"
   offset="0.9944" />
		</linearGradient>
		<path
   style="fill:url(#SVGID_40_)"
   id="path632"
   d="m 98,365.69 c -6.14,-8.83 -3.79,-22.67 4.89,-30.47 9.35,-8.39 23.16,-7.39 29.41,-2.16 -19.81,-0.44 -33.62,14.26 -34.3,32.63 z"
   class="st42" />
		<g
   id="g722">
			<path
   id="path634"
   d="m 85.82,440.42 c -10.62,20.48 -21.24,40.96 -31.86,61.44 -0.64,-32.82 -1.28,-65.63 -1.92,-98.45 9.75,-16.53 19.49,-33.07 29.24,-49.6 1.51,28.86 3.03,57.74 4.54,86.61 z"
   class="st44" />
			<path
   id="path636"
   d="m 53.87,401.37 c 8.88,-14.97 17.75,-29.93 26.63,-44.9 5.4,0.17 10.79,0.35 16.19,0.52 -13.24,15.15 -26.46,30.29 -39.69,45.43 -0.14,-0.18 -0.31,-0.36 -0.52,-0.52 -1.01,-0.77 -2.25,-0.59 -2.61,-0.53 z"
   class="st45" />
			<linearGradient
   y2="418.83331"
   x2="79.1408"
   y1="344.9928"
   x1="104.6493"
   gradientUnits="userSpaceOnUse"
   id="SVGID_41_">
				<stop
   id="stop638"
   style="stop-color:#C9DCEE"
   offset="0" />
				<stop
   id="stop640"
   style="stop-color:#C0D3E9"
   offset="0.1112" />
				<stop
   id="stop642"
   style="stop-color:#A8BCD9"
   offset="0.2961" />
				<stop
   id="stop644"
   style="stop-color:#8599BF"
   offset="0.532" />
				<stop
   id="stop646"
   style="stop-color:#5470A0"
   offset="0.8067" />
				<stop
   id="stop648"
   style="stop-color:#0D578D"
   offset="0.9944" />
			</linearGradient>
			<path
   style="fill:url(#SVGID_41_)"
   id="path651"
   d="m 98.32,446.26 c -13.33,18.33 -26.66,36.65 -39.99,54.98 -0.83,-32.63 -1.67,-65.26 -2.5,-97.88 13.95,-16.31 27.91,-32.63 41.86,-48.94 0.21,30.61 0.42,61.23 0.63,91.84 z"
   class="st46" />
			<path
   id="path653"
   d="m 53.96,508.11 v 0 c -2.63,0 -4.79,-2.16 -4.79,-4.79 v -97.47 c 0,-2.63 2.16,-4.79 4.79,-4.79 v 0 c 2.63,0 4.79,2.16 4.79,4.79 v 97.47 c 0,2.63 -2.16,4.79 -4.79,4.79 z"
   class="st40" />
			<path
   id="path655"
   d="m 108.8,440.42 c -10.62,20.48 -21.24,40.96 -31.86,61.44 -0.64,-32.82 -1.28,-65.63 -1.92,-98.45 9.75,-16.53 19.49,-33.07 29.24,-49.6 1.51,28.86 3.02,57.74 4.54,86.61 z"
   class="st44" />
			<path
   id="path657"
   d="m 76.84,401.37 c 8.88,-14.97 17.75,-29.93 26.63,-44.9 5.4,0.17 10.79,0.35 16.19,0.52 -13.23,15.14 -26.45,30.28 -39.68,45.42 -0.14,-0.18 -0.31,-0.36 -0.52,-0.52 -1.01,-0.76 -2.25,-0.58 -2.62,-0.52 z"
   class="st45" />
			<linearGradient
   y2="466.78299"
   x2="85.816498"
   y1="349.98071"
   x1="125.4219"
   gradientUnits="userSpaceOnUse"
   id="SVGID_42_">
				<stop
   id="stop659"
   style="stop-color:#FFFFFF"
   offset="0" />
				<stop
   id="stop661"
   style="stop-color:#F8EDDD"
   offset="0.0872" />
				<stop
   id="stop663"
   style="stop-color:#EED1AD"
   offset="0.21" />
				<stop
   id="stop665"
   style="stop-color:#E7BA87"
   offset="0.3361" />
				<stop
   id="stop667"
   style="stop-color:#E0A76B"
   offset="0.4633" />
				<stop
   id="stop669"
   style="stop-color:#DC9955"
   offset="0.592" />
				<stop
   id="stop671"
   style="stop-color:#D89046"
   offset="0.7228" />
				<stop
   id="stop673"
   style="stop-color:#D78A3B"
   offset="0.8571" />
				<stop
   id="stop675"
   style="stop-color:#D68837"
   offset="1" />
			</linearGradient>
			<path
   style="fill:url(#SVGID_42_)"
   id="path678"
   d="m 121.29,446.26 c -13.33,18.33 -26.66,36.65 -39.99,54.98 -0.83,-32.63 -1.67,-65.26 -2.5,-97.88 13.95,-16.31 27.91,-32.63 41.86,-48.94 0.22,30.61 0.42,61.23 0.63,91.84 z"
   class="st47" />
			<path
   id="path680"
   d="m 76.93,508.11 v 0 c -2.63,0 -4.79,-2.16 -4.79,-4.79 v -97.47 c 0,-2.63 2.16,-4.79 4.79,-4.79 v 0 c 2.63,0 4.79,2.16 4.79,4.79 v 97.47 c 0,2.63 -2.15,4.79 -4.79,4.79 z"
   class="st40" />
			<path
   id="path682"
   d="m 131.77,440.42 c -10.62,20.48 -21.24,40.96 -31.86,61.44 -0.64,-32.82 -1.28,-65.63 -1.92,-98.45 9.75,-16.53 19.49,-33.07 29.24,-49.6 1.51,28.86 3.02,57.74 4.54,86.61 z"
   class="st44" />
			<path
   id="path684"
   d="m 99.81,401.37 c 8.88,-14.97 17.75,-29.93 26.63,-44.9 5.4,0.17 10.79,0.35 16.19,0.52 -13.23,15.14 -26.45,30.28 -39.68,45.42 -0.14,-0.18 -0.31,-0.36 -0.52,-0.52 -1.01,-0.76 -2.25,-0.58 -2.62,-0.52 z"
   class="st45" />
			<linearGradient
   y2="444.07281"
   x2="117.2425"
   y1="356.80679"
   x1="143.4223"
   gradientUnits="userSpaceOnUse"
   id="SVGID_43_">
				<stop
   id="stop686"
   style="stop-color:#FFFFFF"
   offset="0" />
				<stop
   id="stop688"
   style="stop-color:#EFD5CB"
   offset="0.1179" />
				<stop
   id="stop690"
   style="stop-color:#E1AD9A"
   offset="0.2365" />
				<stop
   id="stop692"
   style="stop-color:#D78D77"
   offset="0.3584" />
				<stop
   id="stop694"
   style="stop-color:#CF745F"
   offset="0.4813" />
				<stop
   id="stop696"
   style="stop-color:#CA5E4C"
   offset="0.6058" />
				<stop
   id="stop698"
   style="stop-color:#C64A3F"
   offset="0.7322" />
				<stop
   id="stop700"
   style="stop-color:#C33A37"
   offset="0.8619" />
				<stop
   id="stop702"
   style="stop-color:#C23435"
   offset="1" />
			</linearGradient>
			<path
   style="fill:url(#SVGID_43_)"
   id="path705"
   d="m 144.26,446.26 c -13.33,18.33 -26.66,36.65 -39.99,54.98 -0.83,-32.63 -1.67,-65.26 -2.5,-97.88 13.95,-16.31 27.91,-32.63 41.86,-48.94 0.22,30.61 0.43,61.23 0.63,91.84 z"
   class="st48" />
			<path
   id="path707"
   d="m 99.9,508.11 v 0 c -2.63,0 -4.79,-2.16 -4.79,-4.79 v -97.47 c 0,-2.63 2.16,-4.79 4.79,-4.79 v 0 c 2.63,0 4.79,2.16 4.79,4.79 v 97.47 c 0,2.63 -2.15,4.79 -4.79,4.79 z"
   class="st40" />
			<path
   id="path709"
   d="m 154.74,440.42 c -10.62,20.48 -21.24,40.96 -31.86,61.44 -0.64,-32.82 -1.28,-65.63 -1.92,-98.45 9.75,-16.53 19.49,-33.07 29.24,-49.6 1.51,28.86 3.03,57.74 4.54,86.61 z"
   class="st44" />
			<path
   id="path711"
   d="m 122.79,401.37 c 8.88,-14.97 17.75,-29.93 26.63,-44.9 5.4,0.17 10.79,0.35 16.19,0.52 -13.23,15.14 -26.45,30.28 -39.68,45.42 -0.14,-0.18 -0.31,-0.36 -0.52,-0.52 -1.02,-0.76 -2.26,-0.58 -2.62,-0.52 z"
   class="st45" />
			<linearGradient
   y2="417.15121"
   x2="147.44659"
   y1="339.28311"
   x1="162.21471"
   gradientUnits="userSpaceOnUse"
   id="SVGID_44_">
				<stop
   id="stop713"
   style="stop-color:#FFFFFF"
   offset="0" />
				<stop
   id="stop715"
   style="stop-color:#459B4A"
   offset="1" />
			</linearGradient>
			<path
   style="fill:url(#SVGID_44_)"
   id="path718"
   d="m 167.24,446.26 c -13.33,18.33 -26.66,36.65 -39.99,54.98 -0.83,-32.63 -1.67,-65.26 -2.5,-97.88 13.95,-16.31 27.91,-32.63 41.86,-48.94 0.21,30.61 0.42,61.23 0.63,91.84 z"
   class="st49" />
			<path
   id="path720"
   d="m 122.88,508.11 v 0 c -2.63,0 -4.79,-2.16 -4.79,-4.79 v -97.47 c 0,-2.63 2.16,-4.79 4.79,-4.79 v 0 c 2.63,0 4.79,2.16 4.79,4.79 v 97.47 c 0,2.63 -2.16,4.79 -4.79,4.79 z"
   class="st40" />
		</g>
	</g></g>
</svg>
