<?xml version="1.0" encoding="UTF-8" standalone="no"?>
<svg
   xmlns:dc="http://purl.org/dc/elements/1.1/"
   xmlns:cc="http://creativecommons.org/ns#"
   xmlns:rdf="http://www.w3.org/1999/02/22-rdf-syntax-ns#"
   xmlns:svg="http://www.w3.org/2000/svg"
   xmlns="http://www.w3.org/2000/svg"
   xmlns:sodipodi="http://sodipodi.sourceforge.net/DTD/sodipodi-0.dtd"
   xmlns:inkscape="http://www.inkscape.org/namespaces/inkscape"
   inkscape:export-ydpi="73.849998"
   inkscape:export-xdpi="73.849998"
   inkscape:export-filename="C:\Users\Avell\Documents\Projetos\observatorio\web\assets\img\logoquadrado.png"
   height="520"
   width="520"
   inkscape:version="1.0 (4035a4fb49, 2020-05-01)"
   sodipodi:docname="LogoQuadrado.svg"
   xml:space="preserve"
   viewBox="0 0 519.99997 519.99999"
   y="0px"
   x="0px"
   id="Camada_1"
   version="1.1"><metadata
   id="metadata3824"><rdf:RDF><cc:Work
       rdf:about=""><dc:format>image/svg+xml</dc:format><dc:type
         rdf:resource="http://purl.org/dc/dcmitype/StillImage" /><dc:title></dc:title></cc:Work></rdf:RDF></metadata><defs
   id="defs3822" /><sodipodi:namedview
   inkscape:snap-page="false"
   inkscape:current-layer="Camada_1"
   inkscape:window-maximized="1"
   inkscape:window-y="-8"
   inkscape:window-x="-8"
   inkscape:cy="414.4628"
   inkscape:cx="350.80893"
   inkscape:zoom="0.71475831"
   showgrid="false"
   id="namedview3820"
   inkscape:window-height="1027"
   inkscape:window-width="2560"
   inkscape:pageshadow="2"
   inkscape:pageopacity="0"
   guidetolerance="10"
   gridtolerance="10"
   objecttolerance="10"
   borderopacity="1"
   bordercolor="#666666"
   pagecolor="#ffffff" />
<style
   id="style3097"
   type="text/css">
	.st0{fill:none;stroke:#070308;stroke-miterlimit:10;}
	.st1{fill:#2D3186;}
	.st2{fill:url(#SVGID_1_);}
	.st3{fill:url(#SVGID_2_);}
	.st4{fill:url(#SVGID_3_);}
	.st5{fill:url(#SVGID_4_);}
	.st6{fill:url(#SVGID_5_);}
	.st7{fill:url(#SVGID_6_);}
	.st8{fill:url(#SVGID_7_);}
	.st9{fill:url(#SVGID_8_);}
	.st10{fill:url(#SVGID_9_);}
	.st11{fill:url(#SVGID_10_);}
	.st12{fill:url(#SVGID_11_);}
	.st13{fill:url(#SVGID_12_);}
	.st14{fill:url(#SVGID_13_);}
	.st15{fill:url(#SVGID_14_);}
	.st16{fill:url(#SVGID_15_);}
	.st17{fill:url(#SVGID_16_);}
	.st18{fill:url(#SVGID_17_);}
	.st19{fill:url(#SVGID_18_);}
	.st20{fill:url(#SVGID_19_);}
	.st21{fill:url(#SVGID_20_);}
	.st22{fill:url(#SVGID_21_);}
	.st23{fill:url(#SVGID_22_);}
	.st24{fill:url(#SVGID_23_);}
	.st25{fill:url(#SVGID_24_);}
	.st26{fill:url(#SVGID_25_);}
	.st27{fill:url(#SVGID_26_);}
	.st28{fill:url(#SVGID_27_);}
	.st29{fill:url(#SVGID_28_);}
	.st30{fill:url(#SVGID_29_);}
	.st31{fill:url(#SVGID_30_);}
	.st32{fill:url(#SVGID_31_);}
	.st33{fill:url(#SVGID_32_);}
	.st34{fill:url(#SVGID_33_);}
	.st35{fill:url(#SVGID_34_);}
	.st36{fill:url(#SVGID_35_);}
	.st37{fill:url(#SVGID_36_);}
	.st38{fill:url(#SVGID_37_);}
	.st39{fill:url(#SVGID_38_);}
	.st40{fill:#333333;}
	.st41{fill:url(#SVGID_39_);}
	.st42{fill:url(#SVGID_40_);}
	.st43{fill:none;stroke:#1B8A42;stroke-width:3;stroke-linecap:round;stroke-linejoin:round;stroke-miterlimit:10;}
	.st44{fill:#FFFFFF;stroke:#333333;stroke-width:2;stroke-linecap:round;stroke-linejoin:round;stroke-miterlimit:10;}
	.st45{fill:#F4E6F0;}
	.st46{fill:url(#SVGID_41_);stroke:#333333;stroke-width:2;stroke-miterlimit:10;}
	.st47{fill:url(#SVGID_42_);stroke:#333333;stroke-width:2;stroke-linecap:round;stroke-linejoin:round;stroke-miterlimit:10;}
	.st48{fill:url(#SVGID_43_);stroke:#333333;stroke-width:2;stroke-linecap:round;stroke-linejoin:round;stroke-miterlimit:10;}
	.st49{fill:url(#SVGID_44_);stroke:#333333;stroke-width:2;stroke-linecap:round;stroke-linejoin:round;stroke-miterlimit:10;}
	.st50{fill:#818080;}
	.st51{fill:#818080;stroke:#070308;stroke-width:2;stroke-miterlimit:10;}
	.st52{fill:#B3B3B3;stroke:#070308;stroke-width:2;stroke-miterlimit:10;}
	.st53{fill:#FFFFFF;stroke:#070308;stroke-width:2;stroke-linecap:round;stroke-linejoin:round;stroke-miterlimit:10;}
	.st54{fill:#E7E6E5;stroke:#070308;stroke-width:2;stroke-miterlimit:10;}
	.st55{fill:#999999;stroke:#070308;stroke-width:2;stroke-linecap:round;stroke-linejoin:round;stroke-miterlimit:10;}
	.st56{fill:#666565;stroke:#070308;stroke-width:2;stroke-miterlimit:10;}
	.st57{fill:#818080;stroke:#070308;stroke-width:2;stroke-linecap:round;stroke-linejoin:round;stroke-miterlimit:10;}
	.st58{fill:#666565;stroke:#070308;stroke-width:2;stroke-linecap:round;stroke-linejoin:round;stroke-miterlimit:10;}
	.st59{fill:url(#SVGID_45_);}
	.st60{fill:url(#SVGID_46_);}
	.st61{fill:url(#SVGID_47_);}
	.st62{fill:url(#SVGID_48_);}
	.st63{fill:url(#SVGID_49_);}
	.st64{fill:url(#SVGID_50_);}
	.st65{fill:url(#SVGID_51_);}
	.st66{fill:url(#SVGID_52_);}
	.st67{fill:url(#SVGID_53_);}
	.st68{fill:url(#SVGID_54_);}
	.st69{fill:url(#SVGID_55_);}
	.st70{fill:url(#SVGID_56_);}
	.st71{fill:url(#SVGID_57_);}
	.st72{fill:url(#SVGID_58_);}
	.st73{fill:url(#SVGID_59_);}
	.st74{fill:url(#SVGID_60_);}
	.st75{fill:url(#SVGID_61_);}
	.st76{fill:url(#SVGID_62_);}
	.st77{fill:url(#SVGID_63_);}
	.st78{fill:url(#SVGID_64_);}
	.st79{fill:url(#SVGID_65_);}
	.st80{fill:url(#SVGID_66_);}
	.st81{fill:url(#SVGID_67_);}
	.st82{fill:url(#SVGID_68_);}
	.st83{fill:url(#SVGID_69_);}
	.st84{fill:url(#SVGID_70_);}
	.st85{fill:url(#SVGID_71_);}
	.st86{fill:url(#SVGID_72_);}
	.st87{fill:url(#SVGID_73_);}
	.st88{fill:url(#SVGID_74_);}
	.st89{fill:url(#SVGID_75_);}
	.st90{fill:url(#SVGID_76_);}
	.st91{fill:url(#SVGID_77_);}
	.st92{fill:url(#SVGID_78_);}
	.st93{fill:url(#SVGID_79_);}
	.st94{fill:url(#SVGID_80_);}
	.st95{fill:url(#SVGID_81_);}
	.st96{fill:url(#SVGID_82_);}
	.st97{fill:url(#SVGID_83_);}
	.st98{fill:url(#SVGID_84_);}
	.st99{fill:url(#SVGID_85_);stroke:#333333;stroke-width:2;stroke-miterlimit:10;}
	.st100{fill:url(#SVGID_86_);stroke:#333333;stroke-width:2;stroke-linecap:round;stroke-linejoin:round;stroke-miterlimit:10;}
	.st101{fill:url(#SVGID_87_);stroke:#333333;stroke-width:2;stroke-linecap:round;stroke-linejoin:round;stroke-miterlimit:10;}
	.st102{fill:url(#SVGID_88_);stroke:#333333;stroke-width:2;stroke-linecap:round;stroke-linejoin:round;stroke-miterlimit:10;}
</style>


<g
   transform="translate(-41.83,-167.02996)"
   id="g4208"><g
     id="g3669">
	<linearGradient
   id="SVGID_1_"
   gradientUnits="userSpaceOnUse"
   x1="152.4639"
   y1="533.72809"
   x2="154.9653"
   y2="572.49982">
		<stop
   offset="0"
   style="stop-color:#C9DCEE"
   id="stop3099" />
		<stop
   offset="0.1112"
   style="stop-color:#C0D3E9"
   id="stop3101" />
		<stop
   offset="0.2961"
   style="stop-color:#A8BCD9"
   id="stop3103" />
		<stop
   offset="0.532"
   style="stop-color:#8599BF"
   id="stop3105" />
		<stop
   offset="0.8067"
   style="stop-color:#5470A0"
   id="stop3107" />
		<stop
   offset="0.9944"
   style="stop-color:#0D578D"
   id="stop3109" />
	</linearGradient>
	<path
   style="fill:url(#SVGID_1_)"
   class="st2"
   d="m 165.04,593.37 c 0,0.92 -0.12,1.79 -0.35,2.61 -0.23,0.83 -0.57,1.6 -1,2.31 -0.43,0.71 -0.95,1.36 -1.55,1.94 -0.6,0.58 -1.27,1.07 -2,1.48 -0.73,0.41 -1.52,0.72 -2.37,0.94 -0.85,0.22 -1.73,0.33 -2.63,0.33 h -6.4 c -0.16,0 -0.29,-0.03 -0.42,-0.1 -0.12,-0.07 -0.18,-0.22 -0.18,-0.44 v -18.13 c 0,-0.18 0.05,-0.33 0.15,-0.44 0.1,-0.11 0.25,-0.17 0.45,-0.17 h 6.4 c 0.91,0 1.78,0.11 2.63,0.34 0.84,0.22 1.63,0.54 2.36,0.96 0.73,0.41 1.4,0.91 2,1.49 0.61,0.58 1.12,1.23 1.55,1.95 0.43,0.72 0.76,1.49 1,2.32 0.24,0.83 0.36,1.7 0.36,2.61 z m -11.87,-5.01 v 9.98 h 1.09 c 0.2,0 0.39,-0.01 0.58,-0.02 0.19,-0.01 0.38,-0.03 0.57,-0.05 0.65,-0.05 1.25,-0.21 1.82,-0.47 0.56,-0.26 1.05,-0.61 1.47,-1.04 0.42,-0.43 0.75,-0.93 0.99,-1.51 0.24,-0.58 0.36,-1.21 0.36,-1.89 0,-0.73 -0.14,-1.39 -0.41,-2 -0.27,-0.61 -0.64,-1.14 -1.11,-1.58 -0.47,-0.45 -1.01,-0.79 -1.64,-1.04 -0.63,-0.25 -1.3,-0.37 -2,-0.37 h -1.72 z"
   id="path3112" />
	<linearGradient
   id="SVGID_2_"
   gradientUnits="userSpaceOnUse"
   x1="170.2316"
   y1="532.58179"
   x2="172.733"
   y2="571.35352">
		<stop
   offset="0"
   style="stop-color:#C9DCEE"
   id="stop3114" />
		<stop
   offset="0.1112"
   style="stop-color:#C0D3E9"
   id="stop3116" />
		<stop
   offset="0.2961"
   style="stop-color:#A8BCD9"
   id="stop3118" />
		<stop
   offset="0.532"
   style="stop-color:#8599BF"
   id="stop3120" />
		<stop
   offset="0.8067"
   style="stop-color:#5470A0"
   id="stop3122" />
		<stop
   offset="0.9944"
   style="stop-color:#0D578D"
   id="stop3124" />
	</linearGradient>
	<path
   style="fill:url(#SVGID_2_)"
   class="st3"
   d="m 172.39,584.22 c 0.01,-0.05 0.04,-0.11 0.08,-0.17 0.05,-0.06 0.11,-0.12 0.18,-0.17 0.07,-0.05 0.14,-0.09 0.22,-0.12 0.08,-0.03 0.15,-0.05 0.22,-0.05 h 3.32 c 0.15,0 0.27,0.05 0.38,0.14 0.1,0.09 0.18,0.17 0.23,0.24 l 0.32,0.74 6.81,17.57 c 0.07,0.17 0.06,0.31 -0.04,0.42 -0.1,0.11 -0.26,0.16 -0.49,0.16 h -3.72 c -0.2,0 -0.35,-0.04 -0.46,-0.11 -0.11,-0.07 -0.19,-0.2 -0.25,-0.37 -0.17,-0.44 -0.34,-0.88 -0.51,-1.32 -0.16,-0.44 -0.33,-0.88 -0.49,-1.32 h -6.89 c -0.16,0.44 -0.33,0.88 -0.5,1.32 -0.17,0.44 -0.34,0.88 -0.5,1.32 -0.11,0.32 -0.33,0.48 -0.66,0.48 h -3.83 c -0.16,0 -0.3,-0.04 -0.41,-0.13 -0.11,-0.09 -0.13,-0.22 -0.06,-0.39 z m 2.36,5.56 c -0.16,0.44 -0.33,0.92 -0.5,1.43 -0.17,0.51 -0.34,1.02 -0.5,1.54 -0.16,0.52 -0.33,1.03 -0.5,1.54 -0.17,0.51 -0.34,0.98 -0.5,1.42 h 3.98 z"
   id="path3127" />
	<linearGradient
   id="SVGID_3_"
   gradientUnits="userSpaceOnUse"
   x1="197.8573"
   y1="530.7995"
   x2="200.3587"
   y2="569.57123">
		<stop
   offset="0"
   style="stop-color:#C9DCEE"
   id="stop3129" />
		<stop
   offset="0.1112"
   style="stop-color:#C0D3E9"
   id="stop3131" />
		<stop
   offset="0.2961"
   style="stop-color:#A8BCD9"
   id="stop3133" />
		<stop
   offset="0.532"
   style="stop-color:#8599BF"
   id="stop3135" />
		<stop
   offset="0.8067"
   style="stop-color:#5470A0"
   id="stop3137" />
		<stop
   offset="0.9944"
   style="stop-color:#0D578D"
   id="stop3139" />
	</linearGradient>
	<path
   style="fill:url(#SVGID_3_)"
   class="st4"
   d="m 194.87,584.31 c 0,-0.18 0.05,-0.33 0.15,-0.43 0.1,-0.11 0.24,-0.16 0.42,-0.16 h 12.87 c 0.19,0 0.34,0.06 0.44,0.17 0.1,0.11 0.16,0.26 0.16,0.45 v 3.21 c 0,0.15 -0.05,0.29 -0.16,0.42 -0.1,0.13 -0.26,0.2 -0.45,0.2 h -8.41 v 3.22 h 6.49 c 0.16,0 0.3,0.04 0.41,0.12 0.11,0.08 0.16,0.21 0.16,0.39 v 2.8 c 0,0.12 -0.05,0.24 -0.14,0.35 -0.1,0.11 -0.23,0.17 -0.42,0.17 h -6.5 v 3.32 h 8.72 c 0.39,0 0.58,0.2 0.58,0.6 v 3.26 c 0,0.09 -0.03,0.16 -0.1,0.23 -0.03,0.24 -0.21,0.36 -0.53,0.36 h -13.12 c -0.17,0 -0.31,-0.05 -0.41,-0.14 -0.1,-0.09 -0.16,-0.23 -0.16,-0.42 z"
   id="path3142" />
	<linearGradient
   id="SVGID_4_"
   gradientUnits="userSpaceOnUse"
   x1="216.23579"
   y1="529.61377"
   x2="218.7372"
   y2="568.3855">
		<stop
   offset="0"
   style="stop-color:#C9DCEE"
   id="stop3144" />
		<stop
   offset="0.1112"
   style="stop-color:#C0D3E9"
   id="stop3146" />
		<stop
   offset="0.2961"
   style="stop-color:#A8BCD9"
   id="stop3148" />
		<stop
   offset="0.532"
   style="stop-color:#8599BF"
   id="stop3150" />
		<stop
   offset="0.8067"
   style="stop-color:#5470A0"
   id="stop3152" />
		<stop
   offset="0.9944"
   style="stop-color:#0D578D"
   id="stop3154" />
	</linearGradient>
	<path
   style="fill:url(#SVGID_4_)"
   class="st5"
   d="m 229.08,593.37 c 0,0.92 -0.12,1.79 -0.35,2.61 -0.23,0.83 -0.57,1.6 -1,2.31 -0.43,0.71 -0.95,1.36 -1.55,1.94 -0.6,0.58 -1.27,1.07 -2,1.48 -0.73,0.41 -1.52,0.72 -2.37,0.94 -0.85,0.22 -1.73,0.33 -2.63,0.33 h -6.4 c -0.16,0 -0.29,-0.03 -0.42,-0.1 -0.12,-0.07 -0.18,-0.22 -0.18,-0.44 v -18.13 c 0,-0.18 0.05,-0.33 0.15,-0.44 0.1,-0.11 0.25,-0.17 0.45,-0.17 h 6.4 c 0.91,0 1.78,0.11 2.63,0.34 0.84,0.22 1.63,0.54 2.36,0.96 0.73,0.41 1.4,0.91 2,1.49 0.61,0.58 1.12,1.23 1.55,1.95 0.43,0.72 0.76,1.49 1,2.32 0.24,0.83 0.36,1.7 0.36,2.61 z m -11.87,-5.01 v 9.98 h 1.09 c 0.2,0 0.39,-0.01 0.58,-0.02 0.19,-0.01 0.38,-0.03 0.57,-0.05 0.65,-0.05 1.25,-0.21 1.82,-0.47 0.56,-0.26 1.05,-0.61 1.47,-1.04 0.42,-0.43 0.75,-0.93 0.99,-1.51 0.24,-0.58 0.36,-1.21 0.36,-1.89 0,-0.73 -0.14,-1.39 -0.41,-2 -0.27,-0.61 -0.64,-1.14 -1.11,-1.58 -0.47,-0.45 -1.01,-0.79 -1.64,-1.04 -0.63,-0.25 -1.3,-0.37 -2,-0.37 h -1.72 z"
   id="path3157" />
	<linearGradient
   id="SVGID_5_"
   gradientUnits="userSpaceOnUse"
   x1="236.63029"
   y1="528.29797"
   x2="239.1317"
   y2="567.06982">
		<stop
   offset="0"
   style="stop-color:#C9DCEE"
   id="stop3159" />
		<stop
   offset="0.1112"
   style="stop-color:#C0D3E9"
   id="stop3161" />
		<stop
   offset="0.2961"
   style="stop-color:#A8BCD9"
   id="stop3163" />
		<stop
   offset="0.532"
   style="stop-color:#8599BF"
   id="stop3165" />
		<stop
   offset="0.8067"
   style="stop-color:#5470A0"
   id="stop3167" />
		<stop
   offset="0.9944"
   style="stop-color:#0D578D"
   id="stop3169" />
	</linearGradient>
	<path
   style="fill:url(#SVGID_5_)"
   class="st6"
   d="m 237.42,595.3 c 0,0.64 0.09,1.18 0.27,1.63 0.18,0.45 0.41,0.81 0.7,1.09 0.29,0.28 0.63,0.49 1.01,0.62 0.39,0.13 0.79,0.19 1.2,0.19 0.43,0 0.84,-0.08 1.23,-0.23 0.39,-0.15 0.72,-0.38 1.01,-0.68 0.29,-0.3 0.52,-0.67 0.69,-1.11 0.17,-0.44 0.25,-0.95 0.25,-1.52 v -11.01 c 0,-0.16 0.05,-0.29 0.16,-0.4 0.11,-0.11 0.25,-0.17 0.43,-0.17 h 3.79 c 0.2,0 0.35,0.06 0.47,0.17 0.11,0.12 0.17,0.25 0.17,0.4 v 10.94 c 0,1.51 -0.22,2.79 -0.67,3.81 -0.45,1.03 -1.04,1.86 -1.8,2.48 -0.75,0.63 -1.62,1.08 -2.61,1.35 -0.99,0.27 -2.03,0.41 -3.12,0.41 -1.09,0 -2.13,-0.14 -3.13,-0.42 -1,-0.28 -1.87,-0.74 -2.62,-1.38 -0.75,-0.64 -1.35,-1.47 -1.8,-2.49 -0.45,-1.03 -0.67,-2.28 -0.67,-3.77 v -10.94 c 0,-0.15 0.05,-0.28 0.15,-0.4 0.1,-0.12 0.22,-0.17 0.37,-0.17 h 3.88 c 0.13,0 0.27,0.05 0.41,0.16 0.14,0.11 0.21,0.24 0.21,0.41 v 11.03 z"
   id="path3172" />
	<linearGradient
   id="SVGID_6_"
   gradientUnits="userSpaceOnUse"
   x1="255.7002"
   y1="527.06769"
   x2="258.2016"
   y2="565.83942">
		<stop
   offset="0"
   style="stop-color:#C9DCEE"
   id="stop3174" />
		<stop
   offset="0.1112"
   style="stop-color:#C0D3E9"
   id="stop3176" />
		<stop
   offset="0.2961"
   style="stop-color:#A8BCD9"
   id="stop3178" />
		<stop
   offset="0.532"
   style="stop-color:#8599BF"
   id="stop3180" />
		<stop
   offset="0.8067"
   style="stop-color:#5470A0"
   id="stop3182" />
		<stop
   offset="0.9944"
   style="stop-color:#0D578D"
   id="stop3184" />
	</linearGradient>
	<path
   style="fill:url(#SVGID_6_)"
   class="st7"
   d="m 267.28,585.12 c 0.15,0.09 0.26,0.2 0.32,0.34 0.07,0.14 0.06,0.3 -0.04,0.49 l -2.19,3.11 c -0.1,0.15 -0.2,0.23 -0.31,0.25 -0.11,0.02 -0.24,-0.01 -0.4,-0.11 -0.42,-0.32 -0.89,-0.57 -1.4,-0.74 -0.51,-0.17 -1.05,-0.26 -1.62,-0.26 -0.71,0 -1.36,0.13 -1.96,0.4 -0.6,0.27 -1.11,0.64 -1.54,1.1 -0.43,0.47 -0.77,1.01 -1.01,1.63 -0.24,0.62 -0.36,1.29 -0.36,2 0,0.71 0.12,1.37 0.36,1.99 0.24,0.62 0.58,1.16 1.01,1.62 0.43,0.46 0.95,0.83 1.54,1.1 0.6,0.27 1.25,0.4 1.96,0.4 0.57,0 1.12,-0.09 1.64,-0.27 0.52,-0.18 0.99,-0.43 1.41,-0.75 0.16,-0.1 0.29,-0.13 0.39,-0.12 0.1,0.02 0.21,0.1 0.31,0.23 l 2.22,3.19 c 0.1,0.19 0.11,0.35 0.04,0.48 -0.07,0.13 -0.18,0.24 -0.32,0.32 -0.81,0.54 -1.69,0.97 -2.63,1.27 -0.94,0.3 -1.93,0.45 -2.97,0.45 -0.92,0 -1.8,-0.12 -2.64,-0.35 -0.84,-0.23 -1.63,-0.57 -2.37,-1 -0.74,-0.43 -1.4,-0.95 -2,-1.55 -0.6,-0.6 -1.12,-1.27 -1.55,-2 -0.43,-0.73 -0.77,-1.52 -1,-2.36 -0.23,-0.84 -0.35,-1.72 -0.35,-2.64 0,-0.92 0.12,-1.8 0.35,-2.64 0.23,-0.84 0.57,-1.64 1,-2.37 0.43,-0.74 0.95,-1.41 1.55,-2.02 0.6,-0.61 1.27,-1.12 2,-1.55 0.74,-0.43 1.52,-0.76 2.37,-1 0.84,-0.24 1.72,-0.36 2.64,-0.36 1.04,0 2.02,0.15 2.94,0.43 0.93,0.33 1.8,0.74 2.61,1.29 z"
   id="path3187" />
	<linearGradient
   id="SVGID_7_"
   gradientUnits="userSpaceOnUse"
   x1="273.79221"
   y1="525.90051"
   x2="276.29361"
   y2="564.67218">
		<stop
   offset="0"
   style="stop-color:#C9DCEE"
   id="stop3189" />
		<stop
   offset="0.1112"
   style="stop-color:#C0D3E9"
   id="stop3191" />
		<stop
   offset="0.2961"
   style="stop-color:#A8BCD9"
   id="stop3193" />
		<stop
   offset="0.532"
   style="stop-color:#8599BF"
   id="stop3195" />
		<stop
   offset="0.8067"
   style="stop-color:#5470A0"
   id="stop3197" />
		<stop
   offset="0.9944"
   style="stop-color:#0D578D"
   id="stop3199" />
	</linearGradient>
	<path
   style="fill:url(#SVGID_7_)"
   class="st8"
   d="m 276.38,584.22 c 0.01,-0.05 0.04,-0.11 0.08,-0.17 0.05,-0.06 0.11,-0.12 0.18,-0.17 0.07,-0.05 0.14,-0.09 0.22,-0.12 0.08,-0.03 0.15,-0.05 0.22,-0.05 h 3.32 c 0.15,0 0.27,0.05 0.38,0.14 0.1,0.09 0.18,0.17 0.23,0.24 l 0.32,0.74 6.81,17.57 c 0.07,0.17 0.06,0.31 -0.04,0.42 -0.1,0.11 -0.26,0.16 -0.49,0.16 h -3.72 c -0.2,0 -0.35,-0.04 -0.46,-0.11 -0.11,-0.07 -0.19,-0.2 -0.25,-0.37 -0.17,-0.44 -0.34,-0.88 -0.51,-1.32 -0.16,-0.44 -0.33,-0.88 -0.49,-1.32 h -6.89 c -0.16,0.44 -0.33,0.88 -0.5,1.32 -0.17,0.44 -0.34,0.88 -0.5,1.32 -0.11,0.32 -0.33,0.48 -0.66,0.48 h -3.83 c -0.16,0 -0.3,-0.04 -0.41,-0.13 -0.11,-0.09 -0.13,-0.22 -0.06,-0.39 z m 2.36,5.56 c -0.16,0.44 -0.33,0.92 -0.5,1.43 -0.17,0.51 -0.34,1.02 -0.5,1.54 -0.16,0.52 -0.33,1.03 -0.5,1.54 -0.17,0.51 -0.34,0.98 -0.5,1.42 h 3.98 z"
   id="path3202" />
	<linearGradient
   id="SVGID_8_"
   gradientUnits="userSpaceOnUse"
   x1="292.1416"
   y1="524.71661"
   x2="294.64301"
   y2="563.48828">
		<stop
   offset="0"
   style="stop-color:#C9DCEE"
   id="stop3204" />
		<stop
   offset="0.1112"
   style="stop-color:#C0D3E9"
   id="stop3206" />
		<stop
   offset="0.2961"
   style="stop-color:#A8BCD9"
   id="stop3208" />
		<stop
   offset="0.532"
   style="stop-color:#8599BF"
   id="stop3210" />
		<stop
   offset="0.8067"
   style="stop-color:#5470A0"
   id="stop3212" />
		<stop
   offset="0.9944"
   style="stop-color:#0D578D"
   id="stop3214" />
	</linearGradient>
	<path
   style="fill:url(#SVGID_8_)"
   class="st9"
   d="m 303.88,585.12 c 0.15,0.09 0.26,0.2 0.32,0.34 0.07,0.14 0.06,0.3 -0.04,0.49 l -2.19,3.11 c -0.1,0.15 -0.2,0.23 -0.31,0.25 -0.11,0.02 -0.24,-0.01 -0.4,-0.11 -0.42,-0.32 -0.89,-0.57 -1.4,-0.74 -0.51,-0.17 -1.05,-0.26 -1.62,-0.26 -0.71,0 -1.36,0.13 -1.96,0.4 -0.6,0.27 -1.11,0.64 -1.54,1.1 -0.43,0.47 -0.77,1.01 -1.01,1.63 -0.24,0.62 -0.36,1.29 -0.36,2 0,0.71 0.12,1.37 0.36,1.99 0.24,0.62 0.58,1.16 1.01,1.62 0.43,0.46 0.95,0.83 1.54,1.1 0.6,0.27 1.25,0.4 1.96,0.4 0.57,0 1.12,-0.09 1.64,-0.27 0.52,-0.18 0.99,-0.43 1.41,-0.75 0.16,-0.1 0.29,-0.13 0.39,-0.12 0.1,0.02 0.21,0.1 0.31,0.23 l 2.22,3.19 c 0.1,0.19 0.11,0.35 0.04,0.48 -0.07,0.13 -0.18,0.24 -0.32,0.32 -0.81,0.54 -1.69,0.97 -2.63,1.27 -0.94,0.3 -1.93,0.45 -2.97,0.45 -0.92,0 -1.8,-0.12 -2.64,-0.35 -0.84,-0.23 -1.63,-0.57 -2.37,-1 -0.74,-0.43 -1.4,-0.95 -2,-1.55 -0.6,-0.6 -1.12,-1.27 -1.55,-2 -0.43,-0.73 -0.77,-1.52 -1,-2.36 -0.23,-0.84 -0.35,-1.72 -0.35,-2.64 0,-0.92 0.12,-1.8 0.35,-2.64 0.23,-0.84 0.57,-1.64 1,-2.37 0.43,-0.74 0.95,-1.41 1.55,-2.02 0.6,-0.61 1.27,-1.12 2,-1.55 0.73,-0.43 1.52,-0.76 2.37,-1 0.84,-0.24 1.72,-0.36 2.64,-0.36 1.04,0 2.02,0.15 2.94,0.43 0.93,0.33 1.79,0.74 2.61,1.29 z m -3.81,17.87 c -0.19,0.13 -0.29,0.28 -0.29,0.45 0,0.14 0.07,0.27 0.2,0.38 0.13,0.11 0.3,0.24 0.49,0.36 0.19,0.13 0.41,0.26 0.64,0.4 0.23,0.14 0.45,0.31 0.64,0.49 0.19,0.19 0.36,0.4 0.49,0.64 0.13,0.24 0.2,0.52 0.2,0.84 0,0.31 -0.11,0.64 -0.32,1 -0.21,0.35 -0.51,0.7 -0.89,1.05 -0.39,0.35 -0.85,0.67 -1.38,0.97 -0.54,0.3 -1.13,0.55 -1.79,0.75 H 298 c -0.13,0 -0.27,-0.1 -0.43,-0.29 -0.16,-0.19 -0.3,-0.41 -0.44,-0.65 -0.14,-0.24 -0.26,-0.48 -0.35,-0.71 -0.1,-0.23 -0.14,-0.38 -0.14,-0.46 0,-0.14 0.05,-0.23 0.14,-0.29 1.48,-0.37 2.22,-0.83 2.22,-1.38 0,-0.19 -0.06,-0.36 -0.19,-0.51 -0.13,-0.15 -0.29,-0.29 -0.49,-0.42 -0.19,-0.13 -0.4,-0.27 -0.63,-0.4 -0.22,-0.13 -0.43,-0.28 -0.63,-0.43 -0.19,-0.16 -0.36,-0.33 -0.49,-0.52 -0.13,-0.19 -0.19,-0.41 -0.19,-0.66 0,-0.1 0.01,-0.19 0.04,-0.29 0.03,-0.1 0.1,-0.21 0.22,-0.33 h 3.43 z"
   id="path3217" />
	<linearGradient
   id="SVGID_9_"
   gradientUnits="userSpaceOnUse"
   x1="310.23318"
   y1="523.54938"
   x2="312.73459"
   y2="562.32123">
		<stop
   offset="0"
   style="stop-color:#C9DCEE"
   id="stop3219" />
		<stop
   offset="0.1112"
   style="stop-color:#C0D3E9"
   id="stop3221" />
		<stop
   offset="0.2961"
   style="stop-color:#A8BCD9"
   id="stop3223" />
		<stop
   offset="0.532"
   style="stop-color:#8599BF"
   id="stop3225" />
		<stop
   offset="0.8067"
   style="stop-color:#5470A0"
   id="stop3227" />
		<stop
   offset="0.9944"
   style="stop-color:#0D578D"
   id="stop3229" />
	</linearGradient>
	<path
   style="fill:url(#SVGID_9_)"
   class="st10"
   d="m 312.97,584.22 c 0.01,-0.05 0.04,-0.11 0.08,-0.17 0.05,-0.06 0.11,-0.12 0.18,-0.17 0.07,-0.05 0.14,-0.09 0.22,-0.12 0.08,-0.03 0.15,-0.05 0.22,-0.05 h 3.32 c 0.15,0 0.27,0.05 0.38,0.14 0.1,0.09 0.18,0.17 0.23,0.24 l 0.32,0.74 6.81,17.57 c 0.07,0.17 0.06,0.31 -0.04,0.42 -0.1,0.11 -0.26,0.16 -0.49,0.16 h -3.72 c -0.2,0 -0.35,-0.04 -0.46,-0.11 -0.11,-0.07 -0.19,-0.2 -0.25,-0.37 -0.17,-0.44 -0.34,-0.88 -0.51,-1.32 -0.16,-0.44 -0.33,-0.88 -0.49,-1.32 h -6.89 c -0.16,0.44 -0.33,0.88 -0.5,1.32 -0.17,0.44 -0.34,0.88 -0.5,1.32 -0.11,0.32 -0.33,0.48 -0.66,0.48 h -3.83 c -0.16,0 -0.3,-0.04 -0.41,-0.13 -0.11,-0.09 -0.13,-0.22 -0.06,-0.39 z m -2.17,-4.6 c 0.16,-0.23 0.36,-0.45 0.58,-0.64 0.22,-0.19 0.47,-0.35 0.73,-0.49 0.26,-0.13 0.53,-0.24 0.8,-0.31 0.28,-0.07 0.55,-0.1 0.83,-0.1 0.16,0 0.32,0.02 0.51,0.05 0.18,0.03 0.38,0.1 0.6,0.18 0.22,0.09 0.46,0.2 0.73,0.34 0.27,0.14 0.57,0.32 0.9,0.54 0.1,0.06 0.19,0.11 0.28,0.14 0.09,0.03 0.19,0.05 0.31,0.05 0.18,0 0.33,-0.04 0.45,-0.11 0.12,-0.07 0.23,-0.17 0.34,-0.28 l 0.43,-0.52 c 0.08,-0.11 0.16,-0.17 0.25,-0.18 0.09,0 0.18,0.03 0.25,0.11 l 1.34,1.17 c 0.1,0.1 0.16,0.18 0.19,0.25 0.03,0.07 0,0.16 -0.08,0.27 l -0.39,0.51 c -0.35,0.48 -0.77,0.85 -1.28,1.12 -0.51,0.27 -1.05,0.4 -1.62,0.4 -0.34,0 -0.68,-0.06 -1.02,-0.17 -0.35,-0.12 -0.68,-0.27 -1,-0.47 l -0.71,-0.45 c -0.1,-0.06 -0.19,-0.11 -0.27,-0.14 -0.09,-0.03 -0.19,-0.05 -0.31,-0.05 -0.17,0 -0.32,0.03 -0.45,0.1 -0.13,0.07 -0.24,0.16 -0.33,0.27 l -0.4,0.52 c -0.05,0.09 -0.14,0.14 -0.27,0.15 -0.13,0.01 -0.23,-0.02 -0.31,-0.1 l -1.34,-1.13 c -0.04,-0.04 -0.08,-0.08 -0.11,-0.12 -0.03,-0.04 -0.05,-0.1 -0.05,-0.18 0,-0.01 0,-0.03 0.01,-0.05 0,-0.03 0.02,-0.07 0.05,-0.12 0.03,-0.05 0.08,-0.12 0.14,-0.21 0.03,-0.09 0.11,-0.21 0.22,-0.35 z m 4.53,10.16 c -0.16,0.44 -0.33,0.92 -0.5,1.43 -0.17,0.51 -0.34,1.02 -0.5,1.54 -0.16,0.52 -0.33,1.03 -0.5,1.54 -0.17,0.51 -0.34,0.98 -0.5,1.42 h 3.98 z"
   id="path3232" />
	<linearGradient
   id="SVGID_10_"
   gradientUnits="userSpaceOnUse"
   x1="330.2095"
   y1="522.26062"
   x2="332.71091"
   y2="561.03229">
		<stop
   offset="0"
   style="stop-color:#C9DCEE"
   id="stop3234" />
		<stop
   offset="0.1112"
   style="stop-color:#C0D3E9"
   id="stop3236" />
		<stop
   offset="0.2961"
   style="stop-color:#A8BCD9"
   id="stop3238" />
		<stop
   offset="0.532"
   style="stop-color:#8599BF"
   id="stop3240" />
		<stop
   offset="0.8067"
   style="stop-color:#5470A0"
   id="stop3242" />
		<stop
   offset="0.9944"
   style="stop-color:#0D578D"
   id="stop3244" />
	</linearGradient>
	<path
   style="fill:url(#SVGID_10_)"
   class="st11"
   d="m 324.87,593.37 c 0,-0.92 0.12,-1.8 0.35,-2.64 0.23,-0.84 0.57,-1.64 1,-2.37 0.43,-0.74 0.95,-1.41 1.55,-2.02 0.6,-0.61 1.27,-1.12 2.01,-1.55 0.74,-0.43 1.53,-0.76 2.37,-1 0.84,-0.24 1.72,-0.36 2.64,-0.36 0.91,0 1.79,0.12 2.64,0.36 0.85,0.24 1.64,0.57 2.38,1 0.74,0.43 1.41,0.95 2.01,1.55 0.61,0.61 1.12,1.28 1.55,2.02 0.43,0.74 0.76,1.53 1,2.37 0.24,0.84 0.36,1.72 0.36,2.64 0,0.92 -0.12,1.8 -0.36,2.64 -0.24,0.84 -0.57,1.63 -1,2.36 -0.43,0.73 -0.95,1.4 -1.55,2 -0.61,0.6 -1.28,1.12 -2.01,1.55 -0.74,0.43 -1.53,0.77 -2.38,1 -0.85,0.23 -1.73,0.35 -2.64,0.35 -0.92,0 -1.8,-0.12 -2.64,-0.35 -0.84,-0.23 -1.63,-0.57 -2.37,-1 -0.74,-0.43 -1.4,-0.95 -2.01,-1.55 -0.61,-0.6 -1.12,-1.27 -1.55,-2 -0.43,-0.73 -0.77,-1.52 -1,-2.36 -0.23,-0.84 -0.35,-1.72 -0.35,-2.64 z m 5.02,-0.01 c 0,0.72 0.12,1.39 0.36,2.01 0.24,0.62 0.58,1.17 1.02,1.63 0.44,0.46 0.95,0.83 1.55,1.09 0.6,0.26 1.25,0.4 1.97,0.4 0.72,0 1.38,-0.13 1.98,-0.4 0.6,-0.27 1.12,-0.63 1.55,-1.09 0.44,-0.46 0.78,-1.01 1.02,-1.63 0.24,-0.62 0.36,-1.29 0.36,-2.01 0,-0.71 -0.12,-1.38 -0.36,-2 -0.24,-0.62 -0.58,-1.17 -1.02,-1.64 -0.44,-0.47 -0.95,-0.83 -1.55,-1.1 -0.6,-0.27 -1.26,-0.4 -1.98,-0.4 -0.72,0 -1.37,0.13 -1.97,0.4 -0.6,0.27 -1.11,0.64 -1.55,1.1 -0.44,0.47 -0.78,1.01 -1.02,1.64 -0.24,0.63 -0.36,1.29 -0.36,2 z"
   id="path3247" />
	<linearGradient
   id="SVGID_11_"
   gradientUnits="userSpaceOnUse"
   x1="358.7037"
   y1="520.4223"
   x2="361.20511"
   y2="559.19397">
		<stop
   offset="0"
   style="stop-color:#C9DCEE"
   id="stop3249" />
		<stop
   offset="0.1112"
   style="stop-color:#C0D3E9"
   id="stop3251" />
		<stop
   offset="0.2961"
   style="stop-color:#A8BCD9"
   id="stop3253" />
		<stop
   offset="0.532"
   style="stop-color:#8599BF"
   id="stop3255" />
		<stop
   offset="0.8067"
   style="stop-color:#5470A0"
   id="stop3257" />
		<stop
   offset="0.9944"
   style="stop-color:#0D578D"
   id="stop3259" />
	</linearGradient>
	<path
   style="fill:url(#SVGID_11_)"
   class="st12"
   d="m 356.01,584.31 c 0,-0.18 0.05,-0.33 0.15,-0.43 0.1,-0.11 0.24,-0.16 0.42,-0.16 h 8.62 c 0.76,0 1.48,0.14 2.15,0.43 0.67,0.29 1.27,0.69 1.77,1.19 0.51,0.51 0.91,1.1 1.2,1.78 0.29,0.68 0.44,1.41 0.44,2.19 0,0.65 -0.1,1.25 -0.3,1.81 -0.2,0.56 -0.49,1.06 -0.86,1.5 0.62,0.57 1.12,1.25 1.48,2.04 0.36,0.79 0.54,1.62 0.54,2.5 0,0.79 -0.15,1.53 -0.45,2.24 -0.3,0.7 -0.71,1.32 -1.23,1.86 -0.51,0.53 -1.12,0.95 -1.8,1.27 -0.69,0.31 -1.41,0.47 -2.17,0.47 h -9.38 c -0.17,0 -0.31,-0.05 -0.42,-0.14 -0.1,-0.09 -0.16,-0.23 -0.16,-0.42 z m 9.78,5.12 c 0,-0.26 -0.05,-0.5 -0.14,-0.73 -0.1,-0.22 -0.23,-0.42 -0.4,-0.6 -0.17,-0.17 -0.38,-0.31 -0.62,-0.41 -0.24,-0.1 -0.51,-0.15 -0.79,-0.15 h -2.78 v 3.76 h 2.75 c 0.29,0 0.57,-0.05 0.81,-0.14 0.24,-0.09 0.46,-0.22 0.63,-0.39 0.17,-0.17 0.31,-0.37 0.41,-0.6 0.07,-0.21 0.13,-0.47 0.13,-0.74 z m 0.68,7.54 c 0,-0.26 -0.05,-0.52 -0.15,-0.78 -0.1,-0.26 -0.24,-0.49 -0.42,-0.69 -0.18,-0.2 -0.39,-0.37 -0.64,-0.5 -0.25,-0.13 -0.51,-0.19 -0.8,-0.19 h -3.43 v 4.33 h 3.43 c 0.29,0 0.55,-0.06 0.79,-0.18 0.24,-0.12 0.46,-0.28 0.64,-0.49 0.18,-0.2 0.32,-0.43 0.42,-0.69 0.11,-0.27 0.16,-0.54 0.16,-0.81 z"
   id="path3262" />
	<linearGradient
   id="SVGID_12_"
   gradientUnits="userSpaceOnUse"
   x1="376.82251"
   y1="519.25342"
   x2="379.32391"
   y2="558.02509">
		<stop
   offset="0"
   style="stop-color:#C9DCEE"
   id="stop3264" />
		<stop
   offset="0.1112"
   style="stop-color:#C0D3E9"
   id="stop3266" />
		<stop
   offset="0.2961"
   style="stop-color:#A8BCD9"
   id="stop3268" />
		<stop
   offset="0.532"
   style="stop-color:#8599BF"
   id="stop3270" />
		<stop
   offset="0.8067"
   style="stop-color:#5470A0"
   id="stop3272" />
		<stop
   offset="0.9944"
   style="stop-color:#0D578D"
   id="stop3274" />
	</linearGradient>
	<path
   style="fill:url(#SVGID_12_)"
   class="st13"
   d="m 379.84,584.22 c 0.01,-0.05 0.04,-0.11 0.08,-0.17 0.05,-0.06 0.11,-0.12 0.18,-0.17 0.07,-0.05 0.14,-0.09 0.22,-0.12 0.08,-0.03 0.15,-0.05 0.22,-0.05 h 3.32 c 0.15,0 0.27,0.05 0.38,0.14 0.1,0.09 0.18,0.17 0.23,0.24 l 0.32,0.74 6.81,17.57 c 0.07,0.17 0.06,0.31 -0.04,0.42 -0.1,0.11 -0.26,0.16 -0.49,0.16 h -3.72 c -0.2,0 -0.35,-0.04 -0.46,-0.11 -0.11,-0.07 -0.19,-0.2 -0.25,-0.37 -0.17,-0.44 -0.34,-0.88 -0.51,-1.32 -0.16,-0.44 -0.33,-0.88 -0.49,-1.32 h -6.89 c -0.16,0.44 -0.33,0.88 -0.5,1.32 -0.17,0.44 -0.34,0.88 -0.5,1.32 -0.11,0.32 -0.33,0.48 -0.66,0.48 h -3.83 c -0.16,0 -0.3,-0.04 -0.41,-0.13 -0.11,-0.09 -0.13,-0.22 -0.06,-0.39 z m 2.36,5.56 c -0.16,0.44 -0.33,0.92 -0.5,1.43 -0.17,0.51 -0.34,1.02 -0.5,1.54 -0.16,0.52 -0.33,1.03 -0.5,1.54 -0.17,0.51 -0.34,0.98 -0.5,1.42 h 3.98 z m -1.06,-11.29 c 0.04,-0.2 0.13,-0.34 0.27,-0.42 0.13,-0.08 0.27,-0.12 0.42,-0.12 h 3.35 c 0.13,0 0.23,0.03 0.29,0.08 0.06,0.05 0.11,0.12 0.13,0.19 0.02,0.08 0.02,0.17 0.01,0.27 -0.02,0.1 -0.05,0.2 -0.09,0.29 l -1.27,2.79 c -0.1,0.19 -0.21,0.33 -0.31,0.42 -0.1,0.09 -0.23,0.13 -0.4,0.13 h -2.84 c -0.13,0 -0.22,-0.03 -0.27,-0.1 -0.05,-0.07 -0.07,-0.15 -0.07,-0.25 0,-0.1 0.01,-0.2 0.04,-0.31 0.03,-0.11 0.05,-0.21 0.06,-0.29 z"
   id="path3277" />
	<linearGradient
   id="SVGID_13_"
   gradientUnits="userSpaceOnUse"
   x1="394.6604"
   y1="518.10248"
   x2="397.1618"
   y2="556.87433">
		<stop
   offset="0"
   style="stop-color:#C9DCEE"
   id="stop3279" />
		<stop
   offset="0.1112"
   style="stop-color:#C0D3E9"
   id="stop3281" />
		<stop
   offset="0.2961"
   style="stop-color:#A8BCD9"
   id="stop3283" />
		<stop
   offset="0.532"
   style="stop-color:#8599BF"
   id="stop3285" />
		<stop
   offset="0.8067"
   style="stop-color:#5470A0"
   id="stop3287" />
		<stop
   offset="0.9944"
   style="stop-color:#0D578D"
   id="stop3289" />
	</linearGradient>
	<path
   style="fill:url(#SVGID_13_)"
   class="st14"
   d="m 395.84,596.76 c 0.15,0.12 0.34,0.28 0.56,0.49 0.23,0.2 0.49,0.4 0.78,0.6 0.44,0.29 0.88,0.52 1.31,0.69 0.43,0.16 0.89,0.25 1.36,0.25 0.44,0 0.81,-0.05 1.11,-0.15 0.3,-0.1 0.53,-0.23 0.71,-0.4 0.17,-0.16 0.3,-0.35 0.37,-0.57 0.07,-0.22 0.11,-0.45 0.11,-0.69 0,-0.27 -0.1,-0.51 -0.31,-0.72 -0.2,-0.21 -0.45,-0.4 -0.75,-0.56 -0.29,-0.16 -0.6,-0.3 -0.92,-0.42 -0.32,-0.12 -0.6,-0.21 -0.83,-0.29 -1.04,-0.36 -1.95,-0.75 -2.73,-1.17 -0.78,-0.42 -1.43,-0.89 -1.95,-1.4 -0.52,-0.51 -0.91,-1.08 -1.17,-1.7 -0.26,-0.62 -0.39,-1.31 -0.39,-2.07 0,-0.8 0.16,-1.53 0.49,-2.19 0.32,-0.66 0.79,-1.22 1.39,-1.69 0.6,-0.47 1.33,-0.83 2.17,-1.08 0.85,-0.26 1.79,-0.38 2.84,-0.38 0.79,0 1.54,0.09 2.26,0.27 0.72,0.18 1.43,0.46 2.13,0.85 0.29,0.17 0.57,0.35 0.84,0.54 0.26,0.19 0.5,0.37 0.69,0.54 0.2,0.17 0.36,0.34 0.47,0.49 0.12,0.16 0.18,0.29 0.18,0.4 0,0.11 -0.03,0.22 -0.08,0.31 -0.06,0.1 -0.14,0.2 -0.25,0.32 l -1.99,2.11 c -0.15,0.15 -0.29,0.22 -0.44,0.22 -0.12,0 -0.23,-0.03 -0.33,-0.1 -0.1,-0.07 -0.21,-0.16 -0.33,-0.26 l -0.12,-0.1 c -0.17,-0.15 -0.37,-0.3 -0.58,-0.45 -0.21,-0.16 -0.44,-0.3 -0.68,-0.42 -0.24,-0.13 -0.5,-0.23 -0.77,-0.31 -0.27,-0.08 -0.54,-0.12 -0.82,-0.12 -0.29,0 -0.55,0.02 -0.8,0.07 -0.25,0.05 -0.47,0.12 -0.66,0.23 -0.19,0.1 -0.34,0.24 -0.45,0.41 -0.11,0.17 -0.17,0.37 -0.17,0.62 0,0.24 0.06,0.45 0.18,0.63 0.12,0.18 0.3,0.34 0.54,0.49 0.24,0.15 0.54,0.29 0.9,0.43 0.36,0.13 0.78,0.28 1.25,0.43 0.92,0.3 1.76,0.62 2.54,0.95 0.77,0.33 1.44,0.73 2,1.18 0.56,0.45 1,1 1.32,1.63 0.32,0.63 0.47,1.4 0.47,2.3 0,0.95 -0.19,1.81 -0.58,2.59 -0.39,0.77 -0.92,1.43 -1.6,1.98 -0.68,0.54 -1.48,0.97 -2.39,1.27 -0.92,0.3 -1.9,0.45 -2.96,0.45 -0.99,0 -1.97,-0.18 -2.93,-0.53 -0.96,-0.36 -1.86,-0.83 -2.69,-1.43 -0.35,-0.25 -0.64,-0.5 -0.88,-0.74 -0.24,-0.24 -0.43,-0.44 -0.56,-0.59 l -0.04,-0.04 c -0.01,-0.02 -0.02,-0.03 -0.03,-0.03 -0.01,0 -0.02,-0.01 -0.03,-0.02 -0.01,-0.02 -0.02,-0.03 -0.03,-0.03 -0.01,0 -0.02,-0.01 -0.03,-0.02 -0.2,-0.22 -0.3,-0.39 -0.3,-0.52 0,-0.15 0.1,-0.31 0.3,-0.49 l 2.25,-2.14 c 0.18,-0.13 0.33,-0.19 0.44,-0.19 0.08,0 0.16,0.03 0.25,0.08 0.13,0.01 0.24,0.09 0.36,0.19 z"
   id="path3292" />
	<linearGradient
   id="SVGID_14_"
   gradientUnits="userSpaceOnUse"
   x1="408.08701"
   y1="517.23633"
   x2="410.58841"
   y2="556.008">
		<stop
   offset="0"
   style="stop-color:#C9DCEE"
   id="stop3294" />
		<stop
   offset="0.1112"
   style="stop-color:#C0D3E9"
   id="stop3296" />
		<stop
   offset="0.2961"
   style="stop-color:#A8BCD9"
   id="stop3298" />
		<stop
   offset="0.532"
   style="stop-color:#8599BF"
   id="stop3300" />
		<stop
   offset="0.8067"
   style="stop-color:#5470A0"
   id="stop3302" />
		<stop
   offset="0.9944"
   style="stop-color:#0D578D"
   id="stop3304" />
	</linearGradient>
	<path
   style="fill:url(#SVGID_14_)"
   class="st15"
   d="m 410.49,584.29 c 0,-0.16 0.05,-0.29 0.14,-0.4 0.1,-0.11 0.24,-0.17 0.43,-0.17 h 3.82 c 0.13,0 0.27,0.05 0.42,0.16 0.15,0.1 0.22,0.24 0.22,0.42 v 18.13 c 0,0.38 -0.21,0.57 -0.64,0.57 h -3.82 c -0.38,0 -0.57,-0.19 -0.57,-0.57 z"
   id="path3307" />
	<linearGradient
   id="SVGID_15_"
   gradientUnits="userSpaceOnUse"
   x1="422.11429"
   y1="516.3313"
   x2="424.61581"
   y2="555.10303">
		<stop
   offset="0"
   style="stop-color:#C9DCEE"
   id="stop3309" />
		<stop
   offset="0.1112"
   style="stop-color:#C0D3E9"
   id="stop3311" />
		<stop
   offset="0.2961"
   style="stop-color:#A8BCD9"
   id="stop3313" />
		<stop
   offset="0.532"
   style="stop-color:#8599BF"
   id="stop3315" />
		<stop
   offset="0.8067"
   style="stop-color:#5470A0"
   id="stop3317" />
		<stop
   offset="0.9944"
   style="stop-color:#0D578D"
   id="stop3319" />
	</linearGradient>
	<path
   style="fill:url(#SVGID_15_)"
   class="st16"
   d="m 434.39,585.12 c 0.15,0.09 0.26,0.2 0.32,0.34 0.07,0.14 0.06,0.3 -0.04,0.49 l -2.19,3.11 c -0.1,0.15 -0.2,0.23 -0.31,0.25 -0.11,0.02 -0.24,-0.01 -0.4,-0.11 -0.42,-0.32 -0.89,-0.57 -1.4,-0.74 -0.51,-0.17 -1.05,-0.26 -1.62,-0.26 -0.71,0 -1.36,0.13 -1.96,0.4 -0.6,0.27 -1.11,0.64 -1.54,1.1 -0.43,0.47 -0.77,1.01 -1.01,1.63 -0.24,0.62 -0.36,1.29 -0.36,2 0,0.71 0.12,1.37 0.36,1.99 0.24,0.62 0.58,1.16 1.01,1.62 0.43,0.46 0.95,0.83 1.54,1.1 0.6,0.27 1.25,0.4 1.96,0.4 0.57,0 1.12,-0.09 1.64,-0.27 0.52,-0.18 0.99,-0.43 1.41,-0.75 0.16,-0.1 0.29,-0.13 0.39,-0.12 0.1,0.02 0.21,0.1 0.31,0.23 l 2.22,3.19 c 0.1,0.19 0.11,0.35 0.04,0.48 -0.07,0.13 -0.18,0.24 -0.32,0.32 -0.81,0.54 -1.69,0.97 -2.63,1.27 -0.94,0.3 -1.93,0.45 -2.97,0.45 -0.92,0 -1.8,-0.12 -2.64,-0.35 -0.84,-0.23 -1.63,-0.57 -2.37,-1 -0.74,-0.43 -1.4,-0.95 -2,-1.55 -0.6,-0.6 -1.12,-1.27 -1.55,-2 -0.43,-0.73 -0.77,-1.52 -1,-2.36 -0.23,-0.84 -0.35,-1.72 -0.35,-2.64 0,-0.92 0.12,-1.8 0.35,-2.64 0.23,-0.84 0.57,-1.64 1,-2.37 0.43,-0.74 0.95,-1.41 1.55,-2.02 0.6,-0.61 1.27,-1.12 2,-1.55 0.73,-0.43 1.52,-0.76 2.37,-1 0.84,-0.24 1.72,-0.36 2.64,-0.36 1.04,0 2.02,0.15 2.94,0.43 0.93,0.33 1.8,0.74 2.61,1.29 z"
   id="path3322" />
	<linearGradient
   id="SVGID_16_"
   gradientUnits="userSpaceOnUse"
   x1="440.20639"
   y1="515.16412"
   x2="442.70779"
   y2="553.93579">
		<stop
   offset="0"
   style="stop-color:#C9DCEE"
   id="stop3324" />
		<stop
   offset="0.1112"
   style="stop-color:#C0D3E9"
   id="stop3326" />
		<stop
   offset="0.2961"
   style="stop-color:#A8BCD9"
   id="stop3328" />
		<stop
   offset="0.532"
   style="stop-color:#8599BF"
   id="stop3330" />
		<stop
   offset="0.8067"
   style="stop-color:#5470A0"
   id="stop3332" />
		<stop
   offset="0.9944"
   style="stop-color:#0D578D"
   id="stop3334" />
	</linearGradient>
	<path
   style="fill:url(#SVGID_16_)"
   class="st17"
   d="m 443.49,584.22 c 0.01,-0.05 0.04,-0.11 0.08,-0.17 0.05,-0.06 0.11,-0.12 0.18,-0.17 0.07,-0.05 0.14,-0.09 0.22,-0.12 0.08,-0.03 0.15,-0.05 0.22,-0.05 h 3.32 c 0.15,0 0.27,0.05 0.38,0.14 0.1,0.09 0.18,0.17 0.23,0.24 l 0.32,0.74 6.81,17.57 c 0.07,0.17 0.06,0.31 -0.04,0.42 -0.1,0.11 -0.26,0.16 -0.49,0.16 H 451 c -0.2,0 -0.35,-0.04 -0.46,-0.11 -0.11,-0.07 -0.19,-0.2 -0.25,-0.37 -0.17,-0.44 -0.34,-0.88 -0.51,-1.32 -0.16,-0.44 -0.33,-0.88 -0.49,-1.32 h -6.89 c -0.16,0.44 -0.33,0.88 -0.5,1.32 -0.17,0.44 -0.34,0.88 -0.5,1.32 -0.11,0.32 -0.33,0.48 -0.66,0.48 h -3.83 c -0.16,0 -0.3,-0.04 -0.41,-0.13 -0.11,-0.09 -0.13,-0.22 -0.06,-0.39 z m 2.36,5.56 c -0.16,0.44 -0.33,0.92 -0.5,1.43 -0.17,0.51 -0.34,1.02 -0.5,1.54 -0.16,0.52 -0.33,1.03 -0.5,1.54 -0.17,0.51 -0.34,0.98 -0.5,1.42 h 3.98 z"
   id="path3337" />
	<linearGradient
   id="SVGID_17_"
   gradientUnits="userSpaceOnUse"
   x1="73.9981"
   y1="538.79041"
   x2="76.499496"
   y2="577.56207">
		<stop
   offset="0"
   style="stop-color:#C9DCEE"
   id="stop3339" />
		<stop
   offset="0.1112"
   style="stop-color:#C0D3E9"
   id="stop3341" />
		<stop
   offset="0.2961"
   style="stop-color:#A8BCD9"
   id="stop3343" />
		<stop
   offset="0.532"
   style="stop-color:#8599BF"
   id="stop3345" />
		<stop
   offset="0.8067"
   style="stop-color:#5470A0"
   id="stop3347" />
		<stop
   offset="0.9944"
   style="stop-color:#0D578D"
   id="stop3349" />
	</linearGradient>
	<path
   style="fill:url(#SVGID_17_)"
   class="st18"
   d="m 72.51,615.46 c 0,-0.18 0.05,-0.33 0.15,-0.43 0.1,-0.11 0.24,-0.16 0.42,-0.16 h 12.87 c 0.19,0 0.34,0.06 0.44,0.17 0.1,0.11 0.16,0.26 0.16,0.45 v 3.21 c 0,0.15 -0.05,0.29 -0.16,0.42 -0.1,0.13 -0.26,0.2 -0.45,0.2 h -8.41 v 3.22 h 6.49 c 0.16,0 0.3,0.04 0.41,0.12 0.11,0.08 0.16,0.21 0.16,0.39 v 2.8 c 0,0.12 -0.05,0.24 -0.14,0.35 -0.1,0.11 -0.23,0.17 -0.42,0.17 h -6.5 v 3.32 h 8.72 c 0.39,0 0.58,0.2 0.58,0.6 v 3.26 c 0,0.09 -0.03,0.16 -0.1,0.23 -0.03,0.24 -0.21,0.36 -0.53,0.36 H 73.08 c -0.17,0 -0.31,-0.05 -0.41,-0.14 -0.1,-0.09 -0.16,-0.23 -0.16,-0.42 z"
   id="path3352" />
	<linearGradient
   id="SVGID_18_"
   gradientUnits="userSpaceOnUse"
   x1="94.1828"
   y1="537.48822"
   x2="96.684196"
   y2="576.25989">
		<stop
   offset="0"
   style="stop-color:#C9DCEE"
   id="stop3354" />
		<stop
   offset="0.1112"
   style="stop-color:#C0D3E9"
   id="stop3356" />
		<stop
   offset="0.2961"
   style="stop-color:#A8BCD9"
   id="stop3358" />
		<stop
   offset="0.532"
   style="stop-color:#8599BF"
   id="stop3360" />
		<stop
   offset="0.8067"
   style="stop-color:#5470A0"
   id="stop3362" />
		<stop
   offset="0.9944"
   style="stop-color:#0D578D"
   id="stop3364" />
	</linearGradient>
	<path
   style="fill:url(#SVGID_18_)"
   class="st19"
   d="m 91.1,615.43 c 0.02,-0.16 0.08,-0.29 0.18,-0.4 0.1,-0.11 0.25,-0.17 0.44,-0.17 h 4.49 c 0.32,0 0.53,0.16 0.62,0.49 l 3.53,11.78 3.56,-11.78 c 0.12,-0.33 0.34,-0.49 0.66,-0.49 h 4.44 c 0.16,0 0.3,0.05 0.42,0.16 0.13,0.11 0.2,0.24 0.21,0.41 0.3,3.04 0.61,6.07 0.93,9.06 0.32,3 0.62,6.02 0.93,9.06 v 0.06 c 0,0.34 -0.19,0.51 -0.57,0.51 h -3.67 c -0.4,0 -0.61,-0.19 -0.62,-0.57 l -1.13,-10.03 -2.92,10.1 c -0.02,0.09 -0.08,0.19 -0.19,0.31 -0.11,0.12 -0.21,0.18 -0.32,0.18 h -3.41 c -0.1,0 -0.21,-0.06 -0.33,-0.17 -0.12,-0.12 -0.18,-0.22 -0.19,-0.32 l -2.92,-10.07 -1.13,10 c -0.02,0.38 -0.23,0.57 -0.64,0.57 H 89.8 c -0.37,0 -0.56,-0.19 -0.56,-0.57 z"
   id="path3367" />
	<linearGradient
   id="SVGID_19_"
   gradientUnits="userSpaceOnUse"
   x1="127.1092"
   y1="535.36389"
   x2="129.6105"
   y2="574.13562">
		<stop
   offset="0"
   style="stop-color:#C9DCEE"
   id="stop3369" />
		<stop
   offset="0.1112"
   style="stop-color:#C0D3E9"
   id="stop3371" />
		<stop
   offset="0.2961"
   style="stop-color:#A8BCD9"
   id="stop3373" />
		<stop
   offset="0.532"
   style="stop-color:#8599BF"
   id="stop3375" />
		<stop
   offset="0.8067"
   style="stop-color:#5470A0"
   id="stop3377" />
		<stop
   offset="0.9944"
   style="stop-color:#0D578D"
   id="stop3379" />
	</linearGradient>
	<path
   style="fill:url(#SVGID_19_)"
   class="st20"
   d="m 124.17,615.43 c 0.02,-0.16 0.08,-0.29 0.18,-0.4 0.1,-0.11 0.25,-0.17 0.44,-0.17 h 4.49 c 0.32,0 0.53,0.16 0.62,0.49 l 3.53,11.78 3.56,-11.78 c 0.12,-0.33 0.34,-0.49 0.66,-0.49 h 4.44 c 0.16,0 0.3,0.05 0.42,0.16 0.13,0.11 0.2,0.24 0.21,0.41 0.3,3.04 0.61,6.07 0.93,9.06 0.32,3 0.62,6.02 0.93,9.06 v 0.06 c 0,0.34 -0.19,0.51 -0.57,0.51 h -3.67 c -0.4,0 -0.61,-0.19 -0.62,-0.57 l -1.13,-10.03 -2.92,10.1 c -0.02,0.09 -0.08,0.19 -0.19,0.31 -0.11,0.12 -0.21,0.18 -0.32,0.18 h -3.41 c -0.1,0 -0.21,-0.06 -0.33,-0.17 -0.12,-0.12 -0.18,-0.22 -0.19,-0.32 l -2.92,-10.07 -1.13,10 c -0.02,0.38 -0.23,0.57 -0.64,0.57 h -3.67 c -0.37,0 -0.56,-0.19 -0.56,-0.57 z"
   id="path3382" />
	<linearGradient
   id="SVGID_20_"
   gradientUnits="userSpaceOnUse"
   x1="149.45419"
   y1="533.92218"
   x2="151.9556"
   y2="572.69397">
		<stop
   offset="0"
   style="stop-color:#C9DCEE"
   id="stop3384" />
		<stop
   offset="0.1112"
   style="stop-color:#C0D3E9"
   id="stop3386" />
		<stop
   offset="0.2961"
   style="stop-color:#A8BCD9"
   id="stop3388" />
		<stop
   offset="0.532"
   style="stop-color:#8599BF"
   id="stop3390" />
		<stop
   offset="0.8067"
   style="stop-color:#5470A0"
   id="stop3392" />
		<stop
   offset="0.9944"
   style="stop-color:#0D578D"
   id="stop3394" />
	</linearGradient>
	<path
   style="fill:url(#SVGID_20_)"
   class="st21"
   d="m 153.53,615.37 c 0.01,-0.05 0.04,-0.11 0.08,-0.17 0.05,-0.06 0.11,-0.12 0.18,-0.17 0.07,-0.05 0.14,-0.09 0.22,-0.12 0.08,-0.03 0.15,-0.05 0.22,-0.05 h 3.32 c 0.15,0 0.27,0.05 0.38,0.14 0.1,0.09 0.18,0.17 0.23,0.24 l 0.32,0.74 6.81,17.57 c 0.07,0.17 0.06,0.31 -0.04,0.42 -0.1,0.11 -0.26,0.16 -0.49,0.16 h -3.72 c -0.2,0 -0.35,-0.04 -0.46,-0.11 -0.11,-0.07 -0.19,-0.2 -0.25,-0.37 -0.17,-0.44 -0.34,-0.88 -0.51,-1.32 -0.16,-0.44 -0.33,-0.88 -0.49,-1.32 h -6.89 c -0.16,0.44 -0.33,0.88 -0.5,1.32 -0.17,0.44 -0.34,0.88 -0.5,1.32 -0.11,0.32 -0.33,0.48 -0.66,0.48 h -3.83 c -0.16,0 -0.3,-0.04 -0.41,-0.13 -0.11,-0.09 -0.13,-0.22 -0.06,-0.39 z m 2.36,5.55 c -0.16,0.44 -0.33,0.92 -0.5,1.43 -0.17,0.51 -0.34,1.02 -0.5,1.54 -0.16,0.52 -0.33,1.03 -0.5,1.54 -0.17,0.51 -0.34,0.98 -0.5,1.42 h 3.98 z"
   id="path3397" />
	<linearGradient
   id="SVGID_21_"
   gradientUnits="userSpaceOnUse"
   x1="165.755"
   y1="532.87061"
   x2="168.25639"
   y2="571.64227">
		<stop
   offset="0"
   style="stop-color:#C9DCEE"
   id="stop3399" />
		<stop
   offset="0.1112"
   style="stop-color:#C0D3E9"
   id="stop3401" />
		<stop
   offset="0.2961"
   style="stop-color:#A8BCD9"
   id="stop3403" />
		<stop
   offset="0.532"
   style="stop-color:#8599BF"
   id="stop3405" />
		<stop
   offset="0.8067"
   style="stop-color:#5470A0"
   id="stop3407" />
		<stop
   offset="0.9944"
   style="stop-color:#0D578D"
   id="stop3409" />
	</linearGradient>
	<path
   style="fill:url(#SVGID_21_)"
   class="st22"
   d="m 163.59,615.43 c 0,-0.17 0.06,-0.31 0.18,-0.41 0.12,-0.1 0.26,-0.16 0.43,-0.16 h 13.96 c 0.16,0 0.29,0.05 0.42,0.14 0.12,0.1 0.19,0.24 0.21,0.43 v 3.22 c 0,0.16 -0.05,0.3 -0.16,0.45 -0.11,0.14 -0.26,0.21 -0.46,0.21 h -4.48 v 14.21 c 0,0.16 -0.06,0.3 -0.17,0.42 -0.11,0.13 -0.26,0.19 -0.44,0.19 h -3.81 c -0.15,0 -0.28,-0.06 -0.41,-0.18 -0.13,-0.12 -0.19,-0.26 -0.19,-0.44 V 619.3 h -4.46 c -0.17,0 -0.32,-0.06 -0.43,-0.17 -0.12,-0.11 -0.18,-0.28 -0.18,-0.49 v -3.21 z"
   id="path3412" />
	<linearGradient
   id="SVGID_22_"
   gradientUnits="userSpaceOnUse"
   x1="183.6192"
   y1="531.71808"
   x2="186.1207"
   y2="570.48981">
		<stop
   offset="0"
   style="stop-color:#C9DCEE"
   id="stop3414" />
		<stop
   offset="0.1112"
   style="stop-color:#C0D3E9"
   id="stop3416" />
		<stop
   offset="0.2961"
   style="stop-color:#A8BCD9"
   id="stop3418" />
		<stop
   offset="0.532"
   style="stop-color:#8599BF"
   id="stop3420" />
		<stop
   offset="0.8067"
   style="stop-color:#5470A0"
   id="stop3422" />
		<stop
   offset="0.9944"
   style="stop-color:#0D578D"
   id="stop3424" />
	</linearGradient>
	<path
   style="fill:url(#SVGID_22_)"
   class="st23"
   d="m 179.68,624.52 c 0,-0.92 0.12,-1.8 0.35,-2.64 0.23,-0.84 0.57,-1.64 1,-2.37 0.43,-0.74 0.95,-1.41 1.55,-2.02 0.6,-0.61 1.27,-1.12 2.01,-1.55 0.74,-0.43 1.53,-0.76 2.37,-1 0.84,-0.24 1.73,-0.36 2.64,-0.36 0.91,0 1.79,0.12 2.64,0.36 0.85,0.24 1.64,0.57 2.38,1 0.74,0.43 1.41,0.95 2.01,1.55 0.61,0.61 1.12,1.28 1.55,2.02 0.43,0.74 0.76,1.53 1,2.37 0.24,0.84 0.36,1.72 0.36,2.64 0,0.92 -0.12,1.8 -0.36,2.64 -0.24,0.84 -0.57,1.63 -1,2.36 -0.43,0.73 -0.95,1.4 -1.55,2 -0.61,0.6 -1.28,1.12 -2.01,1.55 -0.73,0.43 -1.53,0.77 -2.38,1 -0.85,0.23 -1.73,0.35 -2.64,0.35 -0.92,0 -1.8,-0.12 -2.64,-0.35 -0.84,-0.23 -1.63,-0.57 -2.37,-1 -0.74,-0.43 -1.4,-0.95 -2.01,-1.55 -0.61,-0.6 -1.12,-1.27 -1.55,-2 -0.43,-0.73 -0.77,-1.52 -1,-2.36 -0.23,-0.85 -0.35,-1.73 -0.35,-2.64 z m 5.02,-0.02 c 0,0.72 0.12,1.39 0.36,2.01 0.24,0.62 0.58,1.17 1.02,1.63 0.44,0.46 0.95,0.83 1.55,1.09 0.6,0.26 1.25,0.4 1.97,0.4 0.72,0 1.38,-0.13 1.98,-0.4 0.6,-0.27 1.12,-0.63 1.56,-1.09 0.44,-0.46 0.78,-1.01 1.02,-1.63 0.24,-0.62 0.36,-1.29 0.36,-2.01 0,-0.71 -0.12,-1.38 -0.36,-2 -0.24,-0.63 -0.58,-1.17 -1.02,-1.64 -0.44,-0.47 -0.95,-0.83 -1.56,-1.1 -0.6,-0.27 -1.26,-0.4 -1.98,-0.4 -0.72,0 -1.37,0.13 -1.97,0.4 -0.6,0.27 -1.11,0.64 -1.55,1.1 -0.44,0.47 -0.78,1.01 -1.02,1.64 -0.24,0.62 -0.36,1.29 -0.36,2 z"
   id="path3427" />
	<linearGradient
   id="SVGID_23_"
   gradientUnits="userSpaceOnUse"
   x1="212.20039"
   y1="529.87408"
   x2="214.7018"
   y2="568.64587">
		<stop
   offset="0"
   style="stop-color:#C9DCEE"
   id="stop3429" />
		<stop
   offset="0.1112"
   style="stop-color:#C0D3E9"
   id="stop3431" />
		<stop
   offset="0.2961"
   style="stop-color:#A8BCD9"
   id="stop3433" />
		<stop
   offset="0.532"
   style="stop-color:#8599BF"
   id="stop3435" />
		<stop
   offset="0.8067"
   style="stop-color:#5470A0"
   id="stop3437" />
		<stop
   offset="0.9944"
   style="stop-color:#0D578D"
   id="stop3439" />
	</linearGradient>
	<path
   style="fill:url(#SVGID_23_)"
   class="st24"
   d="m 222.99,620.3 c -0.44,-0.31 -0.91,-0.55 -1.41,-0.73 -0.5,-0.17 -1.04,-0.26 -1.61,-0.26 -0.72,0 -1.38,0.14 -1.97,0.41 -0.6,0.27 -1.11,0.64 -1.54,1.11 -0.43,0.47 -0.76,1.01 -1.01,1.64 -0.24,0.63 -0.36,1.3 -0.36,2 0,0.71 0.12,1.38 0.36,2 0.24,0.62 0.58,1.17 1.01,1.63 0.43,0.46 0.94,0.83 1.54,1.1 0.6,0.27 1.25,0.4 1.97,0.4 0.3,0 0.6,-0.02 0.9,-0.06 0.3,-0.04 0.62,-0.1 0.95,-0.17 v -3.4 c 0,-0.16 0.05,-0.3 0.14,-0.41 0.1,-0.11 0.24,-0.16 0.43,-0.16 h 3.53 c 0.13,0 0.27,0.05 0.42,0.16 0.15,0.1 0.22,0.24 0.22,0.42 v 6.28 c 0,0.23 -0.13,0.42 -0.38,0.57 -0.41,0.28 -0.86,0.51 -1.35,0.71 -0.49,0.2 -1.01,0.36 -1.54,0.49 -0.54,0.13 -1.08,0.23 -1.63,0.29 -0.55,0.06 -1.08,0.1 -1.6,0.1 -0.92,0 -1.8,-0.12 -2.64,-0.35 -0.84,-0.23 -1.63,-0.57 -2.37,-1 -0.74,-0.43 -1.4,-0.95 -2,-1.55 -0.6,-0.6 -1.12,-1.27 -1.55,-2 -0.43,-0.73 -0.77,-1.52 -1,-2.36 -0.23,-0.84 -0.35,-1.72 -0.35,-2.64 0,-0.92 0.12,-1.8 0.35,-2.64 0.23,-0.84 0.57,-1.64 1,-2.37 0.43,-0.74 0.95,-1.41 1.55,-2.02 0.6,-0.61 1.27,-1.12 2,-1.55 0.74,-0.43 1.52,-0.76 2.37,-1 0.84,-0.24 1.72,-0.36 2.64,-0.36 1.04,0 2.02,0.15 2.94,0.43 0.92,0.29 1.79,0.71 2.6,1.25 0.15,0.09 0.26,0.2 0.34,0.34 0.08,0.14 0.06,0.31 -0.05,0.49 l -2.1,3.04 c -0.11,0.14 -0.23,0.23 -0.34,0.28 -0.11,0.05 -0.27,0.01 -0.46,-0.11 z"
   id="path3442" />
	<linearGradient
   id="SVGID_24_"
   gradientUnits="userSpaceOnUse"
   x1="231.66859"
   y1="528.6181"
   x2="234.17"
   y2="567.38977">
		<stop
   offset="0"
   style="stop-color:#C9DCEE"
   id="stop3444" />
		<stop
   offset="0.1112"
   style="stop-color:#C0D3E9"
   id="stop3446" />
		<stop
   offset="0.2961"
   style="stop-color:#A8BCD9"
   id="stop3448" />
		<stop
   offset="0.532"
   style="stop-color:#8599BF"
   id="stop3450" />
		<stop
   offset="0.8067"
   style="stop-color:#5470A0"
   id="stop3452" />
		<stop
   offset="0.9944"
   style="stop-color:#0D578D"
   id="stop3454" />
	</linearGradient>
	<path
   style="fill:url(#SVGID_24_)"
   class="st25"
   d="m 230.35,615.46 c 0,-0.18 0.05,-0.33 0.14,-0.43 0.1,-0.11 0.24,-0.16 0.43,-0.16 h 8.38 c 0.89,0 1.73,0.17 2.5,0.5 0.78,0.33 1.46,0.79 2.04,1.36 0.58,0.57 1.04,1.24 1.37,2 0.33,0.77 0.5,1.58 0.5,2.45 0,0.59 -0.08,1.15 -0.24,1.68 -0.16,0.53 -0.38,1.03 -0.67,1.49 -0.29,0.46 -0.63,0.88 -1.02,1.26 -0.39,0.38 -0.82,0.7 -1.29,0.97 l 3.33,6.28 c 0.06,0.12 0.14,0.26 0.23,0.43 0.1,0.16 0.14,0.31 0.14,0.43 0,0.14 -0.05,0.24 -0.14,0.32 -0.09,0.07 -0.21,0.11 -0.37,0.11 h -4.45 c -0.15,0 -0.28,-0.04 -0.4,-0.13 -0.12,-0.09 -0.19,-0.2 -0.23,-0.35 l -3.15,-5.93 h -2.1 v 5.85 c 0,0.37 -0.2,0.56 -0.6,0.56 h -3.85 c -0.17,0 -0.31,-0.05 -0.42,-0.14 -0.1,-0.09 -0.16,-0.23 -0.16,-0.42 v -18.13 z m 10.16,5.76 c 0,-0.26 -0.05,-0.52 -0.14,-0.78 -0.1,-0.26 -0.23,-0.5 -0.4,-0.71 -0.17,-0.22 -0.38,-0.4 -0.62,-0.55 -0.24,-0.15 -0.51,-0.24 -0.8,-0.29 -0.24,-0.02 -0.47,-0.03 -0.68,-0.05 -0.21,-0.01 -0.44,-0.02 -0.69,-0.02 h -1.79 v 4.76 h 2.39 c 0.16,0 0.29,0 0.42,-0.01 0.12,-0.01 0.26,-0.02 0.4,-0.04 0.3,-0.03 0.57,-0.12 0.82,-0.27 0.24,-0.14 0.45,-0.32 0.61,-0.53 0.16,-0.21 0.29,-0.45 0.38,-0.71 0.06,-0.25 0.1,-0.52 0.1,-0.8 z"
   id="path3457" />
	<linearGradient
   id="SVGID_25_"
   gradientUnits="userSpaceOnUse"
   x1="251.34579"
   y1="527.34857"
   x2="253.8472"
   y2="566.12042">
		<stop
   offset="0"
   style="stop-color:#C9DCEE"
   id="stop3459" />
		<stop
   offset="0.1112"
   style="stop-color:#C0D3E9"
   id="stop3461" />
		<stop
   offset="0.2961"
   style="stop-color:#A8BCD9"
   id="stop3463" />
		<stop
   offset="0.532"
   style="stop-color:#8599BF"
   id="stop3465" />
		<stop
   offset="0.8067"
   style="stop-color:#5470A0"
   id="stop3467" />
		<stop
   offset="0.9944"
   style="stop-color:#0D578D"
   id="stop3469" />
	</linearGradient>
	<path
   style="fill:url(#SVGID_25_)"
   class="st26"
   d="m 247.69,624.52 c 0,-0.92 0.12,-1.8 0.35,-2.64 0.23,-0.84 0.57,-1.64 1,-2.37 0.43,-0.74 0.95,-1.41 1.55,-2.02 0.6,-0.61 1.27,-1.12 2.01,-1.55 0.74,-0.43 1.53,-0.76 2.37,-1 0.84,-0.24 1.72,-0.36 2.64,-0.36 0.91,0 1.79,0.12 2.64,0.36 0.85,0.24 1.64,0.57 2.38,1 0.74,0.43 1.41,0.95 2.01,1.55 0.61,0.61 1.12,1.28 1.55,2.02 0.43,0.74 0.76,1.53 1,2.37 0.24,0.84 0.36,1.72 0.36,2.64 0,0.92 -0.12,1.8 -0.36,2.64 -0.24,0.84 -0.57,1.63 -1,2.36 -0.43,0.73 -0.95,1.4 -1.55,2 -0.61,0.6 -1.28,1.12 -2.01,1.55 -0.74,0.43 -1.53,0.77 -2.38,1 -0.85,0.23 -1.73,0.35 -2.64,0.35 -0.92,0 -1.8,-0.12 -2.64,-0.35 -0.84,-0.23 -1.63,-0.57 -2.37,-1 -0.74,-0.43 -1.4,-0.95 -2.01,-1.55 -0.61,-0.6 -1.12,-1.27 -1.55,-2 -0.43,-0.73 -0.77,-1.52 -1,-2.36 -0.24,-0.85 -0.35,-1.73 -0.35,-2.64 z m 5.02,-0.02 c 0,0.72 0.12,1.39 0.36,2.01 0.24,0.62 0.58,1.17 1.02,1.63 0.44,0.46 0.95,0.83 1.55,1.09 0.6,0.26 1.25,0.4 1.97,0.4 0.72,0 1.38,-0.13 1.98,-0.4 0.6,-0.26 1.12,-0.63 1.55,-1.09 0.44,-0.46 0.78,-1.01 1.02,-1.63 0.24,-0.62 0.36,-1.29 0.36,-2.01 0,-0.71 -0.12,-1.38 -0.36,-2 -0.24,-0.63 -0.58,-1.17 -1.02,-1.64 -0.44,-0.47 -0.95,-0.83 -1.55,-1.1 -0.6,-0.27 -1.26,-0.4 -1.98,-0.4 -0.72,0 -1.37,0.13 -1.97,0.4 -0.6,0.27 -1.11,0.64 -1.55,1.1 -0.44,0.47 -0.78,1.01 -1.02,1.64 -0.24,0.62 -0.36,1.29 -0.36,2 z"
   id="path3472" />
	<linearGradient
   id="SVGID_26_"
   gradientUnits="userSpaceOnUse"
   x1="269.66391"
   y1="526.16681"
   x2="272.16531"
   y2="564.93848">
		<stop
   offset="0"
   style="stop-color:#C9DCEE"
   id="stop3474" />
		<stop
   offset="0.1112"
   style="stop-color:#C0D3E9"
   id="stop3476" />
		<stop
   offset="0.2961"
   style="stop-color:#A8BCD9"
   id="stop3478" />
		<stop
   offset="0.532"
   style="stop-color:#8599BF"
   id="stop3480" />
		<stop
   offset="0.8067"
   style="stop-color:#5470A0"
   id="stop3482" />
		<stop
   offset="0.9944"
   style="stop-color:#0D578D"
   id="stop3484" />
	</linearGradient>
	<path
   style="fill:url(#SVGID_26_)"
   class="st27"
   d="m 272.33,627.9 c 0.15,0.12 0.34,0.28 0.56,0.49 0.23,0.2 0.49,0.4 0.78,0.6 0.44,0.29 0.88,0.52 1.31,0.69 0.43,0.16 0.89,0.25 1.36,0.25 0.44,0 0.81,-0.05 1.11,-0.15 0.3,-0.1 0.53,-0.23 0.71,-0.4 0.17,-0.16 0.3,-0.35 0.37,-0.57 0.07,-0.22 0.11,-0.45 0.11,-0.69 0,-0.27 -0.1,-0.51 -0.31,-0.72 -0.2,-0.21 -0.45,-0.4 -0.75,-0.56 -0.29,-0.16 -0.6,-0.3 -0.92,-0.42 -0.32,-0.12 -0.6,-0.21 -0.83,-0.29 -1.04,-0.36 -1.95,-0.75 -2.73,-1.17 -0.78,-0.42 -1.43,-0.89 -1.95,-1.4 -0.52,-0.51 -0.91,-1.08 -1.17,-1.7 -0.26,-0.62 -0.39,-1.31 -0.39,-2.07 0,-0.8 0.16,-1.53 0.49,-2.19 0.32,-0.66 0.79,-1.22 1.39,-1.69 0.6,-0.47 1.33,-0.83 2.17,-1.08 0.85,-0.26 1.79,-0.38 2.84,-0.38 0.79,0 1.54,0.09 2.26,0.27 0.72,0.18 1.43,0.46 2.13,0.85 0.29,0.17 0.57,0.35 0.84,0.54 0.26,0.19 0.5,0.37 0.69,0.54 0.2,0.17 0.36,0.34 0.47,0.49 0.12,0.16 0.18,0.29 0.18,0.4 0,0.11 -0.03,0.22 -0.08,0.31 -0.06,0.1 -0.14,0.2 -0.25,0.32 l -1.99,2.11 c -0.15,0.15 -0.29,0.22 -0.44,0.22 -0.12,0 -0.23,-0.03 -0.33,-0.1 -0.1,-0.07 -0.21,-0.16 -0.33,-0.26 l -0.12,-0.1 c -0.17,-0.15 -0.37,-0.3 -0.58,-0.45 -0.21,-0.16 -0.44,-0.3 -0.68,-0.42 -0.24,-0.13 -0.5,-0.23 -0.77,-0.31 -0.27,-0.08 -0.54,-0.12 -0.82,-0.12 -0.29,0 -0.55,0.02 -0.8,0.07 -0.25,0.05 -0.47,0.12 -0.66,0.23 -0.19,0.1 -0.34,0.24 -0.45,0.41 -0.11,0.17 -0.17,0.37 -0.17,0.62 0,0.24 0.06,0.45 0.18,0.63 0.12,0.18 0.3,0.34 0.54,0.49 0.24,0.15 0.54,0.29 0.9,0.43 0.36,0.13 0.78,0.28 1.25,0.43 0.92,0.3 1.76,0.62 2.54,0.95 0.77,0.33 1.44,0.73 2,1.18 0.56,0.45 1,1 1.32,1.63 0.32,0.63 0.47,1.4 0.47,2.3 0,0.95 -0.19,1.81 -0.58,2.59 -0.39,0.77 -0.92,1.43 -1.6,1.98 -0.68,0.54 -1.48,0.97 -2.39,1.27 -0.92,0.3 -1.9,0.45 -2.96,0.45 -0.99,0 -1.97,-0.18 -2.93,-0.53 -0.96,-0.36 -1.86,-0.83 -2.69,-1.43 -0.35,-0.25 -0.64,-0.5 -0.88,-0.74 -0.24,-0.24 -0.43,-0.44 -0.56,-0.59 l -0.04,-0.04 c -0.01,-0.02 -0.02,-0.03 -0.03,-0.03 -0.01,0 -0.02,-0.01 -0.03,-0.02 -0.01,-0.02 -0.02,-0.03 -0.03,-0.03 -0.01,0 -0.02,-0.01 -0.03,-0.02 -0.2,-0.22 -0.3,-0.39 -0.3,-0.52 0,-0.15 0.1,-0.31 0.3,-0.49 l 2.25,-2.14 c 0.18,-0.13 0.33,-0.19 0.44,-0.19 0.08,0 0.16,0.03 0.25,0.08 0.14,0.01 0.24,0.09 0.36,0.19 z"
   id="path3487" />
	<linearGradient
   id="SVGID_27_"
   gradientUnits="userSpaceOnUse"
   x1="286.61731"
   y1="525.07312"
   x2="289.11871"
   y2="563.84479">
		<stop
   offset="0"
   style="stop-color:#C9DCEE"
   id="stop3489" />
		<stop
   offset="0.1112"
   style="stop-color:#C0D3E9"
   id="stop3491" />
		<stop
   offset="0.2961"
   style="stop-color:#A8BCD9"
   id="stop3493" />
		<stop
   offset="0.532"
   style="stop-color:#8599BF"
   id="stop3495" />
		<stop
   offset="0.8067"
   style="stop-color:#5470A0"
   id="stop3497" />
		<stop
   offset="0.9944"
   style="stop-color:#0D578D"
   id="stop3499" />
	</linearGradient>
	<path
   style="fill:url(#SVGID_27_)"
   class="st28"
   d="m 289.35,627.9 c 0.15,0.12 0.34,0.28 0.56,0.49 0.23,0.2 0.49,0.4 0.78,0.6 0.44,0.29 0.88,0.52 1.31,0.69 0.43,0.16 0.89,0.25 1.36,0.25 0.44,0 0.81,-0.05 1.11,-0.15 0.3,-0.1 0.53,-0.23 0.71,-0.4 0.17,-0.16 0.3,-0.35 0.37,-0.57 0.07,-0.22 0.11,-0.45 0.11,-0.69 0,-0.27 -0.1,-0.51 -0.31,-0.72 -0.2,-0.21 -0.45,-0.4 -0.75,-0.56 -0.29,-0.16 -0.6,-0.3 -0.92,-0.42 -0.32,-0.12 -0.6,-0.21 -0.83,-0.29 -1.04,-0.36 -1.95,-0.75 -2.73,-1.17 -0.78,-0.42 -1.43,-0.89 -1.95,-1.4 -0.52,-0.51 -0.91,-1.08 -1.17,-1.7 -0.26,-0.62 -0.39,-1.31 -0.39,-2.07 0,-0.8 0.16,-1.53 0.49,-2.19 0.32,-0.66 0.79,-1.22 1.39,-1.69 0.6,-0.47 1.33,-0.83 2.17,-1.08 0.85,-0.26 1.79,-0.38 2.84,-0.38 0.79,0 1.54,0.09 2.26,0.27 0.72,0.18 1.43,0.46 2.13,0.85 0.29,0.17 0.57,0.35 0.84,0.54 0.26,0.19 0.5,0.37 0.69,0.54 0.2,0.17 0.36,0.34 0.47,0.49 0.12,0.16 0.18,0.29 0.18,0.4 0,0.11 -0.03,0.22 -0.08,0.31 -0.06,0.1 -0.14,0.2 -0.25,0.32 l -1.99,2.11 c -0.15,0.15 -0.29,0.22 -0.44,0.22 -0.12,0 -0.23,-0.03 -0.33,-0.1 -0.1,-0.07 -0.21,-0.16 -0.33,-0.26 l -0.12,-0.1 c -0.17,-0.15 -0.37,-0.3 -0.58,-0.45 -0.21,-0.16 -0.44,-0.3 -0.68,-0.42 -0.24,-0.13 -0.5,-0.23 -0.77,-0.31 -0.27,-0.08 -0.54,-0.12 -0.82,-0.12 -0.29,0 -0.55,0.02 -0.8,0.07 -0.25,0.05 -0.47,0.12 -0.66,0.23 -0.19,0.1 -0.34,0.24 -0.45,0.41 -0.11,0.17 -0.17,0.37 -0.17,0.62 0,0.24 0.06,0.45 0.18,0.63 0.12,0.18 0.3,0.34 0.54,0.49 0.24,0.15 0.54,0.29 0.9,0.43 0.36,0.14 0.78,0.28 1.25,0.43 0.92,0.3 1.76,0.62 2.54,0.95 0.77,0.33 1.44,0.73 2,1.18 0.56,0.45 1,1 1.32,1.63 0.32,0.63 0.47,1.4 0.47,2.3 0,0.95 -0.19,1.81 -0.58,2.59 -0.39,0.77 -0.92,1.43 -1.6,1.98 -0.68,0.54 -1.48,0.97 -2.39,1.27 -0.92,0.3 -1.9,0.45 -2.96,0.45 -0.99,0 -1.97,-0.18 -2.93,-0.53 -0.96,-0.36 -1.86,-0.83 -2.69,-1.43 -0.35,-0.25 -0.64,-0.5 -0.88,-0.74 -0.24,-0.24 -0.43,-0.44 -0.56,-0.59 l -0.04,-0.04 c -0.01,-0.02 -0.02,-0.03 -0.03,-0.03 -0.01,0 -0.02,-0.01 -0.03,-0.02 -0.01,-0.02 -0.02,-0.03 -0.03,-0.03 -0.01,0 -0.02,-0.01 -0.03,-0.02 -0.2,-0.22 -0.3,-0.39 -0.3,-0.52 0,-0.15 0.1,-0.31 0.3,-0.49 l 2.25,-2.14 c 0.18,-0.13 0.33,-0.19 0.44,-0.19 0.08,0 0.16,0.03 0.25,0.08 0.14,0.01 0.24,0.09 0.36,0.19 z"
   id="path3502" />
	<linearGradient
   id="SVGID_28_"
   gradientUnits="userSpaceOnUse"
   x1="306.4859"
   y1="523.7912"
   x2="308.9873"
   y2="562.56293">
		<stop
   offset="0"
   style="stop-color:#C9DCEE"
   id="stop3504" />
		<stop
   offset="0.1112"
   style="stop-color:#C0D3E9"
   id="stop3506" />
		<stop
   offset="0.2961"
   style="stop-color:#A8BCD9"
   id="stop3508" />
		<stop
   offset="0.532"
   style="stop-color:#8599BF"
   id="stop3510" />
		<stop
   offset="0.8067"
   style="stop-color:#5470A0"
   id="stop3512" />
		<stop
   offset="0.9944"
   style="stop-color:#0D578D"
   id="stop3514" />
	</linearGradient>
	<path
   style="fill:url(#SVGID_28_)"
   class="st29"
   d="m 303.06,624.52 c 0,-0.92 0.12,-1.8 0.35,-2.64 0.23,-0.84 0.57,-1.64 1,-2.37 0.43,-0.74 0.95,-1.41 1.55,-2.02 0.6,-0.61 1.27,-1.12 2.01,-1.55 0.74,-0.43 1.53,-0.76 2.37,-1 0.84,-0.24 1.72,-0.36 2.64,-0.36 0.91,0 1.79,0.12 2.64,0.36 0.85,0.24 1.64,0.57 2.38,1 0.74,0.43 1.41,0.95 2.01,1.55 0.61,0.61 1.12,1.28 1.55,2.02 0.43,0.74 0.76,1.53 1,2.37 0.24,0.84 0.36,1.72 0.36,2.64 0,0.92 -0.12,1.8 -0.36,2.64 -0.24,0.84 -0.57,1.63 -1,2.36 -0.43,0.73 -0.95,1.4 -1.55,2 -0.61,0.6 -1.28,1.12 -2.01,1.55 -0.74,0.43 -1.53,0.77 -2.38,1 -0.85,0.23 -1.73,0.35 -2.64,0.35 -0.92,0 -1.8,-0.12 -2.64,-0.35 -0.84,-0.23 -1.63,-0.57 -2.37,-1 -0.74,-0.43 -1.4,-0.95 -2.01,-1.55 -0.61,-0.6 -1.12,-1.27 -1.55,-2 -0.43,-0.73 -0.77,-1.52 -1,-2.36 -0.24,-0.85 -0.35,-1.73 -0.35,-2.64 z m 5.02,-0.02 c 0,0.72 0.12,1.39 0.36,2.01 0.24,0.62 0.58,1.17 1.02,1.63 0.44,0.46 0.95,0.83 1.55,1.09 0.6,0.26 1.25,0.4 1.97,0.4 0.72,0 1.38,-0.13 1.98,-0.4 0.6,-0.26 1.12,-0.63 1.55,-1.09 0.44,-0.46 0.78,-1.01 1.02,-1.63 0.24,-0.62 0.36,-1.29 0.36,-2.01 0,-0.71 -0.12,-1.38 -0.36,-2 -0.24,-0.62 -0.58,-1.17 -1.02,-1.64 -0.44,-0.47 -0.95,-0.83 -1.55,-1.1 -0.6,-0.27 -1.26,-0.4 -1.98,-0.4 -0.72,0 -1.37,0.13 -1.97,0.4 -0.6,0.27 -1.11,0.64 -1.55,1.1 -0.44,0.47 -0.78,1.01 -1.02,1.64 -0.24,0.62 -0.36,1.29 -0.36,2 z"
   id="path3517" />
	<linearGradient
   id="SVGID_29_"
   gradientUnits="userSpaceOnUse"
   x1="336.13721"
   y1="521.87817"
   x2="338.63861"
   y2="560.65002">
		<stop
   offset="0"
   style="stop-color:#C9DCEE"
   id="stop3519" />
		<stop
   offset="0.1112"
   style="stop-color:#C0D3E9"
   id="stop3521" />
		<stop
   offset="0.2961"
   style="stop-color:#A8BCD9"
   id="stop3523" />
		<stop
   offset="0.532"
   style="stop-color:#8599BF"
   id="stop3525" />
		<stop
   offset="0.8067"
   style="stop-color:#5470A0"
   id="stop3527" />
		<stop
   offset="0.9944"
   style="stop-color:#0D578D"
   id="stop3529" />
	</linearGradient>
	<path
   style="fill:url(#SVGID_29_)"
   class="st30"
   d="m 334.27,615.43 c 0,-0.16 0.05,-0.29 0.14,-0.4 0.1,-0.11 0.24,-0.17 0.43,-0.17 h 4.24 c 0.12,0 0.25,0.03 0.38,0.09 0.13,0.06 0.24,0.16 0.34,0.31 1.1,1.77 2.19,3.52 3.27,5.24 1.08,1.72 2.18,3.47 3.28,5.24 v -10.39 c 0.03,-0.16 0.1,-0.28 0.21,-0.36 0.1,-0.09 0.22,-0.13 0.36,-0.13 h 3.7 c 0.18,0 0.33,0.05 0.45,0.15 0.12,0.1 0.18,0.24 0.18,0.42 v 18.19 c 0,0.17 -0.05,0.3 -0.16,0.38 -0.1,0.08 -0.25,0.12 -0.43,0.12 h -4.14 c -0.11,0 -0.21,-0.04 -0.3,-0.12 -0.09,-0.08 -0.18,-0.18 -0.27,-0.31 -1.15,-1.9 -2.29,-3.78 -3.41,-5.64 -1.13,-1.86 -2.27,-3.74 -3.43,-5.64 v 11.15 c 0,0.19 -0.04,0.33 -0.13,0.43 -0.09,0.1 -0.24,0.14 -0.47,0.14 h -3.69 c -0.2,0 -0.34,-0.05 -0.43,-0.16 -0.09,-0.11 -0.14,-0.24 -0.14,-0.4 v -18.14 z"
   id="path3532" />
	<linearGradient
   id="SVGID_30_"
   gradientUnits="userSpaceOnUse"
   x1="356.05771"
   y1="520.59302"
   x2="358.55911"
   y2="559.36469">
		<stop
   offset="0"
   style="stop-color:#C9DCEE"
   id="stop3534" />
		<stop
   offset="0.1112"
   style="stop-color:#C0D3E9"
   id="stop3536" />
		<stop
   offset="0.2961"
   style="stop-color:#A8BCD9"
   id="stop3538" />
		<stop
   offset="0.532"
   style="stop-color:#8599BF"
   id="stop3540" />
		<stop
   offset="0.8067"
   style="stop-color:#5470A0"
   id="stop3542" />
		<stop
   offset="0.9944"
   style="stop-color:#0D578D"
   id="stop3544" />
	</linearGradient>
	<path
   style="fill:url(#SVGID_30_)"
   class="st31"
   d="m 361,615.37 c 0.01,-0.05 0.04,-0.11 0.08,-0.17 0.05,-0.06 0.11,-0.12 0.18,-0.17 0.07,-0.05 0.14,-0.09 0.22,-0.12 0.08,-0.03 0.15,-0.05 0.22,-0.05 h 3.32 c 0.15,0 0.27,0.05 0.38,0.14 0.1,0.09 0.18,0.17 0.23,0.24 l 0.32,0.74 6.81,17.57 c 0.07,0.17 0.06,0.31 -0.04,0.42 -0.1,0.11 -0.26,0.16 -0.49,0.16 h -3.72 c -0.2,0 -0.35,-0.04 -0.46,-0.11 -0.11,-0.07 -0.19,-0.2 -0.25,-0.37 -0.17,-0.44 -0.34,-0.88 -0.51,-1.32 -0.16,-0.44 -0.33,-0.88 -0.49,-1.32 h -6.89 c -0.16,0.44 -0.33,0.88 -0.5,1.32 -0.17,0.44 -0.34,0.88 -0.5,1.32 -0.11,0.32 -0.33,0.48 -0.66,0.48 h -3.83 c -0.16,0 -0.3,-0.04 -0.41,-0.13 -0.11,-0.09 -0.13,-0.22 -0.06,-0.39 z m 2.36,5.55 c -0.16,0.44 -0.33,0.92 -0.5,1.43 -0.17,0.51 -0.34,1.02 -0.5,1.54 -0.16,0.52 -0.33,1.03 -0.5,1.54 -0.17,0.51 -0.34,0.98 -0.5,1.42 h 3.98 z"
   id="path3547" />
	<linearGradient
   id="SVGID_31_"
   gradientUnits="userSpaceOnUse"
   x1="383.668"
   y1="518.81171"
   x2="386.1694"
   y2="557.58337">
		<stop
   offset="0"
   style="stop-color:#C9DCEE"
   id="stop3549" />
		<stop
   offset="0.1112"
   style="stop-color:#C0D3E9"
   id="stop3551" />
		<stop
   offset="0.2961"
   style="stop-color:#A8BCD9"
   id="stop3553" />
		<stop
   offset="0.532"
   style="stop-color:#8599BF"
   id="stop3555" />
		<stop
   offset="0.8067"
   style="stop-color:#5470A0"
   id="stop3557" />
		<stop
   offset="0.9944"
   style="stop-color:#0D578D"
   id="stop3559" />
	</linearGradient>
	<path
   style="fill:url(#SVGID_31_)"
   class="st32"
   d="m 383.24,615.46 c 0,-0.18 0.05,-0.33 0.14,-0.43 0.1,-0.11 0.24,-0.16 0.43,-0.16 h 8.29 c 0.6,0 1.16,0.08 1.69,0.25 0.53,0.16 1.01,0.39 1.45,0.68 0.44,0.29 0.84,0.64 1.19,1.04 0.35,0.4 0.66,0.84 0.9,1.3 0.24,0.46 0.43,0.96 0.56,1.47 0.13,0.51 0.19,1.04 0.19,1.56 0,0.78 -0.14,1.54 -0.42,2.28 -0.28,0.74 -0.68,1.41 -1.2,1.99 -0.52,0.58 -1.14,1.05 -1.87,1.41 -0.73,0.36 -1.53,0.54 -2.41,0.55 h -3.93 v 6.18 c 0,0.37 -0.2,0.56 -0.6,0.56 h -3.85 c -0.17,0 -0.31,-0.05 -0.42,-0.14 -0.1,-0.09 -0.16,-0.23 -0.16,-0.42 v -18.12 z m 9.77,5.68 c 0,-0.26 -0.05,-0.52 -0.14,-0.78 -0.09,-0.26 -0.22,-0.49 -0.4,-0.69 -0.17,-0.2 -0.38,-0.37 -0.63,-0.5 -0.25,-0.13 -0.53,-0.19 -0.84,-0.19 h -2.75 v 4.33 H 391 c 0.31,0 0.59,-0.06 0.84,-0.19 0.25,-0.13 0.46,-0.29 0.63,-0.49 0.17,-0.2 0.3,-0.43 0.39,-0.69 0.1,-0.25 0.15,-0.52 0.15,-0.8 z"
   id="path3562" />
	<linearGradient
   id="SVGID_32_"
   gradientUnits="userSpaceOnUse"
   x1="401.29819"
   y1="517.67432"
   x2="403.79959"
   y2="556.44598">
		<stop
   offset="0"
   style="stop-color:#C9DCEE"
   id="stop3564" />
		<stop
   offset="0.1112"
   style="stop-color:#C0D3E9"
   id="stop3566" />
		<stop
   offset="0.2961"
   style="stop-color:#A8BCD9"
   id="stop3568" />
		<stop
   offset="0.532"
   style="stop-color:#8599BF"
   id="stop3570" />
		<stop
   offset="0.8067"
   style="stop-color:#5470A0"
   id="stop3572" />
		<stop
   offset="0.9944"
   style="stop-color:#0D578D"
   id="stop3574" />
	</linearGradient>
	<path
   style="fill:url(#SVGID_32_)"
   class="st33"
   d="m 406.43,615.37 c 0.01,-0.05 0.04,-0.11 0.08,-0.17 0.05,-0.06 0.11,-0.12 0.18,-0.17 0.07,-0.05 0.14,-0.09 0.22,-0.12 0.08,-0.03 0.15,-0.05 0.22,-0.05 h 3.32 c 0.15,0 0.27,0.05 0.38,0.14 0.1,0.09 0.18,0.17 0.23,0.24 l 0.32,0.74 6.81,17.57 c 0.07,0.17 0.06,0.31 -0.04,0.42 -0.1,0.11 -0.26,0.16 -0.49,0.16 h -3.72 c -0.2,0 -0.35,-0.04 -0.46,-0.11 -0.11,-0.07 -0.19,-0.2 -0.25,-0.37 -0.17,-0.44 -0.34,-0.88 -0.51,-1.32 -0.16,-0.44 -0.33,-0.88 -0.49,-1.32 h -6.89 c -0.16,0.44 -0.33,0.88 -0.5,1.32 -0.17,0.44 -0.34,0.88 -0.5,1.32 -0.11,0.32 -0.33,0.48 -0.66,0.48 h -3.83 c -0.16,0 -0.3,-0.04 -0.41,-0.13 -0.11,-0.09 -0.13,-0.22 -0.06,-0.39 z m 2.36,5.55 c -0.16,0.44 -0.33,0.92 -0.5,1.43 -0.17,0.51 -0.34,1.02 -0.5,1.54 -0.16,0.52 -0.33,1.03 -0.5,1.54 -0.17,0.51 -0.34,0.98 -0.5,1.42 h 3.98 z"
   id="path3577" />
	<linearGradient
   id="SVGID_33_"
   gradientUnits="userSpaceOnUse"
   x1="422.34219"
   y1="516.31659"
   x2="424.8436"
   y2="555.08832">
		<stop
   offset="0"
   style="stop-color:#C9DCEE"
   id="stop3579" />
		<stop
   offset="0.1112"
   style="stop-color:#C0D3E9"
   id="stop3581" />
		<stop
   offset="0.2961"
   style="stop-color:#A8BCD9"
   id="stop3583" />
		<stop
   offset="0.532"
   style="stop-color:#8599BF"
   id="stop3585" />
		<stop
   offset="0.8067"
   style="stop-color:#5470A0"
   id="stop3587" />
		<stop
   offset="0.9944"
   style="stop-color:#0D578D"
   id="stop3589" />
	</linearGradient>
	<path
   style="fill:url(#SVGID_33_)"
   class="st34"
   d="m 420.83,615.43 c 0,-0.16 0.05,-0.29 0.14,-0.4 0.1,-0.11 0.24,-0.17 0.43,-0.17 h 4.24 c 0.12,0 0.25,0.03 0.38,0.09 0.13,0.06 0.24,0.16 0.34,0.31 1.1,1.77 2.19,3.52 3.27,5.24 1.08,1.72 2.18,3.47 3.28,5.24 v -10.39 c 0.03,-0.16 0.1,-0.28 0.21,-0.36 0.1,-0.09 0.22,-0.13 0.36,-0.13 h 3.7 c 0.18,0 0.33,0.05 0.45,0.15 0.12,0.1 0.18,0.24 0.18,0.42 v 18.19 c 0,0.17 -0.05,0.3 -0.16,0.38 -0.1,0.08 -0.25,0.12 -0.43,0.12 h -4.14 c -0.11,0 -0.21,-0.04 -0.3,-0.12 -0.09,-0.08 -0.18,-0.18 -0.27,-0.31 -1.15,-1.9 -2.29,-3.78 -3.41,-5.64 -1.13,-1.86 -2.27,-3.74 -3.43,-5.64 v 11.15 c 0,0.19 -0.04,0.33 -0.13,0.43 -0.09,0.1 -0.24,0.14 -0.47,0.14 h -3.69 c -0.2,0 -0.34,-0.05 -0.43,-0.16 -0.09,-0.11 -0.14,-0.24 -0.14,-0.4 v -18.14 z"
   id="path3592" />
	<linearGradient
   id="SVGID_34_"
   gradientUnits="userSpaceOnUse"
   x1="442.9357"
   y1="514.98798"
   x2="445.4371"
   y2="553.7597">
		<stop
   offset="0"
   style="stop-color:#C9DCEE"
   id="stop3594" />
		<stop
   offset="0.1112"
   style="stop-color:#C0D3E9"
   id="stop3596" />
		<stop
   offset="0.2961"
   style="stop-color:#A8BCD9"
   id="stop3598" />
		<stop
   offset="0.532"
   style="stop-color:#8599BF"
   id="stop3600" />
		<stop
   offset="0.8067"
   style="stop-color:#5470A0"
   id="stop3602" />
		<stop
   offset="0.9944"
   style="stop-color:#0D578D"
   id="stop3604" />
	</linearGradient>
	<path
   style="fill:url(#SVGID_34_)"
   class="st35"
   d="m 458.73,624.52 c 0,0.92 -0.12,1.79 -0.35,2.61 -0.23,0.83 -0.57,1.6 -1,2.31 -0.43,0.71 -0.95,1.36 -1.55,1.94 -0.6,0.58 -1.27,1.07 -2,1.48 -0.73,0.41 -1.52,0.72 -2.37,0.94 -0.85,0.22 -1.73,0.33 -2.63,0.33 h -6.4 c -0.16,0 -0.29,-0.03 -0.42,-0.1 -0.12,-0.07 -0.18,-0.22 -0.18,-0.44 v -18.13 c 0,-0.18 0.05,-0.33 0.15,-0.44 0.1,-0.11 0.25,-0.17 0.45,-0.17 h 6.4 c 0.91,0 1.78,0.11 2.63,0.34 0.84,0.22 1.63,0.54 2.36,0.96 0.73,0.41 1.4,0.91 2,1.49 0.6,0.58 1.12,1.23 1.55,1.95 0.43,0.72 0.76,1.49 1,2.32 0.24,0.83 0.36,1.7 0.36,2.61 z m -11.87,-5.01 v 9.98 h 1.09 c 0.2,0 0.39,-0.01 0.58,-0.02 0.19,-0.01 0.38,-0.03 0.57,-0.05 0.65,-0.05 1.25,-0.21 1.82,-0.47 0.56,-0.26 1.05,-0.61 1.47,-1.04 0.42,-0.43 0.75,-0.93 0.99,-1.51 0.24,-0.58 0.36,-1.21 0.36,-1.89 0,-0.73 -0.14,-1.39 -0.41,-2 -0.27,-0.61 -0.64,-1.14 -1.11,-1.58 -0.47,-0.45 -1.01,-0.79 -1.64,-1.04 -0.63,-0.25 -1.3,-0.37 -2,-0.37 h -1.72 z"
   id="path3607" />
	<linearGradient
   id="SVGID_35_"
   gradientUnits="userSpaceOnUse"
   x1="461.99301"
   y1="513.75848"
   x2="464.49438"
   y2="552.53021">
		<stop
   offset="0"
   style="stop-color:#C9DCEE"
   id="stop3609" />
		<stop
   offset="0.1112"
   style="stop-color:#C0D3E9"
   id="stop3611" />
		<stop
   offset="0.2961"
   style="stop-color:#A8BCD9"
   id="stop3613" />
		<stop
   offset="0.532"
   style="stop-color:#8599BF"
   id="stop3615" />
		<stop
   offset="0.8067"
   style="stop-color:#5470A0"
   id="stop3617" />
		<stop
   offset="0.9944"
   style="stop-color:#0D578D"
   id="stop3619" />
	</linearGradient>
	<path
   style="fill:url(#SVGID_35_)"
   class="st36"
   d="m 462.12,615.46 c 0,-0.18 0.05,-0.33 0.15,-0.43 0.1,-0.11 0.24,-0.16 0.42,-0.16 h 12.87 c 0.19,0 0.34,0.06 0.44,0.17 0.1,0.11 0.16,0.26 0.16,0.45 v 3.21 c 0,0.15 -0.05,0.29 -0.16,0.42 -0.1,0.13 -0.26,0.2 -0.45,0.2 h -8.41 v 3.22 h 6.49 c 0.16,0 0.3,0.04 0.41,0.12 0.11,0.08 0.16,0.21 0.16,0.39 v 2.8 c 0,0.12 -0.05,0.24 -0.14,0.35 -0.1,0.11 -0.23,0.17 -0.42,0.17 h -6.5 v 3.32 h 8.72 c 0.39,0 0.58,0.2 0.58,0.6 v 3.26 c 0,0.09 -0.03,0.16 -0.1,0.23 -0.03,0.24 -0.21,0.36 -0.53,0.36 h -13.12 c -0.17,0 -0.31,-0.05 -0.41,-0.14 -0.1,-0.09 -0.16,-0.23 -0.16,-0.42 z"
   id="path3622" />
	<linearGradient
   id="SVGID_36_"
   gradientUnits="userSpaceOnUse"
   x1="482.17819"
   y1="512.45618"
   x2="484.6796"
   y2="551.22803">
		<stop
   offset="0"
   style="stop-color:#C9DCEE"
   id="stop3624" />
		<stop
   offset="0.1112"
   style="stop-color:#C0D3E9"
   id="stop3626" />
		<stop
   offset="0.2961"
   style="stop-color:#A8BCD9"
   id="stop3628" />
		<stop
   offset="0.532"
   style="stop-color:#8599BF"
   id="stop3630" />
		<stop
   offset="0.8067"
   style="stop-color:#5470A0"
   id="stop3632" />
		<stop
   offset="0.9944"
   style="stop-color:#0D578D"
   id="stop3634" />
	</linearGradient>
	<path
   style="fill:url(#SVGID_36_)"
   class="st37"
   d="m 480.71,615.43 c 0.02,-0.16 0.08,-0.29 0.18,-0.4 0.1,-0.11 0.25,-0.17 0.44,-0.17 h 4.49 c 0.32,0 0.53,0.16 0.62,0.49 l 3.53,11.78 3.56,-11.78 c 0.12,-0.33 0.34,-0.49 0.66,-0.49 h 4.44 c 0.16,0 0.3,0.05 0.42,0.16 0.13,0.11 0.2,0.24 0.21,0.41 0.3,3.04 0.61,6.07 0.93,9.06 0.32,3 0.63,6.02 0.93,9.06 v 0.06 c 0,0.34 -0.19,0.51 -0.57,0.51 h -3.67 c -0.4,0 -0.61,-0.19 -0.62,-0.57 l -1.13,-10.03 -2.92,10.1 c -0.02,0.09 -0.08,0.19 -0.19,0.31 -0.11,0.12 -0.21,0.18 -0.32,0.18 h -3.41 c -0.1,0 -0.21,-0.06 -0.33,-0.17 -0.12,-0.12 -0.18,-0.22 -0.19,-0.32 l -2.92,-10.07 -1.13,10 c -0.02,0.38 -0.23,0.57 -0.64,0.57 h -3.67 c -0.37,0 -0.56,-0.19 -0.56,-0.57 z"
   id="path3637" />
	<linearGradient
   id="SVGID_37_"
   gradientUnits="userSpaceOnUse"
   x1="499.8251"
   y1="511.31769"
   x2="502.32651"
   y2="550.08942">
		<stop
   offset="0"
   style="stop-color:#C9DCEE"
   id="stop3639" />
		<stop
   offset="0.1112"
   style="stop-color:#C0D3E9"
   id="stop3641" />
		<stop
   offset="0.2961"
   style="stop-color:#A8BCD9"
   id="stop3643" />
		<stop
   offset="0.532"
   style="stop-color:#8599BF"
   id="stop3645" />
		<stop
   offset="0.8067"
   style="stop-color:#5470A0"
   id="stop3647" />
		<stop
   offset="0.9944"
   style="stop-color:#0D578D"
   id="stop3649" />
	</linearGradient>
	<path
   style="fill:url(#SVGID_37_)"
   class="st38"
   d="m 504.62,615.43 c 0,-0.16 0.05,-0.29 0.14,-0.4 0.1,-0.11 0.24,-0.17 0.43,-0.17 H 509 c 0.13,0 0.27,0.05 0.42,0.16 0.15,0.1 0.22,0.24 0.22,0.42 v 18.13 c 0,0.38 -0.21,0.57 -0.64,0.57 h -3.82 c -0.38,0 -0.57,-0.19 -0.57,-0.57 v -18.14 z"
   id="path3652" />
	<linearGradient
   id="SVGID_38_"
   gradientUnits="userSpaceOnUse"
   x1="513.73639"
   y1="510.4202"
   x2="516.23779"
   y2="549.19202">
		<stop
   offset="0"
   style="stop-color:#C9DCEE"
   id="stop3654" />
		<stop
   offset="0.1112"
   style="stop-color:#C0D3E9"
   id="stop3656" />
		<stop
   offset="0.2961"
   style="stop-color:#A8BCD9"
   id="stop3658" />
		<stop
   offset="0.532"
   style="stop-color:#8599BF"
   id="stop3660" />
		<stop
   offset="0.8067"
   style="stop-color:#5470A0"
   id="stop3662" />
		<stop
   offset="0.9944"
   style="stop-color:#0D578D"
   id="stop3664" />
	</linearGradient>
	<path
   style="fill:url(#SVGID_38_)"
   class="st39"
   d="m 519.33,615.37 c 0.01,-0.05 0.04,-0.11 0.08,-0.17 0.05,-0.06 0.11,-0.12 0.18,-0.17 0.07,-0.05 0.14,-0.09 0.22,-0.12 0.08,-0.03 0.15,-0.05 0.22,-0.05 h 3.32 c 0.15,0 0.27,0.05 0.38,0.14 0.1,0.09 0.18,0.17 0.23,0.24 l 0.32,0.74 6.81,17.57 c 0.07,0.17 0.06,0.31 -0.04,0.42 -0.1,0.11 -0.26,0.16 -0.49,0.16 h -3.72 c -0.2,0 -0.35,-0.04 -0.46,-0.11 -0.11,-0.07 -0.19,-0.2 -0.25,-0.37 -0.17,-0.44 -0.34,-0.88 -0.51,-1.32 -0.16,-0.44 -0.33,-0.88 -0.49,-1.32 h -6.89 c -0.16,0.44 -0.33,0.88 -0.5,1.32 -0.17,0.44 -0.34,0.88 -0.5,1.32 -0.11,0.32 -0.33,0.48 -0.66,0.48 h -3.83 c -0.16,0 -0.3,-0.04 -0.41,-0.13 -0.11,-0.09 -0.13,-0.22 -0.06,-0.39 z m 2.36,5.55 c -0.16,0.44 -0.33,0.92 -0.5,1.43 -0.17,0.51 -0.34,1.02 -0.5,1.54 -0.16,0.52 -0.33,1.03 -0.5,1.54 -0.17,0.51 -0.34,0.98 -0.5,1.42 h 3.98 z"
   id="path3667" />
</g><g
     id="g3695">
	<path
   class="st40"
   d="m 69.1,546.35 c 0,-3.15 0.4,-6.18 1.21,-9.08 0.8,-2.9 1.95,-5.63 3.44,-8.17 1.49,-2.54 3.27,-4.86 5.34,-6.94 2.07,-2.08 4.37,-3.86 6.9,-5.33 2.53,-1.47 5.25,-2.62 8.15,-3.44 2.9,-0.82 5.93,-1.23 9.09,-1.23 3.13,0 6.15,0.41 9.07,1.23 2.92,0.82 5.64,1.96 8.17,3.44 2.53,1.47 4.84,3.25 6.92,5.33 2.09,2.08 3.87,4.4 5.34,6.94 1.47,2.54 2.62,5.27 3.44,8.17 0.82,2.9 1.23,5.93 1.23,9.08 0,3.16 -0.41,6.18 -1.23,9.08 -0.82,2.9 -1.97,5.61 -3.44,8.12 -1.47,2.52 -3.25,4.81 -5.34,6.88 -2.09,2.07 -4.39,3.85 -6.92,5.33 -2.53,1.49 -5.26,2.63 -8.17,3.44 -2.92,0.8 -5.94,1.21 -9.07,1.21 -3.16,0 -6.19,-0.4 -9.09,-1.21 -2.9,-0.8 -5.62,-1.95 -8.15,-3.44 -2.53,-1.49 -4.83,-3.27 -6.9,-5.33 -2.07,-2.07 -3.85,-4.36 -5.34,-6.88 -1.49,-2.51 -2.64,-5.22 -3.44,-8.12 -0.8,-2.89 -1.21,-5.92 -1.21,-9.08 z m 17.28,-0.04 c 0,2.47 0.42,4.78 1.25,6.92 0.83,2.14 2,4.01 3.5,5.6 1.5,1.59 3.28,2.84 5.33,3.75 2.05,0.91 4.31,1.36 6.78,1.36 2.47,0 4.73,-0.45 6.8,-1.36 2.07,-0.91 3.85,-2.16 5.35,-3.75 1.5,-1.59 2.67,-3.46 3.5,-5.6 0.83,-2.14 1.25,-4.45 1.25,-6.92 0,-2.44 -0.42,-4.74 -1.25,-6.9 -0.83,-2.16 -2,-4.04 -3.5,-5.65 -1.5,-1.61 -3.28,-2.87 -5.35,-3.79 -2.07,-0.92 -4.33,-1.38 -6.8,-1.38 -2.47,0 -4.73,0.46 -6.78,1.38 -2.05,0.92 -3.83,2.19 -5.33,3.79 -1.5,1.61 -2.67,3.49 -3.5,5.65 -0.83,2.16 -1.25,4.46 -1.25,6.9 z"
   id="path3671" />
	<path
   class="st40"
   d="m 143.95,527.52 c 0,-0.38 0.1,-0.68 0.31,-0.9 0.21,-0.22 0.5,-0.34 0.88,-0.34 h 17.89 c 1.58,0 3.07,0.3 4.47,0.9 1.4,0.6 2.63,1.43 3.68,2.48 1.05,1.05 1.88,2.28 2.49,3.69 0.61,1.41 0.92,2.92 0.92,4.54 0,1.35 -0.21,2.6 -0.63,3.76 -0.42,1.16 -1.02,2.2 -1.79,3.11 1.29,1.19 2.32,2.6 3.07,4.23 0.75,1.63 1.13,3.37 1.13,5.2 0,1.63 -0.31,3.19 -0.94,4.65 -0.63,1.46 -1.48,2.75 -2.55,3.85 -1.07,1.11 -2.32,1.98 -3.75,2.63 -1.43,0.65 -2.93,0.97 -4.51,0.97 h -19.48 c -0.36,0 -0.65,-0.09 -0.86,-0.28 -0.22,-0.19 -0.32,-0.48 -0.32,-0.88 v -37.61 z m 20.29,10.62 c 0,-0.54 -0.1,-1.04 -0.3,-1.51 -0.2,-0.47 -0.48,-0.88 -0.84,-1.24 -0.36,-0.36 -0.79,-0.64 -1.3,-0.85 -0.5,-0.21 -1.05,-0.31 -1.65,-0.31 h -5.78 v 7.81 h 5.7 c 0.61,0 1.18,-0.09 1.69,-0.28 0.51,-0.19 0.95,-0.46 1.31,-0.81 0.36,-0.35 0.64,-0.76 0.85,-1.24 0.22,-0.47 0.32,-1 0.32,-1.57 z m 1.43,15.65 c 0,-0.54 -0.1,-1.08 -0.31,-1.62 -0.21,-0.54 -0.5,-1.02 -0.86,-1.44 -0.37,-0.42 -0.81,-0.77 -1.32,-1.04 -0.51,-0.27 -1.07,-0.4 -1.66,-0.4 h -7.13 v 9 h 7.13 c 0.59,0 1.14,-0.13 1.65,-0.38 0.5,-0.25 0.95,-0.59 1.32,-1.01 0.38,-0.42 0.67,-0.9 0.88,-1.44 0.2,-0.54 0.3,-1.09 0.3,-1.67 z"
   id="path3673" />
	<path
   class="st40"
   d="m 187.01,553.54 c 0.31,0.25 0.7,0.59 1.17,1.01 0.47,0.42 1.02,0.84 1.63,1.25 0.92,0.61 1.82,1.09 2.72,1.43 0.9,0.34 1.84,0.51 2.83,0.51 0.92,0 1.68,-0.1 2.3,-0.31 0.62,-0.21 1.11,-0.48 1.47,-0.82 0.36,-0.34 0.62,-0.74 0.77,-1.18 0.15,-0.45 0.23,-0.93 0.23,-1.43 0,-0.56 -0.21,-1.05 -0.63,-1.49 -0.42,-0.44 -0.94,-0.83 -1.55,-1.17 -0.61,-0.34 -1.25,-0.63 -1.91,-0.88 -0.66,-0.24 -1.24,-0.44 -1.72,-0.61 -2.16,-0.75 -4.04,-1.57 -5.66,-2.44 -1.62,-0.87 -2.96,-1.84 -4.04,-2.91 -1.08,-1.07 -1.89,-2.24 -2.43,-3.53 -0.54,-1.28 -0.81,-2.71 -0.81,-4.29 0,-1.67 0.34,-3.19 1.01,-4.55 0.67,-1.36 1.63,-2.53 2.88,-3.5 1.25,-0.97 2.75,-1.72 4.51,-2.25 1.76,-0.53 3.73,-0.79 5.9,-0.79 1.63,0 3.2,0.18 4.7,0.55 1.5,0.37 2.98,0.96 4.43,1.77 0.61,0.36 1.19,0.73 1.74,1.12 0.55,0.39 1.03,0.76 1.44,1.12 0.41,0.36 0.74,0.7 0.98,1.02 0.24,0.32 0.36,0.6 0.36,0.84 0,0.23 -0.06,0.45 -0.18,0.65 -0.12,0.2 -0.29,0.42 -0.53,0.67 l -4.12,4.39 c -0.31,0.31 -0.61,0.46 -0.92,0.46 -0.25,0 -0.48,-0.07 -0.69,-0.21 -0.21,-0.14 -0.44,-0.32 -0.69,-0.54 l -0.24,-0.22 c -0.36,-0.3 -0.76,-0.62 -1.2,-0.94 -0.44,-0.32 -0.91,-0.62 -1.41,-0.88 -0.5,-0.26 -1.03,-0.48 -1.59,-0.65 -0.56,-0.17 -1.12,-0.26 -1.7,-0.26 -0.59,0 -1.15,0.05 -1.67,0.15 -0.52,0.1 -0.98,0.26 -1.38,0.47 -0.39,0.21 -0.71,0.5 -0.94,0.85 -0.23,0.35 -0.35,0.78 -0.35,1.28 0,0.5 0.13,0.94 0.38,1.31 0.25,0.37 0.63,0.71 1.13,1.02 0.5,0.31 1.13,0.61 1.87,0.89 0.75,0.28 1.61,0.58 2.6,0.9 1.9,0.63 3.66,1.29 5.27,1.98 1.61,0.69 3,1.51 4.16,2.45 1.17,0.94 2.08,2.07 2.74,3.38 0.66,1.31 0.98,2.9 0.98,4.77 0,1.98 -0.4,3.77 -1.21,5.38 -0.81,1.61 -1.92,2.98 -3.33,4.11 -1.41,1.13 -3.07,2.01 -4.97,2.63 -1.9,0.62 -3.95,0.93 -6.14,0.93 -2.07,0 -4.1,-0.37 -6.09,-1.11 -1.99,-0.74 -3.85,-1.73 -5.58,-2.97 -0.72,-0.52 -1.33,-1.04 -1.82,-1.54 -0.49,-0.5 -0.88,-0.91 -1.17,-1.22 l -0.08,-0.08 c -0.02,-0.04 -0.04,-0.06 -0.05,-0.07 -0.02,-0.01 -0.04,-0.02 -0.05,-0.04 -0.02,-0.04 -0.04,-0.06 -0.05,-0.07 -0.02,-0.01 -0.04,-0.02 -0.05,-0.04 -0.41,-0.45 -0.62,-0.81 -0.62,-1.08 0,-0.31 0.21,-0.65 0.62,-1.03 l 4.66,-4.45 c 0.38,-0.27 0.68,-0.4 0.92,-0.4 0.16,0 0.33,0.05 0.51,0.16 0.2,0.12 0.41,0.28 0.66,0.5 z"
   id="path3675" />
	<path
   class="st40"
   d="m 217.33,527.52 c 0,-0.38 0.1,-0.68 0.31,-0.9 0.21,-0.22 0.5,-0.34 0.87,-0.34 h 26.73 c 0.4,0 0.7,0.12 0.92,0.35 0.22,0.23 0.32,0.55 0.32,0.94 v 6.66 c 0,0.3 -0.11,0.6 -0.32,0.87 -0.22,0.28 -0.53,0.42 -0.94,0.42 h -17.46 v 6.68 h 13.47 c 0.34,0 0.62,0.08 0.85,0.24 0.22,0.16 0.34,0.43 0.34,0.81 v 5.82 c 0,0.25 -0.1,0.49 -0.3,0.73 -0.2,0.23 -0.49,0.35 -0.86,0.35 h -13.5 v 6.9 h 18.11 c 0.81,0 1.21,0.41 1.21,1.24 v 6.77 c 0,0.18 -0.07,0.34 -0.22,0.48 -0.07,0.5 -0.44,0.75 -1.11,0.75 H 218.5 c -0.36,0 -0.64,-0.09 -0.86,-0.28 -0.21,-0.19 -0.32,-0.48 -0.32,-0.88 v -37.61 z"
   id="path3677" />
	<path
   class="st40"
   d="m 253.76,527.52 c 0,-0.38 0.1,-0.68 0.3,-0.9 0.2,-0.22 0.49,-0.34 0.89,-0.34 h 17.41 c 1.85,0 3.58,0.35 5.2,1.04 1.62,0.69 3.03,1.63 4.23,2.82 1.2,1.19 2.15,2.57 2.84,4.16 0.69,1.59 1.04,3.28 1.04,5.08 0,1.22 -0.17,2.38 -0.5,3.49 -0.33,1.11 -0.79,2.14 -1.39,3.1 -0.59,0.96 -1.3,1.83 -2.12,2.61 -0.82,0.78 -1.71,1.45 -2.68,2.01 l 6.93,13.04 c 0.13,0.25 0.29,0.55 0.48,0.89 0.2,0.34 0.3,0.64 0.3,0.89 0,0.29 -0.09,0.51 -0.28,0.66 -0.19,0.15 -0.45,0.23 -0.77,0.23 h -9.24 c -0.31,0 -0.58,-0.09 -0.82,-0.27 -0.24,-0.18 -0.4,-0.42 -0.47,-0.73 l -6.55,-12.32 h -4.37 v 12.15 c 0,0.77 -0.41,1.16 -1.24,1.16 h -8 c -0.36,0 -0.65,-0.09 -0.86,-0.28 -0.22,-0.19 -0.32,-0.48 -0.32,-0.88 v -37.61 z m 21.1,11.96 c 0,-0.54 -0.1,-1.08 -0.3,-1.62 -0.2,-0.54 -0.48,-1.03 -0.84,-1.48 -0.36,-0.45 -0.79,-0.83 -1.29,-1.13 -0.5,-0.3 -1.06,-0.5 -1.67,-0.59 -0.5,-0.04 -0.97,-0.07 -1.41,-0.09 -0.44,-0.03 -0.92,-0.04 -1.44,-0.04 h -3.72 v 9.89 h 4.96 c 0.32,0 0.61,-0.01 0.86,-0.03 0.25,-0.02 0.53,-0.04 0.84,-0.08 0.63,-0.07 1.19,-0.26 1.7,-0.55 0.5,-0.3 0.93,-0.66 1.27,-1.1 0.34,-0.44 0.6,-0.93 0.78,-1.48 0.17,-0.56 0.26,-1.12 0.26,-1.7 z"
   id="path3679" />
	<path
   class="st40"
   d="m 302.64,565.73 c -0.2,-0.32 -0.37,-0.66 -0.53,-1 -0.15,-0.34 -0.3,-0.69 -0.44,-1.05 l -13.82,-36.19 c 0,-0.09 -0.01,-0.17 -0.04,-0.24 -0.03,-0.07 -0.04,-0.14 -0.04,-0.21 0,-0.5 0.33,-0.75 1,-0.75 h 8.68 c 0.68,0 1.15,0.34 1.4,1.02 l 8.22,24.52 c 0.74,-2.05 1.44,-4.09 2.12,-6.13 0.67,-2.04 1.34,-4.08 1.99,-6.13 0.66,-2.05 1.32,-4.09 1.99,-6.13 0.67,-2.04 1.38,-4.08 2.12,-6.13 0.25,-0.68 0.75,-1.02 1.48,-1.02 h 8.49 c 0.41,0 0.7,0.08 0.88,0.23 0.17,0.15 0.26,0.35 0.26,0.61 0,0.14 -0.01,0.24 -0.03,0.3 v 0.08 l -13.9,36.19 c -0.09,0.25 -0.2,0.53 -0.32,0.84 -0.13,0.31 -0.27,0.59 -0.43,0.85 -0.16,0.26 -0.35,0.48 -0.57,0.66 -0.22,0.18 -0.46,0.27 -0.73,0.27 h -6.66 c -0.57,-0.02 -0.94,-0.21 -1.12,-0.59 z"
   id="path3681" />
	<path
   class="st40"
   d="m 335.95,527.33 c 0.02,-0.11 0.08,-0.22 0.17,-0.35 0.1,-0.13 0.22,-0.24 0.36,-0.35 0.14,-0.11 0.3,-0.19 0.46,-0.26 0.16,-0.06 0.31,-0.09 0.46,-0.09 h 6.9 c 0.3,0 0.57,0.09 0.78,0.28 0.21,0.19 0.38,0.35 0.48,0.5 l 0.67,1.54 14.15,36.49 c 0.14,0.36 0.12,0.65 -0.08,0.88 -0.2,0.22 -0.54,0.34 -1.02,0.34 h -7.73 c -0.41,0 -0.73,-0.08 -0.96,-0.23 -0.22,-0.15 -0.4,-0.41 -0.53,-0.77 -0.36,-0.92 -0.71,-1.83 -1.05,-2.74 -0.34,-0.91 -0.68,-1.82 -1.02,-2.73 h -14.31 c -0.34,0.92 -0.69,1.83 -1.04,2.73 -0.35,0.91 -0.7,1.82 -1.04,2.74 -0.23,0.66 -0.69,1 -1.38,1 h -7.95 c -0.34,0 -0.63,-0.09 -0.85,-0.27 -0.22,-0.18 -0.27,-0.45 -0.12,-0.81 z m 4.9,11.53 c -0.34,0.92 -0.69,1.9 -1.04,2.96 -0.35,1.06 -0.7,2.13 -1.04,3.21 -0.34,1.08 -0.69,2.14 -1.04,3.19 -0.35,1.05 -0.7,2.03 -1.04,2.95 h 8.27 z"
   id="path3683" />
	<path
   class="st40"
   d="m 356.83,527.46 c 0,-0.36 0.12,-0.64 0.36,-0.86 0.24,-0.21 0.54,-0.32 0.9,-0.32 h 29 c 0.32,0 0.61,0.1 0.86,0.29 0.25,0.2 0.4,0.49 0.43,0.89 v 6.69 c 0,0.32 -0.11,0.63 -0.34,0.93 -0.22,0.29 -0.54,0.44 -0.96,0.44 h -9.3 v 29.51 c 0,0.32 -0.12,0.62 -0.35,0.88 -0.23,0.26 -0.54,0.39 -0.91,0.39 h -7.9 c -0.3,0 -0.59,-0.12 -0.86,-0.36 -0.27,-0.24 -0.4,-0.54 -0.4,-0.9 v -29.51 h -9.27 c -0.36,0 -0.66,-0.12 -0.9,-0.35 -0.24,-0.23 -0.36,-0.57 -0.36,-1.02 z"
   id="path3685" />
	<path
   class="st40"
   d="m 390.25,552.01 c 0,-1.9 0.24,-3.73 0.73,-5.48 0.48,-1.75 1.18,-3.4 2.08,-4.93 0.9,-1.54 1.97,-2.93 3.22,-4.19 1.25,-1.26 2.64,-2.33 4.17,-3.22 1.53,-0.89 3.17,-1.58 4.92,-2.07 1.75,-0.49 3.58,-0.74 5.49,-0.74 1.89,0 3.71,0.25 5.47,0.74 1.76,0.49 3.41,1.19 4.94,2.07 1.53,0.89 2.92,1.96 4.18,3.22 1.26,1.26 2.33,2.65 3.22,4.19 0.89,1.54 1.58,3.18 2.08,4.93 0.5,1.75 0.74,3.58 0.74,5.48 0,1.9 -0.25,3.73 -0.74,5.48 -0.49,1.75 -1.19,3.39 -2.08,4.9 -0.89,1.52 -1.96,2.9 -3.22,4.15 -1.26,1.25 -2.65,2.32 -4.18,3.22 -1.53,0.9 -3.17,1.59 -4.94,2.07 -1.76,0.48 -3.59,0.73 -5.47,0.73 -1.91,0 -3.73,-0.24 -5.49,-0.73 -1.75,-0.48 -3.39,-1.18 -4.92,-2.07 -1.53,-0.9 -2.92,-1.97 -4.17,-3.22 -1.25,-1.25 -2.32,-2.63 -3.22,-4.15 -0.9,-1.52 -1.59,-3.15 -2.08,-4.9 -0.49,-1.74 -0.73,-3.57 -0.73,-5.48 z m 10.43,-0.02 c 0,1.49 0.25,2.88 0.75,4.18 0.5,1.29 1.21,2.42 2.11,3.38 0.91,0.96 1.98,1.72 3.22,2.26 1.24,0.55 2.6,0.82 4.09,0.82 1.49,0 2.86,-0.27 4.1,-0.82 1.25,-0.55 2.32,-1.3 3.23,-2.26 0.91,-0.96 1.61,-2.09 2.11,-3.38 0.5,-1.29 0.75,-2.69 0.75,-4.18 0,-1.47 -0.25,-2.86 -0.75,-4.16 -0.5,-1.3 -1.21,-2.44 -2.11,-3.41 -0.91,-0.97 -1.98,-1.73 -3.23,-2.29 -1.25,-0.56 -2.62,-0.84 -4.1,-0.84 -1.49,0 -2.85,0.28 -4.09,0.84 -1.24,0.56 -2.31,1.32 -3.22,2.29 -0.91,0.97 -1.61,2.11 -2.11,3.41 -0.5,1.3 -0.75,2.68 -0.75,4.16 z m 8.35,-30.86 c 0.09,-0.41 0.27,-0.71 0.55,-0.88 0.28,-0.17 0.57,-0.26 0.88,-0.26 h 6.95 c 0.27,0 0.47,0.05 0.61,0.16 0.13,0.11 0.22,0.24 0.27,0.4 0.04,0.16 0.05,0.35 0.01,0.55 -0.04,0.21 -0.1,0.41 -0.19,0.61 l -2.64,5.79 c -0.21,0.39 -0.43,0.68 -0.63,0.86 -0.21,0.18 -0.48,0.27 -0.82,0.27 h -5.9 c -0.27,0 -0.45,-0.07 -0.55,-0.22 -0.1,-0.14 -0.15,-0.31 -0.15,-0.51 0,-0.2 0.03,-0.41 0.08,-0.65 0.05,-0.23 0.1,-0.43 0.13,-0.59 z"
   id="path3687" />
	<path
   class="st40"
   d="m 438.11,527.52 c 0,-0.38 0.1,-0.68 0.3,-0.9 0.2,-0.22 0.49,-0.34 0.89,-0.34 h 17.41 c 1.85,0 3.58,0.35 5.2,1.04 1.62,0.69 3.03,1.63 4.23,2.82 1.2,1.19 2.15,2.57 2.84,4.16 0.69,1.59 1.04,3.28 1.04,5.08 0,1.22 -0.17,2.38 -0.5,3.49 -0.33,1.11 -0.79,2.14 -1.39,3.1 -0.59,0.96 -1.3,1.83 -2.12,2.61 -0.82,0.78 -1.71,1.45 -2.68,2.01 l 6.93,13.04 c 0.13,0.25 0.29,0.55 0.48,0.89 0.2,0.34 0.3,0.64 0.3,0.89 0,0.29 -0.09,0.51 -0.28,0.66 -0.19,0.15 -0.45,0.23 -0.77,0.23 h -9.24 c -0.31,0 -0.58,-0.09 -0.82,-0.27 -0.24,-0.18 -0.4,-0.42 -0.47,-0.73 l -6.55,-12.32 h -4.37 v 12.15 c 0,0.77 -0.41,1.16 -1.24,1.16 h -8 c -0.36,0 -0.65,-0.09 -0.86,-0.28 -0.22,-0.19 -0.32,-0.48 -0.32,-0.88 v -37.61 z m 21.1,11.96 c 0,-0.54 -0.1,-1.08 -0.3,-1.62 -0.2,-0.54 -0.48,-1.03 -0.84,-1.48 -0.36,-0.45 -0.79,-0.83 -1.29,-1.13 -0.5,-0.3 -1.06,-0.5 -1.67,-0.59 -0.5,-0.04 -0.97,-0.07 -1.41,-0.09 -0.44,-0.03 -0.92,-0.04 -1.44,-0.04 h -3.72 v 9.89 h 4.96 c 0.32,0 0.61,-0.01 0.86,-0.03 0.25,-0.02 0.53,-0.04 0.84,-0.08 0.63,-0.07 1.19,-0.26 1.7,-0.55 0.5,-0.3 0.93,-0.66 1.27,-1.1 0.34,-0.44 0.6,-0.93 0.78,-1.48 0.17,-0.56 0.26,-1.12 0.26,-1.7 z"
   id="path3689" />
	<path
   class="st40"
   d="m 476.07,527.46 c 0,-0.32 0.1,-0.6 0.3,-0.84 0.2,-0.23 0.49,-0.35 0.89,-0.35 h 7.92 c 0.27,0 0.56,0.11 0.86,0.32 0.31,0.21 0.46,0.5 0.46,0.86 v 37.65 c 0,0.79 -0.44,1.19 -1.32,1.19 h -7.92 c -0.79,0 -1.19,-0.39 -1.19,-1.19 z"
   id="path3691" />
	<path
   class="st40"
   d="m 493.32,546.33 c 0,-1.9 0.24,-3.73 0.73,-5.48 0.48,-1.75 1.18,-3.4 2.08,-4.93 0.9,-1.54 1.97,-2.93 3.22,-4.19 1.25,-1.26 2.64,-2.33 4.17,-3.22 1.53,-0.89 3.17,-1.58 4.92,-2.07 1.75,-0.49 3.58,-0.74 5.49,-0.74 1.89,0 3.71,0.25 5.47,0.74 1.76,0.49 3.41,1.19 4.94,2.07 1.53,0.89 2.92,1.96 4.18,3.22 1.26,1.26 2.33,2.65 3.22,4.19 0.89,1.54 1.58,3.18 2.08,4.93 0.5,1.75 0.74,3.58 0.74,5.48 0,1.9 -0.25,3.73 -0.74,5.48 -0.49,1.75 -1.19,3.39 -2.08,4.9 -0.89,1.52 -1.96,2.9 -3.22,4.15 -1.26,1.25 -2.65,2.32 -4.18,3.22 -1.53,0.9 -3.17,1.59 -4.94,2.07 -1.76,0.48 -3.59,0.73 -5.47,0.73 -1.91,0 -3.73,-0.24 -5.49,-0.73 -1.75,-0.48 -3.39,-1.18 -4.92,-2.07 -1.53,-0.9 -2.92,-1.97 -4.17,-3.22 -1.25,-1.25 -2.32,-2.63 -3.22,-4.15 -0.9,-1.52 -1.59,-3.15 -2.08,-4.9 -0.49,-1.75 -0.73,-3.58 -0.73,-5.48 z m 10.43,-0.03 c 0,1.49 0.25,2.88 0.75,4.18 0.5,1.29 1.21,2.42 2.11,3.38 0.91,0.96 1.98,1.72 3.22,2.26 1.24,0.55 2.6,0.82 4.09,0.82 1.49,0 2.86,-0.27 4.1,-0.82 1.25,-0.55 2.32,-1.3 3.23,-2.26 0.91,-0.96 1.61,-2.09 2.11,-3.38 0.5,-1.29 0.75,-2.69 0.75,-4.18 0,-1.47 -0.25,-2.86 -0.75,-4.16 -0.5,-1.3 -1.21,-2.44 -2.11,-3.41 -0.91,-0.97 -1.98,-1.73 -3.23,-2.29 -1.25,-0.56 -2.62,-0.84 -4.1,-0.84 -1.49,0 -2.85,0.28 -4.09,0.84 -1.24,0.56 -2.31,1.32 -3.22,2.29 -0.91,0.97 -1.61,2.11 -2.11,3.41 -0.5,1.3 -0.75,2.69 -0.75,4.16 z"
   id="path3693" />
</g><g
     id="g3817">
	<linearGradient
   id="SVGID_39_"
   gradientUnits="userSpaceOnUse"
   x1="278.6813"
   y1="396.18341"
   x2="322.2619"
   y2="267.18481">
		<stop
   offset="0"
   style="stop-color:#C9DCEE"
   id="stop3697" />
		<stop
   offset="0.1112"
   style="stop-color:#C0D3E9"
   id="stop3699" />
		<stop
   offset="0.2961"
   style="stop-color:#A8BCD9"
   id="stop3701" />
		<stop
   offset="0.532"
   style="stop-color:#8599BF"
   id="stop3703" />
		<stop
   offset="0.8067"
   style="stop-color:#5470A0"
   id="stop3705" />
		<stop
   offset="0.9944"
   style="stop-color:#0D578D"
   id="stop3707" />
	</linearGradient>
	<path
   style="fill:url(#SVGID_39_)"
   class="st41"
   d="m 349.34,275.24 c 19.18,28.88 9.66,63.3 -13.64,79.98 -23.33,16.7 -55.53,13.73 -75.28,-7.05 -19.64,-20.66 -21,-52.8 -3.91,-75.05 16.41,-21.37 53.81,-33.04 84.24,-7.78 1.02,-1.09 2.24,-2.14 3.12,-3.43 0.6,-0.88 1.17,-2.18 0.97,-3.13 -0.95,-4.55 0.35,-8.17 3.77,-11.22 9.19,-8.19 18.31,-16.46 27.51,-24.64 5.2,-4.63 11.15,-4.33 15.88,0.72 1.7,1.81 3.39,3.64 4.92,5.6 3.45,4.43 3.15,10.31 -0.99,14.1 -9.67,8.84 -19.35,17.67 -29.35,26.13 -1.97,1.67 -5.75,2.87 -8.02,2.16 -4.49,-1.4 -6.68,0.76 -9.22,3.61 z m -44.69,-13.7 c -25.95,-1.21 -48.26,18.77 -49.51,44.35 -1.29,26.18 18.94,48.45 45.02,49.56 25.69,1.09 47.67,-19.18 48.86,-45.06 1.17,-25.3 -19.16,-47.68 -44.37,-48.85 z"
   id="path3710" />
	<linearGradient
   id="SVGID_40_"
   gradientUnits="userSpaceOnUse"
   x1="263.31491"
   y1="293.47711"
   x2="312.32059"
   y2="293.47711">
		<stop
   offset="0"
   style="stop-color:#C9DCEE"
   id="stop3712" />
		<stop
   offset="0.1112"
   style="stop-color:#C0D3E9"
   id="stop3714" />
		<stop
   offset="0.2961"
   style="stop-color:#A8BCD9"
   id="stop3716" />
		<stop
   offset="0.532"
   style="stop-color:#8599BF"
   id="stop3718" />
		<stop
   offset="0.8067"
   style="stop-color:#5470A0"
   id="stop3720" />
		<stop
   offset="0.9944"
   style="stop-color:#0D578D"
   id="stop3722" />
	</linearGradient>
	<path
   style="fill:url(#SVGID_40_)"
   class="st42"
   d="m 267.78,317.28 c -7.98,-11.47 -4.92,-29.44 6.35,-39.56 12.14,-10.9 30.07,-9.6 38.19,-2.81 -25.72,-0.57 -43.65,18.52 -44.54,42.37 z"
   id="path3725" />
	<g
   id="g3815">
		<path
   class="st44"
   d="m 251.98,414.31 c -13.79,26.59 -27.58,53.18 -41.37,79.77 -0.83,-42.61 -1.66,-85.22 -2.49,-127.83 12.65,-21.47 25.31,-42.93 37.96,-64.4 1.96,37.48 3.93,74.97 5.9,112.46 z"
   id="path3727" />
		<path
   class="st45"
   d="m 210.49,363.61 c 11.52,-19.43 23.05,-38.87 34.57,-58.3 7.01,0.23 14.01,0.45 21.02,0.68 -17.17,19.66 -34.35,39.32 -51.52,58.98 -0.18,-0.23 -0.4,-0.46 -0.68,-0.68 -1.31,-0.99 -2.92,-0.76 -3.39,-0.68 z"
   id="path3729" />
		<linearGradient
   id="SVGID_41_"
   gradientUnits="userSpaceOnUse"
   x1="276.4223"
   y1="290.4071"
   x2="243.3011"
   y2="386.28448">
			<stop
   offset="0"
   style="stop-color:#C9DCEE"
   id="stop3731" />
			<stop
   offset="0.1112"
   style="stop-color:#C0D3E9"
   id="stop3733" />
			<stop
   offset="0.2961"
   style="stop-color:#A8BCD9"
   id="stop3735" />
			<stop
   offset="0.532"
   style="stop-color:#8599BF"
   id="stop3737" />
			<stop
   offset="0.8067"
   style="stop-color:#5470A0"
   id="stop3739" />
			<stop
   offset="0.9944"
   style="stop-color:#0D578D"
   id="stop3741" />
		</linearGradient>
		<path
   style="fill:url(#SVGID_41_)"
   class="st46"
   d="m 268.2,421.9 c -17.31,23.8 -34.61,47.59 -51.92,71.39 -1.08,-42.37 -2.16,-84.73 -3.24,-127.1 18.12,-21.18 36.24,-42.37 54.35,-63.55 0.27,39.75 0.54,79.51 0.81,119.26 z"
   id="path3744" />
		<path
   class="st40"
   d="m 210.6,502.2 v 0 c -3.42,0 -6.22,-2.8 -6.22,-6.22 V 369.43 c 0,-3.42 2.8,-6.22 6.22,-6.22 v 0 c 3.42,0 6.22,2.8 6.22,6.22 v 126.55 c 0,3.42 -2.79,6.22 -6.22,6.22 z"
   id="path3746" />
		<path
   class="st44"
   d="m 281.81,414.31 c -13.79,26.59 -27.58,53.18 -41.37,79.77 -0.83,-42.61 -1.66,-85.22 -2.49,-127.83 12.65,-21.47 25.31,-42.93 37.96,-64.4 1.96,37.48 3.93,74.97 5.9,112.46 z"
   id="path3748" />
		<path
   class="st45"
   d="m 240.31,363.61 c 11.52,-19.43 23.05,-38.87 34.57,-58.3 7.01,0.23 14.01,0.45 21.02,0.68 -17.17,19.66 -34.35,39.32 -51.52,58.98 -0.18,-0.23 -0.4,-0.46 -0.68,-0.68 -1.3,-0.99 -2.91,-0.76 -3.39,-0.68 z"
   id="path3750" />
		<linearGradient
   id="SVGID_42_"
   gradientUnits="userSpaceOnUse"
   x1="303.3942"
   y1="296.8837"
   x2="251.9691"
   y2="448.54419">
			<stop
   offset="0"
   style="stop-color:#FFFFFF"
   id="stop3752" />
			<stop
   offset="0.0872"
   style="stop-color:#F8EDDD"
   id="stop3754" />
			<stop
   offset="0.21"
   style="stop-color:#EED1AD"
   id="stop3756" />
			<stop
   offset="0.3361"
   style="stop-color:#E7BA87"
   id="stop3758" />
			<stop
   offset="0.4633"
   style="stop-color:#E0A76B"
   id="stop3760" />
			<stop
   offset="0.592"
   style="stop-color:#DC9955"
   id="stop3762" />
			<stop
   offset="0.7228"
   style="stop-color:#D89046"
   id="stop3764" />
			<stop
   offset="0.8571"
   style="stop-color:#D78A3B"
   id="stop3766" />
			<stop
   offset="1"
   style="stop-color:#D68837"
   id="stop3768" />
		</linearGradient>
		<path
   style="fill:url(#SVGID_42_)"
   class="st47"
   d="m 298.03,421.9 c -17.31,23.8 -34.61,47.59 -51.92,71.39 -1.08,-42.37 -2.16,-84.73 -3.24,-127.1 18.12,-21.18 36.24,-42.37 54.35,-63.55 0.27,39.75 0.54,79.51 0.81,119.26 z"
   id="path3771" />
		<path
   class="st40"
   d="m 240.43,502.2 v 0 c -3.42,0 -6.22,-2.8 -6.22,-6.22 V 369.43 c 0,-3.42 2.8,-6.22 6.22,-6.22 v 0 c 3.42,0 6.22,2.8 6.22,6.22 v 126.55 c 0,3.42 -2.8,6.22 -6.22,6.22 z"
   id="path3773" />
		<path
   class="st44"
   d="m 311.64,414.31 c -13.79,26.59 -27.58,53.18 -41.37,79.77 -0.83,-42.61 -1.66,-85.22 -2.49,-127.83 12.65,-21.47 25.31,-42.93 37.96,-64.4 1.96,37.48 3.93,74.97 5.9,112.46 z"
   id="path3775" />
		<path
   class="st45"
   d="m 270.14,363.61 c 11.52,-19.43 23.05,-38.87 34.57,-58.3 7.01,0.23 14.01,0.45 21.02,0.68 -17.17,19.66 -34.35,39.32 -51.52,58.98 -0.18,-0.23 -0.4,-0.46 -0.68,-0.68 -1.3,-0.99 -2.91,-0.76 -3.39,-0.68 z"
   id="path3777" />
		<linearGradient
   id="SVGID_43_"
   gradientUnits="userSpaceOnUse"
   x1="326.76669"
   y1="305.74689"
   x2="292.7738"
   y2="419.05649">
			<stop
   offset="0"
   style="stop-color:#FFFFFF"
   id="stop3779" />
			<stop
   offset="0.1179"
   style="stop-color:#EFD5CB"
   id="stop3781" />
			<stop
   offset="0.2365"
   style="stop-color:#E1AD9A"
   id="stop3783" />
			<stop
   offset="0.3584"
   style="stop-color:#D78D77"
   id="stop3785" />
			<stop
   offset="0.4813"
   style="stop-color:#CF745F"
   id="stop3787" />
			<stop
   offset="0.6058"
   style="stop-color:#CA5E4C"
   id="stop3789" />
			<stop
   offset="0.7322"
   style="stop-color:#C64A3F"
   id="stop3791" />
			<stop
   offset="0.8619"
   style="stop-color:#C33A37"
   id="stop3793" />
			<stop
   offset="1"
   style="stop-color:#C23435"
   id="stop3795" />
		</linearGradient>
		<path
   style="fill:url(#SVGID_43_)"
   class="st48"
   d="m 327.86,421.9 c -17.31,23.8 -34.61,47.59 -51.92,71.39 -1.08,-42.37 -2.16,-84.73 -3.24,-127.1 18.12,-21.18 36.24,-42.37 54.35,-63.55 0.27,39.75 0.54,79.51 0.81,119.26 z"
   id="path3798" />
		<path
   class="st40"
   d="m 270.26,502.2 v 0 c -3.42,0 -6.22,-2.8 -6.22,-6.22 V 369.43 c 0,-3.42 2.8,-6.22 6.22,-6.22 v 0 c 3.42,0 6.22,2.8 6.22,6.22 v 126.55 c 0,3.42 -2.8,6.22 -6.22,6.22 z"
   id="path3800" />
		<path
   class="st44"
   d="m 341.46,414.31 c -13.79,26.59 -27.58,53.18 -41.37,79.77 -0.83,-42.61 -1.66,-85.22 -2.49,-127.83 12.65,-21.47 25.31,-42.93 37.96,-64.4 1.97,37.48 3.94,74.97 5.9,112.46 z"
   id="path3802" />
		<path
   class="st45"
   d="m 299.97,363.61 c 11.52,-19.43 23.05,-38.87 34.57,-58.3 7.01,0.23 14.01,0.45 21.02,0.68 -17.17,19.66 -34.35,39.32 -51.52,58.98 -0.18,-0.23 -0.4,-0.46 -0.68,-0.68 -1.3,-0.99 -2.91,-0.76 -3.39,-0.68 z"
   id="path3804" />
		<linearGradient
   id="SVGID_44_"
   gradientUnits="userSpaceOnUse"
   x1="351.16739"
   y1="282.9935"
   x2="331.99191"
   y2="384.10049">
			<stop
   offset="0"
   style="stop-color:#FFFFFF"
   id="stop3806" />
			<stop
   offset="1"
   style="stop-color:#459B4A"
   id="stop3808" />
		</linearGradient>
		<path
   style="fill:url(#SVGID_44_)"
   class="st49"
   d="m 357.69,421.9 c -17.31,23.8 -34.61,47.59 -51.92,71.39 -1.08,-42.37 -2.16,-84.73 -3.24,-127.1 18.12,-21.18 36.24,-42.37 54.35,-63.55 0.27,39.75 0.54,79.51 0.81,119.26 z"
   id="path3811" />
		<path
   class="st40"
   d="m 300.09,502.2 v 0 c -3.42,0 -6.22,-2.8 -6.22,-6.22 V 369.43 c 0,-3.42 2.8,-6.22 6.22,-6.22 v 0 c 3.42,0 6.22,2.8 6.22,6.22 v 126.55 c 0,3.42 -2.8,6.22 -6.22,6.22 z"
   id="path3813" />
	</g>
</g></g>
</svg>
